<svg width="27" height="32" viewBox="0 0 27 32" fill="none" xmlns="http://www.w3.org/2000/svg">
<path d="M15.6084 28.2894C15.4274 27.9001 15.5953 27.4373 15.9833 27.2557L23.0091 23.9685C23.3971 23.787 23.8583 23.9554 24.0392 24.3447C24.2202 24.7341 24.0523 25.1968 23.6643 25.3784L16.6386 28.6656C16.2505 28.8472 15.7893 28.6787 15.6084 28.2894Z" fill="#3073D7"/>
<path d="M15.1406 26.3627C14.9597 25.9733 15.1276 25.5105 15.5156 25.329L21.8387 22.3705C22.2268 22.1889 22.688 22.3574 22.8689 22.7467C23.0499 23.1361 22.882 23.5988 22.494 23.7804L16.1708 26.7389C15.7828 26.9204 15.3216 26.752 15.1406 26.3627Z" fill="#3073D7"/>
<path d="M17.13 29.723C16.949 29.3337 17.1169 28.8709 17.5049 28.6894L23.1255 26.0596C23.5135 25.878 23.9748 26.0465 24.1557 26.4358C24.3366 26.8251 24.1688 27.2879 23.7808 27.4695L18.1602 30.0993C17.7721 30.2808 17.3109 30.1124 17.13 29.723Z" fill="#3073D7"/>
<path d="M19.3542 30.8279C19.1732 30.4386 19.3411 29.9758 19.7291 29.7943L22.5394 28.4794C22.9274 28.2978 23.3887 28.4663 23.5696 28.8556C23.7505 29.2449 23.5827 29.7077 23.1946 29.8893L20.3843 31.2042C19.9963 31.3857 19.5351 31.2173 19.3542 30.8279Z" fill="#3073D7"/>
<path d="M0.952809 18.8401C0.771873 18.4507 0.939747 17.988 1.32777 17.8064L4.13806 16.4915C4.52608 16.31 4.98731 16.4784 5.16825 16.8677C5.34918 17.2571 5.18131 17.7199 4.79329 17.9014L1.983 19.2163C1.59498 19.3978 1.13375 19.2294 0.952809 18.8401Z" fill="#3073D7"/>
<path d="M0.736903 9.39638C0.883333 8.99271 1.32818 8.78457 1.73049 8.9315L4.6443 9.99562C5.04661 10.1425 5.25405 10.5889 5.10762 10.9926C4.96119 11.3962 4.51635 11.6044 4.11403 11.4574L1.20022 10.3933C0.797907 10.2464 0.590473 9.80005 0.736903 9.39638Z" fill="#3073D7"/>
<path d="M9.99535 5.16869C9.60733 5.35024 9.1461 5.1818 8.96517 4.79247L7.65471 1.97268C7.47377 1.58335 7.64164 1.12057 8.02966 0.939017C8.41768 0.757469 8.87891 0.925911 9.05985 1.31524L10.3703 4.13502C10.5512 4.52435 10.3834 4.98714 9.99535 5.16869Z" fill="#3073D7"/>
<path d="M17.5835 5.15536C17.1812 5.00844 16.9737 4.56209 17.1201 4.15842L18.1807 1.23477C18.3271 0.831097 18.772 0.622962 19.1743 0.769887C19.5766 0.916812 19.784 1.36316 19.6376 1.76683L18.5771 4.69048C18.4306 5.09415 17.9858 5.30229 17.5835 5.15536Z" fill="#3073D7"/>
<path d="M22.03 8.97843C21.8491 8.5891 22.0169 8.12631 22.405 7.94477L25.2152 6.62988C25.6033 6.44833 26.0645 6.61677 26.2454 7.0061C26.4264 7.39543 26.2585 7.85822 25.8705 8.03977L23.0602 9.35466C22.6722 9.5362 22.2109 9.36776 22.03 8.97843Z" fill="#3073D7"/>
<path fill-rule="evenodd" clip-rule="evenodd" d="M21.3236 22.1824L15.7031 24.8122C14.927 25.1753 14.0046 24.8384 13.6427 24.0597L13.2445 23.203C12.6773 21.9825 11.4886 21.1636 10.2993 20.5397C9.16679 19.9457 7.80679 18.8643 6.90101 16.9153C5.09164 13.0219 6.77038 8.39406 10.6506 6.57858C14.5308 4.7631 19.1431 6.44752 20.9525 10.3408C21.8582 12.2898 21.8097 14.0303 21.5353 15.2826C21.2471 16.5978 21.1082 18.0379 21.6754 19.2583L22.0735 20.1151C22.4354 20.8937 22.0997 21.8193 21.3236 22.1824ZM7.7322 15.883C6.64162 12.8777 7.86532 9.50425 10.6261 7.90538C10.9042 7.74432 11.252 7.87271 11.3877 8.16471C11.5234 8.45671 11.3953 8.8012 11.1203 8.96747C8.93824 10.2867 7.96477 12.9703 8.79121 15.3882C8.89538 15.693 8.77281 16.0395 8.4818 16.1756C8.19078 16.3118 7.84205 16.1858 7.7322 15.883Z" fill="#3073D7"/>
</svg>
