<svg width="78" height="26" viewBox="0 0 78 26" fill="none" xmlns="http://www.w3.org/2000/svg">
<path d="M12.6978 19.1763C12.6044 18.9761 12.6911 18.7381 12.8913 18.6448L16.5165 16.9543C16.7167 16.8609 16.9547 16.9475 17.0481 17.1478C17.1414 17.348 17.0548 17.586 16.8546 17.6793L13.2294 19.3698C13.0292 19.4632 12.7912 19.3765 12.6978 19.1763Z" fill="#3073D7"/>
<path d="M12.4565 18.1855C12.3631 17.9853 12.4497 17.7473 12.6499 17.6539L15.9126 16.1325C16.1129 16.0391 16.3508 16.1258 16.4442 16.326C16.5376 16.5262 16.4509 16.7642 16.2507 16.8575L12.988 18.379C12.7878 18.4723 12.5498 18.3857 12.4565 18.1855Z" fill="#3073D7"/>
<path d="M13.483 19.9136C13.3896 19.7134 13.4762 19.4754 13.6764 19.382L16.5766 18.0296C16.7768 17.9363 17.0148 18.0229 17.1082 18.2231C17.2015 18.4233 17.1149 18.6613 16.9147 18.7547L14.0145 20.1071C13.8143 20.2004 13.5763 20.1138 13.483 19.9136Z" fill="#3073D7"/>
<path d="M14.6306 20.4818C14.5373 20.2816 14.6239 20.0436 14.8241 19.9502L16.2742 19.274C16.4744 19.1807 16.7124 19.2673 16.8058 19.4675C16.8991 19.6677 16.8125 19.9057 16.6123 19.9991L15.1622 20.6753C14.962 20.7686 14.724 20.682 14.6306 20.4818Z" fill="#3073D7"/>
<path d="M5.13564 14.317C5.04228 14.1167 5.1289 13.8787 5.32911 13.7854L6.77921 13.1092C6.97942 13.0158 7.21741 13.1025 7.31078 13.3027C7.40414 13.5029 7.31752 13.7409 7.1173 13.8342L5.66721 14.5104C5.46699 14.6038 5.229 14.5172 5.13564 14.317Z" fill="#3073D7"/>
<path d="M5.02423 9.46047C5.09979 9.25287 5.32933 9.14584 5.53692 9.2214L7.04042 9.76863C7.24802 9.84419 7.35505 10.0737 7.27949 10.2813C7.20394 10.4889 6.9744 10.5959 6.76681 10.5204L5.2633 9.97315C5.05571 9.89759 4.94867 9.66806 5.02423 9.46047Z" fill="#3073D7"/>
<path d="M9.80153 7.28635C9.60132 7.37971 9.36332 7.29309 9.26996 7.09287L8.59377 5.64278C8.50041 5.44256 8.58703 5.20457 8.78725 5.11121C8.98746 5.01785 9.22546 5.10447 9.31882 5.30468L9.99501 6.75478C10.0884 6.95499 10.0017 7.19298 9.80153 7.28635Z" fill="#3073D7"/>
<path d="M13.7169 7.27949C13.5094 7.20394 13.4023 6.9744 13.4779 6.76681L14.0251 5.2633C14.1007 5.05571 14.3302 4.94867 14.5378 5.02423C14.7454 5.09979 14.8524 5.32933 14.7769 5.53692L14.2296 7.04042C14.1541 7.24802 13.9245 7.35505 13.7169 7.27949Z" fill="#3073D7"/>
<path d="M16.0113 9.24553C15.918 9.04532 16.0046 8.80733 16.2048 8.71396L17.6549 8.03777C17.8551 7.94441 18.0931 8.03103 18.1865 8.23125C18.2798 8.43147 18.1932 8.66946 17.993 8.76282L16.5429 9.43901C16.3427 9.53237 16.1047 9.44575 16.0113 9.24553Z" fill="#3073D7"/>
<path fill-rule="evenodd" clip-rule="evenodd" d="M15.6469 16.0358L12.7467 17.3881C12.3462 17.5749 11.8703 17.4016 11.6835 17.0012L11.4781 16.5606C11.1854 15.933 10.572 15.5119 9.95834 15.191C9.374 14.8855 8.67225 14.3294 8.20487 13.3271C7.27125 11.3249 8.13747 8.94502 10.1396 8.01139C12.1418 7.07777 14.5217 7.94399 15.4553 9.94615C15.9227 10.9484 15.8977 11.8435 15.7561 12.4875C15.6074 13.1638 15.5357 13.9044 15.8284 14.532L16.0338 14.9726C16.2205 15.373 16.0473 15.849 15.6469 16.0358ZM8.63376 12.7963C8.07103 11.2507 8.70245 9.51594 10.127 8.69371C10.2705 8.61088 10.45 8.67691 10.52 8.82707C10.59 8.97723 10.5239 9.15439 10.382 9.2399C9.25607 9.91831 8.75376 11.2984 9.1802 12.5418C9.23395 12.6985 9.17071 12.8767 9.02055 12.9467C8.87038 13.0168 8.69044 12.952 8.63376 12.7963Z" fill="#3073D7"/>
<path fill-rule="evenodd" clip-rule="evenodd" d="M28.0288 14.7604C27.9019 14.6335 27.7414 14.57 27.5472 14.57H24.624V8.72362C24.624 8.52949 24.5531 8.36896 24.4112 8.24202C24.2768 8.10762 24.12 8.04042 23.9408 8.04042C23.7318 8.04042 23.56 8.10762 23.4256 8.24202C23.2912 8.36896 23.224 8.52949 23.224 8.72362V15.1972C23.224 15.3914 23.2875 15.5556 23.4144 15.69C23.5488 15.817 23.7131 15.8804 23.9072 15.8804H27.5472C27.7414 15.8804 27.9019 15.8207 28.0288 15.7012C28.1632 15.5743 28.2304 15.4175 28.2304 15.2308C28.2304 15.0367 28.1632 14.8799 28.0288 14.7604ZM24.624 14.7604V14.57H24.3776L24.624 14.7604Z" fill="#3073D7"/>
<path d="M24.3776 14.57L24.624 14.7604V14.57H24.3776Z" fill="#3073D7"/>
<path fill-rule="evenodd" clip-rule="evenodd" d="M34.7883 9.96682C34.6614 9.83989 34.5008 9.77642 34.3067 9.77642C34.1126 9.77642 33.952 9.84362 33.8251 9.97802C33.6982 10.105 33.6347 10.2655 33.6347 10.4596V10.4777C33.5682 10.415 33.4936 10.353 33.4107 10.2916C33.2166 10.1423 32.9851 10.0191 32.7163 9.92202C32.4475 9.82496 32.1526 9.77642 31.8315 9.77642C31.3312 9.77642 30.8758 9.91082 30.4651 10.1796C30.0544 10.441 29.7259 10.8068 29.4795 11.2772C29.2406 11.7402 29.1211 12.2778 29.1211 12.89C29.1211 13.4948 29.2406 14.0324 29.4795 14.5028C29.7259 14.9658 30.0582 15.3316 30.4763 15.6004C30.8944 15.8618 31.3611 15.9924 31.8763 15.9924C32.16 15.9924 32.4214 15.9476 32.6603 15.858C32.9067 15.761 33.1195 15.6452 33.2987 15.5108C33.4311 15.4115 33.5432 15.3122 33.6348 15.2128C33.6382 15.4002 33.7016 15.5592 33.8251 15.69C33.952 15.817 34.1126 15.8804 34.3067 15.8804C34.5008 15.8804 34.6614 15.817 34.7883 15.69C34.9152 15.5556 34.9787 15.3914 34.9787 15.1972V10.4596C34.9787 10.258 34.9152 10.0938 34.7883 9.96682ZM33.6347 15.1972C33.6347 15.2025 33.6347 15.2077 33.6348 15.2128C33.6362 15.2114 33.6375 15.2099 33.6389 15.2084C33.6697 15.1748 33.6982 15.1412 33.7243 15.1076C33.8288 14.9658 33.8811 14.8463 33.8811 14.7492L33.6347 14.6484V15.1972ZM32.9067 14.514C32.6603 14.6783 32.3728 14.7604 32.0443 14.7604C31.7232 14.7604 31.4395 14.6783 31.1931 14.514C30.9467 14.3498 30.7526 14.1258 30.6107 13.842C30.4763 13.5583 30.4091 13.241 30.4091 12.89C30.4091 12.5316 30.4763 12.2106 30.6107 11.9268C30.7526 11.6431 30.9467 11.4191 31.1931 11.2548C31.4395 11.0906 31.7232 11.0084 32.0443 11.0084C32.3728 11.0084 32.6603 11.0906 32.9067 11.2548C33.1531 11.4191 33.3435 11.6431 33.4779 11.9268C33.6198 12.2106 33.6907 12.5316 33.6907 12.89C33.6907 13.241 33.6198 13.5583 33.4779 13.842C33.3435 14.1258 33.1531 14.3498 32.9067 14.514Z" fill="#3073D7"/>
<path d="M33.6347 14.6484V15.1972C33.6347 15.2025 33.6347 15.2077 33.6348 15.2128L33.6389 15.2084C33.6697 15.1748 33.6982 15.1412 33.7243 15.1076C33.8288 14.9658 33.8811 14.8463 33.8811 14.7492L33.6347 14.6484Z" fill="#3073D7"/>
<path d="M41.3619 10.09C41.235 9.95562 41.0744 9.88842 40.8803 9.88842C40.6862 9.88842 40.5256 9.95562 40.3987 10.09C40.2718 10.217 40.2083 10.3775 40.2083 10.5716V13.4388C40.2083 13.7226 40.1598 13.9652 40.0627 14.1668C39.9656 14.361 39.8275 14.5103 39.6483 14.6148C39.4691 14.7119 39.2488 14.7604 38.9875 14.7604C38.6067 14.7604 38.308 14.6634 38.0915 14.4692C37.8824 14.2676 37.7779 13.9242 37.7779 13.4388V10.5716C37.7779 10.3775 37.7144 10.217 37.5875 10.09C37.4606 9.95562 37.3 9.88842 37.1059 9.88842C36.9118 9.88842 36.7512 9.95562 36.6243 10.09C36.4974 10.217 36.4339 10.3775 36.4339 10.5716V13.842C36.4339 14.2602 36.516 14.6335 36.6803 14.962C36.8446 15.2831 37.0723 15.537 37.3635 15.7236C37.6622 15.9028 38.0094 15.9924 38.4051 15.9924C38.7411 15.9924 39.0398 15.9514 39.3011 15.8692C39.5624 15.7871 39.7864 15.6676 39.9731 15.5108C40.0623 15.4353 40.1445 15.3511 40.2195 15.2583V14.626L40.4547 14.8948C40.3912 15.018 40.3194 15.131 40.2391 15.2336C40.2326 15.2419 40.2261 15.2501 40.2195 15.2583V15.3764C40.2195 15.7572 40.1598 16.0559 40.0403 16.2724C39.9283 16.4964 39.7566 16.6532 39.5251 16.7428C39.3011 16.8399 39.0174 16.8884 38.6739 16.8884C38.42 16.8884 38.196 16.8474 38.0019 16.7652C37.8078 16.6906 37.651 16.6346 37.5315 16.5972C37.3672 16.5375 37.2104 16.545 37.0611 16.6196C36.9118 16.7018 36.8035 16.8511 36.7363 17.0676C36.684 17.2319 36.699 17.385 36.7811 17.5268C36.8707 17.6762 37.0275 17.7994 37.2515 17.8964C37.4232 17.9711 37.6435 18.0271 37.9123 18.0644C38.1811 18.1018 38.435 18.1204 38.6739 18.1204C39.2115 18.1204 39.6968 18.0308 40.1299 17.8516C40.563 17.6724 40.9064 17.3775 41.1603 16.9668C41.4216 16.5636 41.5523 16.0186 41.5523 15.3316V10.5716C41.5523 10.3775 41.4888 10.217 41.3619 10.09Z" fill="#3073D7"/>
<path d="M40.4547 14.8948L40.2195 14.626V15.2583C40.2261 15.2501 40.2326 15.2419 40.2391 15.2336C40.3194 15.131 40.3912 15.018 40.4547 14.8948Z" fill="#3073D7"/>
<path fill-rule="evenodd" clip-rule="evenodd" d="M48.2265 8.54442C47.8756 8.20842 47.3417 8.04042 46.6249 8.04042H43.8025C43.6084 8.04042 43.4441 8.10762 43.3097 8.24202C43.1828 8.36896 43.1193 8.52949 43.1193 8.72362V15.1972C43.1193 15.3914 43.1828 15.5556 43.3097 15.69C43.4441 15.817 43.6084 15.8804 43.8025 15.8804H46.5913C46.8676 15.8804 47.1551 15.8506 47.4537 15.7908C47.7524 15.7236 48.0324 15.6042 48.2937 15.4324C48.5551 15.2607 48.7641 15.018 48.9209 14.7044C49.0852 14.3908 49.1673 13.9876 49.1673 13.4948C49.1673 13.0468 49.074 12.681 48.8873 12.3972C48.7081 12.106 48.4767 11.882 48.1929 11.7252C48.0712 11.6528 47.9473 11.5906 47.8213 11.5385C48.1142 11.3934 48.3389 11.2018 48.4953 10.9636C48.6671 10.6948 48.7529 10.385 48.7529 10.034C48.7529 9.37696 48.5775 8.88042 48.2265 8.54442ZM47.8213 11.5385C47.8043 11.5315 47.7872 11.5247 47.7701 11.518C47.6264 11.462 47.4799 11.4191 47.3305 11.3892C47.0319 11.322 46.7668 11.2884 46.5353 11.2884L46.4905 11.7924C46.9833 11.7924 47.3977 11.7215 47.7337 11.5796C47.7636 11.5664 47.7927 11.5527 47.8213 11.5385ZM44.5753 9.36202H46.4233C46.6847 9.36202 46.8937 9.43669 47.0505 9.58602C47.2148 9.72789 47.2969 9.95936 47.2969 10.2804C47.2969 10.5492 47.2111 10.7546 47.0393 10.8964C46.8676 11.0383 46.6735 11.1092 46.4569 11.1092H44.5753V9.36202ZM44.5753 12.4308H46.5129C46.6697 12.4308 46.8415 12.4495 47.0281 12.4868C47.2148 12.5242 47.3753 12.6175 47.5097 12.7668C47.6441 12.9162 47.7113 13.1588 47.7113 13.4948C47.7113 13.8607 47.6105 14.137 47.4089 14.3236C47.2073 14.5028 46.9348 14.5924 46.5913 14.5924H44.5753V12.4308Z" fill="#3073D7"/>
<path d="M46.4905 11.7924C46.9833 11.7924 47.3977 11.7215 47.7337 11.5796C47.7636 11.5664 47.7927 11.5527 47.8213 11.5385C47.8043 11.5315 47.7872 11.5247 47.7701 11.518C47.6264 11.462 47.4799 11.4191 47.3305 11.3892C47.0319 11.322 46.7668 11.2884 46.5353 11.2884L46.4905 11.7924Z" fill="#3073D7"/>
<path d="M51.7696 15.1972C51.7696 15.3914 51.7024 15.5556 51.568 15.69C51.4411 15.817 51.2805 15.8804 51.0864 15.8804C50.8997 15.8804 50.7429 15.817 50.616 15.69C50.4891 15.5556 50.4256 15.3914 50.4256 15.1972V8.27562C50.4256 8.08149 50.4891 7.92096 50.616 7.79402C50.7504 7.65962 50.9147 7.59242 51.1088 7.59242C51.3029 7.59242 51.4597 7.65962 51.5792 7.79402C51.7061 7.92096 51.7696 8.08149 51.7696 8.27562V15.1972Z" fill="#3073D7"/>
<path d="M57.7241 9.88842C57.9182 9.88842 58.0787 9.95562 58.2057 10.09C58.3326 10.217 58.3961 10.3775 58.3961 10.5716V13.4164C58.3961 14.2079 58.1758 14.8351 57.7353 15.298C57.2947 15.761 56.6601 15.9924 55.8313 15.9924C55.0025 15.9924 54.3678 15.761 53.9273 15.298C53.4942 14.8351 53.2777 14.2079 53.2777 13.4164V10.5716C53.2777 10.3775 53.3411 10.217 53.4681 10.09C53.595 9.95562 53.7555 9.88842 53.9497 9.88842C54.1438 9.88842 54.3043 9.95562 54.4313 10.09C54.5582 10.217 54.6217 10.3775 54.6217 10.5716V13.4164C54.6217 13.8719 54.7225 14.2116 54.9241 14.4356C55.1257 14.6522 55.4281 14.7604 55.8313 14.7604C56.2419 14.7604 56.5481 14.6522 56.7497 14.4356C56.9513 14.2116 57.0521 13.8719 57.0521 13.4164V10.5716C57.0521 10.3775 57.1155 10.217 57.2425 10.09C57.3694 9.95562 57.5299 9.88842 57.7241 9.88842Z" fill="#3073D7"/>
<path d="M68.6685 8.02922C68.8627 8.02922 69.0195 8.09642 69.139 8.23082C69.2584 8.35776 69.3181 8.51829 69.3181 8.71242V12.7668C69.3181 13.3866 69.1838 13.9354 68.9149 14.4132C68.6536 14.8911 68.2915 15.2644 67.8285 15.5332C67.3656 15.802 66.828 15.9364 66.2157 15.9364C65.6035 15.9364 65.0621 15.802 64.5918 15.5332C64.1288 15.2644 63.763 14.8911 63.4942 14.4132C63.2328 13.9354 63.1021 13.3866 63.1021 12.7668V8.71242C63.1021 8.51829 63.1693 8.35776 63.3037 8.23082C63.4381 8.09642 63.6099 8.02922 63.819 8.02922C63.9907 8.02922 64.1438 8.09642 64.2782 8.23082C64.42 8.35776 64.491 8.51829 64.491 8.71242V12.7668C64.491 13.1402 64.5694 13.465 64.7262 13.7412C64.8904 14.01 65.1032 14.2191 65.3645 14.3684C65.6334 14.5178 65.9171 14.5924 66.2157 14.5924C66.5368 14.5924 66.8355 14.5178 67.1118 14.3684C67.388 14.2191 67.612 14.01 67.7837 13.7412C67.9555 13.465 68.0413 13.1402 68.0413 12.7668V8.71242C68.0413 8.51829 68.0973 8.35776 68.2093 8.23082C68.3214 8.09642 68.4744 8.02922 68.6685 8.02922Z" fill="#3073D7"/>
<path d="M72.399 15.1972C72.399 15.3914 72.3281 15.5556 72.1862 15.69C72.0444 15.817 71.8801 15.8804 71.6934 15.8804C71.4844 15.8804 71.3164 15.817 71.1894 15.69C71.0625 15.5556 70.999 15.3914 70.999 15.1972V8.72362C70.999 8.52949 71.0662 8.36896 71.2006 8.24202C71.335 8.10762 71.5068 8.04042 71.7158 8.04042C71.895 8.04042 72.0518 8.10762 72.1862 8.24202C72.3281 8.36896 72.399 8.52949 72.399 8.72362V15.1972Z" fill="#3073D7"/>
</svg>
