<svg viewBox="0 0 23 25" fill="none" xmlns="http://www.w3.org/2000/svg">
<path d="M12.3458 18.6447C12.255 18.45 12.3392 18.2186 12.5339 18.1279L16.0586 16.4843C16.2533 16.3935 16.4847 16.4777 16.5755 16.6724C16.6662 16.867 16.582 17.0984 16.3873 17.1892L12.8626 18.8328C12.668 18.9236 12.4366 18.8394 12.3458 18.6447Z" fill="#3073D7"/>
<path d="M12.1111 17.6813C12.0203 17.4867 12.1046 17.2553 12.2992 17.1645L15.4715 15.6852C15.6662 15.5945 15.8975 15.6787 15.9883 15.8734C16.0791 16.068 15.9949 16.2994 15.8002 16.3902L12.628 17.8694C12.4333 17.9602 12.2019 17.876 12.1111 17.6813Z" fill="#3073D7"/>
<path d="M13.1092 19.3615C13.0184 19.1668 13.1026 18.9355 13.2973 18.8447L16.1171 17.5298C16.3117 17.439 16.5431 17.5232 16.6339 17.7179C16.7247 17.9126 16.6404 18.144 16.4458 18.2347L13.626 19.5496C13.4313 19.6404 13.1999 19.5562 13.1092 19.3615Z" fill="#3073D7"/>
<path d="M14.225 19.914C14.1342 19.7193 14.2185 19.4879 14.4131 19.3971L15.823 18.7397C16.0177 18.6489 16.2491 18.7331 16.3398 18.9278C16.4306 19.1225 16.3464 19.3539 16.1517 19.4446L14.7418 20.1021C14.5472 20.1929 14.3158 20.1086 14.225 19.914Z" fill="#3073D7"/>
<path d="M4.99326 13.92C4.90249 13.7254 4.98671 13.494 5.18137 13.4032L6.59126 12.7458C6.78593 12.655 7.01732 12.7392 7.1081 12.9339C7.19887 13.1285 7.11465 13.3599 6.91999 13.4507L5.51009 14.1082C5.31543 14.1989 5.08404 14.1147 4.99326 13.92Z" fill="#3073D7"/>
<path d="M4.88494 9.19819C4.95841 8.99635 5.18158 8.89229 5.38342 8.96575L6.84524 9.49781C7.04708 9.57127 7.15114 9.79445 7.07768 9.99628C7.00422 10.1981 6.78105 10.3022 6.57921 10.2287L5.11738 9.69666C4.91555 9.6232 4.81148 9.40003 4.88494 9.19819Z" fill="#3073D7"/>
<path d="M9.5298 7.08435C9.33514 7.17512 9.10374 7.0909 9.01297 6.89623L8.35553 5.48634C8.26475 5.29168 8.34897 5.06028 8.54364 4.96951C8.7383 4.87873 8.9697 4.96296 9.06047 5.15762L9.71791 6.56751C9.80869 6.76218 9.72447 6.99357 9.5298 7.08435Z" fill="#3073D7"/>
<path d="M13.3367 7.07768C13.1348 7.00422 13.0308 6.78105 13.1042 6.57921L13.6363 5.11738C13.7098 4.91555 13.9329 4.81148 14.1348 4.88494C14.3366 4.95841 14.4407 5.18158 14.3672 5.38342L13.8351 6.84524C13.7617 7.04708 13.5385 7.15114 13.3367 7.07768Z" fill="#3073D7"/>
<path d="M15.5674 8.98922C15.4767 8.79455 15.5609 8.56316 15.7556 8.47238L17.1654 7.81494C17.3601 7.72417 17.5915 7.80839 17.6823 8.00305C17.7731 8.19772 17.6888 8.42911 17.4942 8.51989L16.0843 9.17733C15.8896 9.2681 15.6582 9.18388 15.5674 8.98922Z" fill="#3073D7"/>
<path fill-rule="evenodd" clip-rule="evenodd" d="M15.2131 15.5912L12.3933 16.9061C12.004 17.0876 11.5412 16.9192 11.3596 16.5299L11.1599 16.1015C10.8753 15.4913 10.279 15.0818 9.68226 14.7699C9.11412 14.4729 8.43183 13.9321 7.9774 12.9576C7.06966 11.011 7.91187 8.69703 9.85852 7.78929C11.8052 6.88155 14.1191 7.72376 15.0269 9.67041C15.4813 10.6449 15.4569 11.5152 15.3193 12.1413C15.1747 12.7989 15.105 13.5189 15.3896 14.1292L15.5893 14.5575C15.7708 14.9469 15.6024 15.4096 15.2131 15.5912ZM8.3944 12.4415C7.84727 10.9388 8.46119 9.25213 9.84622 8.45269C9.98574 8.37216 10.1603 8.43636 10.2283 8.58235C10.2964 8.72835 10.2322 8.9006 10.0942 8.98374C8.99946 9.64334 8.51108 10.9851 8.9257 12.1941C8.97796 12.3465 8.91647 12.5197 8.77047 12.5878C8.62447 12.6559 8.44952 12.5929 8.3944 12.4415Z" fill="#3073D7"/>
</svg>
