<svg width="96" height="22" viewBox="0 0 96 22" fill="none" xmlns="http://www.w3.org/2000/svg">
<path fill-rule="evenodd" clip-rule="evenodd" d="M9.32004 14.7024C9.07405 14.4556 8.76293 14.3322 8.3867 14.3322H2.72151V2.96355C2.72151 2.58605 2.58404 2.27388 2.3091 2.02705C2.04864 1.7657 1.74476 1.63503 1.39747 1.63503C0.992292 1.63503 0.659472 1.7657 0.399003 2.02705C0.138535 2.27388 0.00830078 2.58605 0.00830078 2.96355V15.5518C0.00830078 15.9293 0.1313 16.2487 0.377298 16.5101C0.637766 16.7569 0.956116 16.8803 1.33235 16.8803H8.3867C8.76293 16.8803 9.07405 16.7642 9.32004 16.5319C9.58051 16.285 9.71075 15.9801 9.71075 15.6172C9.71075 15.2396 9.58051 14.9347 9.32004 14.7024ZM2.72151 14.7024V14.3322H2.24399L2.72151 14.7024Z" fill="#3073D7"/>
<path d="M2.24399 14.3322L2.72151 14.7024V14.3322H2.24399Z" fill="#3073D7"/>
<path fill-rule="evenodd" clip-rule="evenodd" d="M22.4199 5.38102C22.1739 5.13419 21.8628 5.01078 21.4866 5.01078C21.1104 5.01078 20.7992 5.14145 20.5532 5.4028C20.3073 5.64963 20.1843 5.96179 20.1843 6.33929V6.37438C20.0554 6.25256 19.9107 6.13197 19.7501 6.01261C19.3739 5.72222 18.9253 5.48265 18.4044 5.2939C17.8834 5.10515 17.3119 5.01078 16.6896 5.01078C15.7201 5.01078 14.8374 5.27212 14.0415 5.79482C13.2457 6.303 12.609 7.01444 12.1314 7.92916C11.6684 8.82936 11.4369 9.87475 11.4369 11.0653C11.4369 12.2414 11.6684 13.2868 12.1314 14.2015C12.609 15.1017 13.2529 15.8132 14.0632 16.3359C14.8736 16.844 15.778 17.0981 16.7765 17.0981C17.3263 17.0981 17.8328 17.011 18.2959 16.8368C18.7734 16.648 19.1858 16.423 19.5331 16.1616C19.7897 15.9685 20.0069 15.7753 20.1845 15.5822C20.191 15.9465 20.3139 16.2558 20.5532 16.5101C20.7992 16.7569 21.1104 16.8803 21.4866 16.8803C21.8628 16.8803 22.1739 16.7569 22.4199 16.5101C22.6659 16.2487 22.7889 15.9293 22.7889 15.5518V6.33929C22.7889 5.94727 22.6659 5.62785 22.4199 5.38102ZM20.1843 15.5518C20.1843 15.562 20.1843 15.5721 20.1845 15.5822C20.1872 15.5793 20.1898 15.5765 20.1924 15.5736C20.2521 15.5083 20.3073 15.4429 20.3579 15.3776C20.5605 15.1017 20.6618 14.8694 20.6618 14.6807L20.1843 14.4846V15.5518ZM18.7734 14.2233C18.2959 14.5427 17.7387 14.7024 17.102 14.7024C16.4798 14.7024 15.9299 14.5427 15.4524 14.2233C14.9749 13.9039 14.5987 13.4683 14.3237 12.9166C14.0632 12.3648 13.933 11.7477 13.933 11.0653C13.933 10.3684 14.0632 9.74408 14.3237 9.19234C14.5987 8.64061 14.9749 8.20503 15.4524 7.8856C15.9299 7.56618 16.4798 7.40647 17.102 7.40647C17.7387 7.40647 18.2959 7.56618 18.7734 7.8856C19.2509 8.20503 19.6199 8.64061 19.8804 9.19234C20.1553 9.74408 20.2928 10.3684 20.2928 11.0653C20.2928 11.7477 20.1553 12.3648 19.8804 12.9166C19.6199 13.4683 19.2509 13.9039 18.7734 14.2233Z" fill="#3073D7"/>
<path d="M20.1843 14.4846V15.5518C20.1843 15.562 20.1843 15.5721 20.1845 15.5822L20.1924 15.5736C20.2521 15.5083 20.3073 15.4429 20.3579 15.3776C20.5605 15.1017 20.6618 14.8694 20.6618 14.6807L20.1843 14.4846Z" fill="#3073D7"/>
<path d="M35.1597 5.62059C34.9137 5.35924 34.6025 5.22857 34.2263 5.22857C33.8501 5.22857 33.539 5.35924 33.293 5.62059C33.047 5.86742 32.924 6.17958 32.924 6.55708V12.1325C32.924 12.6842 32.8299 13.1561 32.6418 13.5481C32.4537 13.9256 32.186 14.216 31.8387 14.4193C31.4914 14.6081 31.0645 14.7024 30.558 14.7024C29.8201 14.7024 29.2412 14.5137 28.8216 14.1362C28.4164 13.7442 28.2138 13.0763 28.2138 12.1325V6.55708C28.2138 6.17958 28.0908 5.86742 27.8448 5.62059C27.5988 5.35924 27.2877 5.22857 26.9115 5.22857C26.5353 5.22857 26.2241 5.35924 25.9781 5.62059C25.7321 5.86742 25.6091 6.17958 25.6091 6.55708V12.9166C25.6091 13.7296 25.7683 14.4556 26.0867 15.0945C26.405 15.7188 26.8464 16.2124 27.4107 16.5754C27.9895 16.9239 28.6624 17.0981 29.4293 17.0981C30.0805 17.0981 30.6593 17.0183 31.1658 16.8586C31.6723 16.6988 32.1064 16.4665 32.4681 16.1616C32.6411 16.0148 32.8003 15.8511 32.9457 15.6705V14.4411L33.4015 14.9638C33.2785 15.2033 33.1392 15.423 32.9837 15.6226C32.9711 15.6387 32.9584 15.6547 32.9457 15.6705V15.9003C32.9457 16.6408 32.8299 17.2215 32.5984 17.6426C32.3813 18.0782 32.0485 18.3831 31.5999 18.5573C31.1658 18.7461 30.6159 18.8404 29.9503 18.8404C29.4583 18.8404 29.0242 18.7606 28.6479 18.6009C28.2717 18.4557 27.9678 18.3468 27.7363 18.2742C27.418 18.158 27.1141 18.1726 26.8247 18.3177C26.5353 18.4775 26.3254 18.7678 26.1952 19.1889C26.0939 19.5083 26.1229 19.806 26.282 20.0818C26.4557 20.3722 26.7596 20.6118 27.1937 20.8006C27.5265 20.9457 27.9534 21.0546 28.4743 21.1272C28.9952 21.1998 29.4872 21.2361 29.9503 21.2361C30.9922 21.2361 31.9327 21.0619 32.772 20.7134C33.6113 20.365 34.277 19.7915 34.769 18.9929C35.2754 18.2089 35.5286 17.1489 35.5286 15.8132V6.55708C35.5286 6.17958 35.4057 5.86742 35.1597 5.62059Z" fill="#3073D7"/>
<path d="M33.4015 14.9638L32.9457 14.4411V15.6705C32.9584 15.6547 32.9711 15.6387 32.9837 15.6226C33.1392 15.423 33.2785 15.2033 33.4015 14.9638Z" fill="#3073D7"/>
<path fill-rule="evenodd" clip-rule="evenodd" d="M48.4634 2.61509C47.7833 1.96171 46.7486 1.63503 45.3595 1.63503H39.8896C39.5134 1.63503 39.195 1.7657 38.9346 2.02705C38.6886 2.27388 38.5656 2.58605 38.5656 2.96355V15.5518C38.5656 15.9293 38.6886 16.2487 38.9346 16.5101C39.195 16.7569 39.5134 16.8803 39.8896 16.8803H45.2943C45.8298 16.8803 46.3869 16.8223 46.9657 16.7061C47.5445 16.5754 48.0871 16.3431 48.5936 16.0092C49.1001 15.6752 49.5052 15.2034 49.8091 14.5935C50.1275 13.9837 50.2867 13.1997 50.2867 12.2414C50.2867 11.3702 50.1058 10.6588 49.744 10.1071C49.3967 9.54081 48.9481 9.10523 48.3983 8.80032C48.1624 8.65959 47.9223 8.53858 47.6779 8.43731C48.2456 8.15508 48.681 7.78243 48.9843 7.31935C49.3171 6.79665 49.4835 6.1941 49.4835 5.51169C49.4835 4.23399 49.1435 3.26846 48.4634 2.61509ZM47.6779 8.43731C47.645 8.42365 47.612 8.41035 47.5789 8.39741C47.3003 8.28852 47.0163 8.20503 46.7269 8.14695C46.1481 8.01628 45.6344 7.95094 45.1858 7.95094L45.099 8.931C46.054 8.931 46.8572 8.79306 47.5083 8.5172C47.5661 8.49142 47.6227 8.46479 47.6779 8.43731ZM41.3873 4.20495H44.9688C45.4752 4.20495 45.8804 4.35015 46.1843 4.64053C46.5026 4.9164 46.6618 5.3665 46.6618 5.99083C46.6618 6.51353 46.4954 6.91281 46.1626 7.18868C45.8298 7.46454 45.4535 7.60248 45.0339 7.60248H41.3873V4.20495ZM41.3873 10.1724H45.1424C45.4463 10.1724 45.7791 10.2087 46.1409 10.2813C46.5026 10.3539 46.8137 10.5354 47.0742 10.8258C47.3347 11.1162 47.4649 11.588 47.4649 12.2414C47.4649 12.9529 47.2696 13.4901 46.8789 13.8531C46.4882 14.2015 45.96 14.3757 45.2943 14.3757H41.3873V10.1724Z" fill="#3073D7"/>
<path d="M45.099 8.931C46.054 8.931 46.8572 8.79306 47.5083 8.5172C47.5661 8.49142 47.6227 8.46479 47.6779 8.43731C47.645 8.42365 47.612 8.41035 47.5789 8.39741C47.3003 8.28852 47.0163 8.20503 46.7269 8.14695C46.1481 8.01628 45.6344 7.95094 45.1858 7.95094L45.099 8.931Z" fill="#3073D7"/>
<path d="M55.3298 15.5518C55.3298 15.9293 55.1996 16.2487 54.9391 16.5101C54.6931 16.7569 54.382 16.8803 54.0058 16.8803C53.644 16.8803 53.3401 16.7569 53.0942 16.5101C52.8482 16.2487 52.7252 15.9293 52.7252 15.5518V2.09239C52.7252 1.71489 52.8482 1.40272 53.0942 1.15589C53.3546 0.894544 53.673 0.76387 54.0492 0.76387C54.4254 0.76387 54.7293 0.894544 54.9608 1.15589C55.2068 1.40272 55.3298 1.71489 55.3298 2.09239V15.5518Z" fill="#3073D7"/>
<path d="M66.8696 5.22857C67.2459 5.22857 67.557 5.35924 67.803 5.62059C68.049 5.86742 68.172 6.17958 68.172 6.55708V12.089C68.172 13.628 67.7451 14.8476 66.8913 15.7478C66.0376 16.648 64.8076 17.0981 63.2014 17.0981C61.5952 17.0981 60.3652 16.648 59.5114 15.7478C58.6721 14.8476 58.2525 13.628 58.2525 12.089V6.55708C58.2525 6.17958 58.3755 5.86742 58.6215 5.62059C58.8675 5.35924 59.1786 5.22857 59.5548 5.22857C59.9311 5.22857 60.2422 5.35924 60.4882 5.62059C60.7342 5.86742 60.8572 6.17958 60.8572 6.55708V12.089C60.8572 12.9746 61.0525 13.6353 61.4432 14.0708C61.8339 14.4919 62.42 14.7024 63.2014 14.7024C63.9973 14.7024 64.5905 14.4919 64.9812 14.0708C65.3719 13.6353 65.5673 12.9746 65.5673 12.089V6.55708C65.5673 6.17958 65.6903 5.86742 65.9363 5.62059C66.1823 5.35924 66.4934 5.22857 66.8696 5.22857Z" fill="#3073D7"/>
<path d="M88.0802 1.61325C88.4564 1.61325 88.7603 1.74392 88.9918 2.00527C89.2233 2.2521 89.3391 2.56427 89.3391 2.94177V10.8258C89.3391 12.0309 89.0786 13.098 88.5577 14.0273C88.0512 14.9565 87.3494 15.6825 86.4522 16.2052C85.5551 16.7279 84.5132 16.9892 83.3266 16.9892C82.14 16.9892 81.0909 16.7279 80.1793 16.2052C79.2821 15.6825 78.5731 14.9565 78.0521 14.0273C77.5457 13.098 77.2924 12.0309 77.2924 10.8258V2.94177C77.2924 2.56427 77.4227 2.2521 77.6831 2.00527C77.9436 1.74392 78.2764 1.61325 78.6816 1.61325C79.0144 1.61325 79.3111 1.74392 79.5715 2.00527C79.8465 2.2521 79.9839 2.56427 79.9839 2.94177V10.8258C79.9839 11.5517 80.1359 12.1833 80.4398 12.7205C80.7581 13.2432 81.1705 13.6498 81.677 13.9402C82.1979 14.2306 82.7478 14.3757 83.3266 14.3757C83.9489 14.3757 84.5277 14.2306 85.0631 13.9402C85.5985 13.6498 86.0326 13.2432 86.3654 12.7205C86.6982 12.1833 86.8647 11.5517 86.8647 10.8258V2.94177C86.8647 2.56427 86.9732 2.2521 87.1902 2.00527C87.4073 1.74392 87.7039 1.61325 88.0802 1.61325Z" fill="#3073D7"/>
<path d="M95.3099 15.5518C95.3099 15.9293 95.1724 16.2487 94.8975 16.5101C94.6225 16.7569 94.3042 16.8803 93.9424 16.8803C93.5372 16.8803 93.2116 16.7569 92.9656 16.5101C92.7197 16.2487 92.5966 15.9293 92.5966 15.5518V2.96355C92.5966 2.58605 92.7269 2.27388 92.9874 2.02705C93.2478 1.7657 93.5806 1.63503 93.9858 1.63503C94.3331 1.63503 94.637 1.7657 94.8975 2.02705C95.1724 2.27388 95.3099 2.58605 95.3099 2.96355V15.5518Z" fill="#3073D7"/>
</svg>
