<svg viewBox="0 0 32 32" fill="none" xmlns="http://www.w3.org/2000/svg">
<path d="M29 3C29.5523 3 30 3.44772 30 4V7C30 7.55228 29.5523 8 29 8H3C2.44771 8 2 7.55228 2 7V4C2 3.44772 2.44772 3 3 3H29Z" fill="#555555"/>
<path fill-rule="evenodd" clip-rule="evenodd" d="M28.9231 11C28.9231 10.4477 28.4754 10 27.9231 10H4.07692C3.52464 10 3.07692 10.4477 3.07692 11V28C3.07692 28.5523 3.52464 29 4.07692 29H27.9231C28.4754 29 28.9231 28.5523 28.9231 28V11ZM21.3846 13.8462C21.3846 13.2939 20.9369 12.8462 20.3846 12.8462H11.6154C11.0631 12.8462 10.6154 13.2939 10.6154 13.8462V15.0769C10.6154 15.6292 11.0631 16.0769 11.6154 16.0769H20.3846C20.9369 16.0769 21.3846 15.6292 21.3846 15.0769V13.8462Z" fill="#555555"/>
</svg>
