<svg viewBox="0 0 32 32" fill="none" xmlns="http://www.w3.org/2000/svg">
<path d="M13.7249 18.8813C13.7249 19.7721 12.648 20.2183 12.018 19.5886L7.05415 14.6277C6.66367 14.2374 6.03082 14.2374 5.64034 14.6277L3.83735 16.4296C3.44656 16.8202 3.44656 17.4537 3.83735 17.8442L15.2931 29.2935C15.6836 29.6837 16.3165 29.6837 16.707 29.2935L28.1628 17.8442C28.5535 17.4537 28.5535 16.8202 28.1628 16.4296L26.3598 14.6277C25.9693 14.2374 25.3364 14.2374 24.946 14.6277L19.9821 19.5886C19.3521 20.2183 18.2752 19.7721 18.2752 18.8813L18.2752 3C18.2752 2.44771 17.8275 1.99999 17.2752 1.99999L14.7249 2C14.1726 2 13.7249 2.44771 13.7249 3V18.8813Z" fill="#555555"/>
</svg>
