<svg viewBox="0 0 32 32" fill="none" xmlns="http://www.w3.org/2000/svg">
<path d="M15.7801 17.6207C16.6709 17.6207 17.1171 18.6976 16.4874 19.3276L12.7116 23.1056C12.3213 23.4961 12.3213 24.129 12.7116 24.5194L13.9967 25.8053C14.3872 26.1961 15.0207 26.1961 15.4113 25.8053L24.793 16.4181C25.1833 16.0277 25.1833 15.3948 24.793 15.0043L15.4113 5.61721C15.0207 5.22642 14.3872 5.22642 13.9967 5.61721L12.7116 6.90303C12.3213 7.2935 12.3213 7.92636 12.7116 8.31684L16.4874 12.0948C17.1171 12.7249 16.6709 13.8017 15.7801 13.8017L3 13.8017C2.44772 13.8017 2 14.2495 2 14.8017L2 16.6207C2 17.173 2.44772 17.6207 3 17.6207H15.7801Z" fill="#555555"/>
<path d="M26.181 4C26.181 3.44772 26.6287 3 27.181 3H29C29.5523 3 30 3.44772 30 4L30 27.4599C30 28.0122 29.5523 28.4599 29 28.4599H27.181C26.6287 28.4599 26.181 28.0122 26.181 27.4599L26.181 4Z" fill="#555555"/>
</svg>
