<svg viewBox="0 0 32 32" fill="none" xmlns="http://www.w3.org/2000/svg">
<path d="M13.8392 15.7801C13.8392 16.6709 12.7624 17.1171 12.1323 16.4874L8.35431 12.7116C7.96383 12.3213 7.33098 12.3213 6.9405 12.7116L5.65468 13.9967C5.26389 14.3872 5.26389 15.0207 5.65468 15.4113L15.0418 24.793C15.4323 25.1833 16.0651 25.1833 16.4556 24.793L25.8427 15.4113C26.2335 15.0207 26.2335 14.3872 25.8427 13.9967L24.5569 12.7116C24.1664 12.3213 23.5336 12.3213 23.1431 12.7116L19.3651 16.4874C18.7351 17.1171 17.6582 16.6709 17.6582 15.7801L17.6582 3C17.6582 2.44772 17.2105 2 16.6582 2L14.8392 2C14.2869 2 13.8392 2.44772 13.8392 3V15.7801Z" fill="#555555"/>
<path d="M27.4599 26.181C28.0122 26.181 28.4599 26.6287 28.4599 27.181V29C28.4599 29.5523 28.0122 30 27.4599 30L4 30C3.44772 30 3 29.5523 3 29V27.181C3 26.6287 3.44772 26.181 4 26.181L27.4599 26.181Z" fill="#555555"/>
</svg>
