<svg viewBox="0 0 32 32" fill="none" xmlns="http://www.w3.org/2000/svg">
<path d="M18.8813 18.2752C19.7721 18.2752 20.2183 19.352 19.5887 19.9821L14.6277 24.9459C14.2374 25.3364 14.2374 25.9692 14.6277 26.3597L16.4296 28.1627C16.8202 28.5535 17.4537 28.5535 17.8443 28.1627L29.2935 16.7069C29.6838 16.3164 29.6838 15.6836 29.2935 15.2931L17.8443 3.83729C17.4537 3.4465 16.8202 3.4465 16.4296 3.83729L14.6277 5.64028C14.2374 6.03075 14.2374 6.66361 14.6277 7.05409L19.5887 12.0179C20.2183 12.6479 19.7721 13.7248 18.8813 13.7248L3 13.7248C2.44772 13.7248 2 14.1725 2 14.7248L2 17.2752C2 17.8275 2.44772 18.2752 3 18.2752H18.8813Z" fill="#555555"/>
</svg>
