<svg viewBox="0 0 32 32" fill="none" xmlns="http://www.w3.org/2000/svg">
<path d="M17.6207 16.2199C17.6207 15.3291 18.6976 14.8829 19.3276 15.5126L23.1056 19.2884C23.4961 19.6787 24.129 19.6787 24.5194 19.2884L25.8053 18.0033C26.1961 17.6128 26.1961 16.9793 25.8053 16.5887L16.4181 7.20697C16.0277 6.81672 15.3948 6.81672 15.0043 7.20697L5.61721 16.5887C5.22642 16.9793 5.22642 17.6128 5.61721 18.0033L6.90303 19.2884C7.29351 19.6787 7.92636 19.6787 8.31684 19.2884L12.0948 15.5126C12.7249 14.8829 13.8017 15.3291 13.8017 16.2199L13.8017 29C13.8017 29.5523 14.2495 30 14.8017 30L16.6207 30C17.173 30 17.6207 29.5523 17.6207 29V16.2199Z" fill="#555555"/>
<path d="M4 5.81899C3.44772 5.81899 3 5.37128 3 4.81899V3C3 2.44772 3.44772 2 4 2L27.4599 2C28.0122 2 28.4599 2.44772 28.4599 3V4.81899C28.4599 5.37128 28.0122 5.81899 27.4599 5.81899L4 5.81899Z" fill="#555555"/>
</svg>
