<svg viewBox="0 0 32 32" fill="none" xmlns="http://www.w3.org/2000/svg">
<path d="M13.1187 13.7248C12.2279 13.7248 11.7817 12.6479 12.4113 12.0179L17.3723 7.05409C17.7626 6.66361 17.7626 6.03075 17.3723 5.64028L15.5704 3.83729C15.1798 3.4465 14.5463 3.4465 14.1557 3.83729L2.7065 15.2931C2.31625 15.6836 2.31625 16.3164 2.7065 16.7069L14.1557 28.1627C14.5463 28.5535 15.1798 28.5535 15.5704 28.1627L17.3723 26.3597C17.7626 25.9692 17.7626 25.3364 17.3723 24.9459L12.4113 19.9821C11.7817 19.352 12.2279 18.2752 13.1187 18.2752L29 18.2752C29.5523 18.2752 30 17.8275 30 17.2752L30 14.7248C30 14.1725 29.5523 13.7248 29 13.7248H13.1187Z" fill="#555555"/>
</svg>
