<svg viewBox="0 0 32 32" fill="none" xmlns="http://www.w3.org/2000/svg">
<path d="M18.2752 13.1186C18.2752 12.2279 19.3521 11.7816 19.9821 12.4113L24.946 17.3723C25.3364 17.7626 25.9693 17.7626 26.3598 17.3723L28.1628 15.5704C28.5535 15.1798 28.5535 14.5463 28.1628 14.1557L16.707 2.70649C16.3165 2.31624 15.6836 2.31624 15.2932 2.70649L3.83735 14.1557C3.44656 14.5463 3.44656 15.1798 3.83735 15.5704L5.64034 17.3723C6.03082 17.7626 6.66367 17.7626 7.05415 17.3723L12.018 12.4113C12.648 11.7817 13.7249 12.2279 13.7249 13.1186L13.7249 29C13.7249 29.5523 14.1726 30 14.7249 30L17.2752 30C17.8275 30 18.2752 29.5523 18.2752 29V13.1186Z" fill="#555555"/>
</svg>
