<svg viewBox="0 0 32 32" fill="none" xmlns="http://www.w3.org/2000/svg">
<path d="M16.2199 13.8392C15.3291 13.8392 14.8829 12.7624 15.5126 12.1323L19.2884 8.35431C19.6787 7.96383 19.6787 7.33098 19.2884 6.9405L18.0033 5.65468C17.6128 5.26389 16.9793 5.26389 16.5887 5.65468L7.20697 15.0418C6.81672 15.4323 6.81672 16.0651 7.20697 16.4556L16.5887 25.8427C16.9793 26.2335 17.6128 26.2335 18.0033 25.8427L19.2884 24.5569C19.6787 24.1664 19.6787 23.5336 19.2884 23.1431L15.5126 19.3651C14.8829 18.7351 15.3291 17.6582 16.2199 17.6582L29 17.6582C29.5523 17.6582 30 17.2105 30 16.6582L30 14.8392C30 14.2869 29.5523 13.8392 29 13.8392H16.2199Z" fill="#555555"/>
<path d="M5.81899 27.4599C5.81899 28.0122 5.37128 28.4599 4.81899 28.4599H3C2.44772 28.4599 2 28.0122 2 27.4599L2 4C2 3.44772 2.44772 3 3 3H4.81899C5.37128 3 5.81899 3.44772 5.81899 4L5.81899 27.4599Z" fill="#555555"/>
</svg>
