<svg viewBox="0 0 32 32" fill="none" xmlns="http://www.w3.org/2000/svg">
<path d="M26.5738 25.7236L29.8946 19.3666C30.2225 18.7387 29.7456 18 29.0122 18C28.7398 18 28.5189 17.7886 28.5189 17.5279V5C28.5189 4.44772 28.0512 4 27.4742 4H22.9394C22.5215 4 22.1438 4.2384 21.9791 4.60608L20.7916 7.25825C20.7239 7.40959 20.5826 7.51929 20.4139 7.55158L18.5916 7.90044C18.2892 7.95833 18.0715 8.21248 18.0715 8.50766C18.0715 8.79589 18.2793 9.046 18.5727 9.11096L23.5846 10.2207C23.971 10.3063 24.34 10.0255 24.34 9.64589C24.34 9.48146 24.2683 9.32449 24.1422 9.21282L22.9999 8.20106C22.8599 8.07707 22.8016 7.88991 22.8479 7.7128L23.0974 6.75746C23.2137 6.3123 23.6316 6 24.111 6H25.3847C25.9617 6 26.4295 6.44772 26.4295 7V17.5C26.4295 17.7761 26.1956 18 25.9071 18H3.04609C2.26945 18 1.76432 18.7823 2.11164 19.4472L5.39025 25.7236C5.47873 25.893 5.65961 26 5.85747 26H6.84541C7.20317 26 7.43586 26.3604 7.27587 26.6667C6.95587 27.2793 7.42125 28 8.13678 28H9.06791C9.46363 28 9.82539 27.786 10.0024 27.4472L10.614 26.2764C10.7024 26.107 10.8833 26 11.0812 26H20.8829C21.0808 26 21.2617 26.107 21.3501 26.2764L21.9617 27.4472C22.1387 27.786 22.5005 28 22.8962 28H23.8273C24.5428 28 25.0082 27.2793 24.6882 26.6667C24.5282 26.3604 24.7609 26 25.1187 26H26.1066C26.3045 26 26.4854 25.893 26.5738 25.7236Z" fill="#555555"/>
</svg>
