<svg viewBox="0 0 32 32" fill="none" xmlns="http://www.w3.org/2000/svg">
<path d="M4.5 25.5C4.77614 25.5 5 25.2761 5 25V23.5C5 22.9477 5.44772 22.5 6 22.5H26C26.5523 22.5 27 22.9477 27 23.5V25C27 25.2761 27.2239 25.5 27.5 25.5H29.5C29.7761 25.5 30 25.2761 30 25V14.5C30 13.9477 29.5523 13.5 29 13.5H3C2.44771 13.5 2 13.9477 2 14.5V25C2 25.2761 2.22386 25.5 2.5 25.5H4.5Z" fill="#555555"/>
<path d="M5.2 13C5.08954 13 5 12.9105 5 12.8V6.5C5 5.94772 5.44772 5.5 6 5.5H26C26.5523 5.5 27 5.94772 27 6.5V12.8C27 12.9105 26.9105 13 26.8 13H24.2C24.0895 13 24 12.9105 24 12.8V10.618C24 10.2393 23.7881 9.88707 23.4338 9.75304C21.661 9.08232 19.339 9.08232 17.5662 9.75304C17.2119 9.88707 17 10.2393 17 10.618L17 12.8C17 12.9105 16.9105 13 16.8 13H15.2C15.0895 13 15 12.9105 15 12.8V10.618C15 10.2393 14.7881 9.88707 14.4338 9.75304C12.661 9.08232 10.339 9.08232 8.56617 9.75304C8.2119 9.88707 8 10.2393 8 10.618V12.8C8 12.9105 7.91046 13 7.8 13H5.2Z" fill="#555555"/>
</svg>
