<svg viewBox="0 0 32 32" fill="none" xmlns="http://www.w3.org/2000/svg">
<path d="M2 6C2 5.44772 2.44772 5 3 5H6.27924C6.70967 5 7.09181 5.27543 7.22792 5.68377L7.77208 7.31623C7.90819 7.72457 8.29033 8 8.72076 8H28.6908C29.3501 8 29.829 8.62698 29.6555 9.26312L27.201 18.2631C27.0823 18.6982 26.6872 19 26.2362 19H12.6404C12.3151 19 12.0764 19.3057 12.1553 19.6213L12.4053 20.6213C12.461 20.8439 12.661 21 12.8904 21H25.1126C25.7951 21 26.2771 21.6687 26.0613 22.3162L25.6658 23.5025C25.562 23.814 25.6307 24.1512 25.7689 24.4491C25.9172 24.7686 26 25.1246 26 25.5C26 26.8807 24.8807 28 23.5 28C22.1193 28 21 26.8807 21 25.5C21 25.0805 21.1033 24.6851 21.2859 24.3379C21.3627 24.192 21.2643 24 21.0995 24H13.9005C13.7357 24 13.6373 24.192 13.7141 24.3379C13.8967 24.6851 14 25.0805 14 25.5C14 26.8807 12.8807 28 11.5 28C10.1193 28 9 26.8807 9 25.5C9 24.973 9.16305 24.4841 9.44146 24.081C9.67012 23.7499 9.808 23.3408 9.68766 22.9569L5.21968 8.70093C5.08896 8.28386 4.70253 8 4.26545 8H3C2.44772 8 2 7.55228 2 7V6Z" fill="#555555"/>
</svg>
