<svg viewBox="0 0 20 20" fill="none" xmlns="http://www.w3.org/2000/svg">
<path d="M1.25 4.0625C1.25 3.54473 1.66973 3.125 2.1875 3.125H3.65424C4.08467 3.125 4.46681 3.40043 4.60292 3.80877L4.77208 4.31623C4.90819 4.72457 5.29033 5 5.72076 5H17.4408C18.1001 5 18.579 5.62698 18.4055 6.26312L17.076 11.1381C16.9573 11.5732 16.5622 11.875 16.1112 11.875H8.14039C7.8151 11.875 7.57642 12.1807 7.65532 12.4963L7.71782 12.7463C7.77346 12.9689 7.97345 13.125 8.20289 13.125H15.1751C15.8576 13.125 16.3396 13.7937 16.1238 14.4412L16.1033 14.5025C15.9995 14.814 16.0774 15.1509 16.1769 15.4638C16.2244 15.6132 16.25 15.7724 16.25 15.9375C16.25 16.8004 15.5504 17.5 14.6875 17.5C13.8246 17.5 13.125 16.8004 13.125 15.9375C13.125 15.7286 13.166 15.5294 13.2403 15.3473C13.3027 15.1946 13.2019 15 13.037 15H8.83798C8.6731 15 8.57235 15.1946 8.63467 15.3473C8.70902 15.5294 8.75 15.7286 8.75 15.9375C8.75 16.8004 8.05045 17.5 7.1875 17.5C6.32455 17.5 5.625 16.8004 5.625 15.9375C5.625 15.6971 5.67929 15.4694 5.77629 15.2659C5.94945 14.9027 6.10066 14.4944 5.98032 14.1104L3.34468 5.70093C3.21396 5.28386 2.82753 5 2.39045 5H2.1875C1.66973 5 1.25 4.58027 1.25 4.0625Z" fill="#555555"/>
</svg>
