<svg viewBox="0 0 32 32" fill="none" xmlns="http://www.w3.org/2000/svg">
<path fill-rule="evenodd" clip-rule="evenodd" d="M30 25C30 24.4477 29.5523 24 29 24L3 24C2.44772 24 2 24.4477 2 25V29C2 29.5523 2.44771 30 3 30L29 30C29.5523 30 30 29.5523 30 29V25ZM16 28C16.5523 28 17 27.5523 17 27C17 26.4477 16.5523 26 16 26C15.4477 26 15 26.4477 15 27C15 27.5523 15.4477 28 16 28Z" fill="#555555"/>
<path fill-rule="evenodd" clip-rule="evenodd" d="M30 22C30 22.5523 29.5523 23 29 23H3C2.44772 23 2 22.5523 2 22V19.2361C2 19.0808 2.03615 18.9277 2.10558 18.7889L4.89444 13.2112C4.96386 13.0723 5.00001 12.9192 5.00001 12.7639L5 9.50001C5 8.94773 5.44771 8.50001 6 8.50001H13C13.5523 8.50001 14 8.94772 14 9.50001L14 12C14 12.5523 14.4477 13 15 13H19C19.5523 13 20 12.5523 20 12V7.00001C20 6.44773 19.5523 6.00001 19 6.00001H18C17.4477 6.00001 17 5.5523 17 5.00001V3.00001C17 2.44773 17.4477 2.00001 18 2.00001H25C25.5523 2.00001 26 2.44773 26 3.00001V5.00001C26 5.5523 25.5523 6.00001 25 6.00001H24C23.4477 6.00001 23 6.44773 23 7.00001V12C23 12.5523 23.4477 13 24 13H26.382C26.7607 13 27.107 13.214 27.2764 13.5528L29.8944 18.7889C29.9639 18.9277 30 19.0808 30 19.2361V22ZM5.76296 19C5.39757 19 5.14776 18.6309 5.28355 18.2917C5.36201 18.0957 5.55185 17.9672 5.76296 17.9672H7.45028C7.7978 17.9672 8.04611 18.3036 7.94377 18.6357C7.87704 18.8522 7.6769 19 7.45028 19H5.76296ZM6.54221 15.983C6.34021 15.983 6.15855 16.1059 6.08347 16.2935C5.95354 16.618 6.19258 16.9712 6.54221 16.9712H8.09189C8.30873 16.9712 8.50024 16.8298 8.5641 16.6226C8.66203 16.3048 8.42442 15.983 8.09189 15.983H6.54221ZM7.33584 14.9926C6.98546 14.9926 6.7459 14.6387 6.87612 14.3134C6.95135 14.1254 7.1334 14.0022 7.33584 14.0022H8.70081C9.03406 14.0022 9.27218 14.3248 9.17404 14.6432C9.11005 14.8509 8.91813 14.9926 8.70081 14.9926H7.33584ZM13.2328 14.5592C13.2699 14.2635 13.0394 14.0022 12.7414 14.0022H11.2462C11.0149 14.0022 10.8145 14.1623 10.7633 14.3878C10.6929 14.6976 10.9285 14.9926 11.2462 14.9926H12.7414C12.9911 14.9926 13.2016 14.8068 13.2328 14.5592ZM10.7956 15.983C10.5649 15.983 10.3648 16.1427 10.3137 16.3677C10.2435 16.6769 10.4786 16.9712 10.7956 16.9712H12.4937C12.7428 16.9712 12.9529 16.7858 12.984 16.5387C13.021 16.2437 12.791 15.983 12.4937 15.983H10.7956ZM9.85708 18.3789C9.78483 18.6971 10.0267 19 10.353 19H12.2207C12.48 19 12.6988 18.807 12.7312 18.5497C12.77 18.2411 12.5283 17.969 12.2174 17.971L10.3497 17.983C10.1135 17.9845 9.90938 18.1485 9.85708 18.3789ZM17.4212 18.4502C17.4405 18.7479 17.2042 19 16.9059 19H15.115C14.8224 19 14.5883 18.7572 14.5989 18.4648C14.6091 18.1871 14.8371 17.9672 15.115 17.9672H16.9059C17.1781 17.9672 17.4036 18.1785 17.4212 18.4502ZM15.1659 15.983C14.9 15.983 14.6818 16.1934 14.6721 16.4591C14.6619 16.7388 14.886 16.9712 15.1659 16.9712H16.798C17.0835 16.9712 17.3096 16.73 17.2911 16.4451C17.2743 16.1852 17.0585 15.983 16.798 15.983H15.1659ZM14.7444 14.4794C14.7541 14.2131 14.9728 14.0022 15.2392 14.0022H16.6686C16.9296 14.0022 17.1458 14.2049 17.1627 14.4654C17.1812 14.7508 16.9546 14.9926 16.6686 14.9926H15.2392C14.9587 14.9926 14.7341 14.7597 14.7444 14.4794ZM21.2122 14.3878C21.161 14.1623 20.9605 14.0022 20.7293 14.0022H19.2723C18.9751 14.0022 18.7449 14.2622 18.7807 14.5572C18.811 14.8057 19.0219 14.9926 19.2723 14.9926H20.7293C21.047 14.9926 21.2825 14.6976 21.2122 14.3878ZM19.512 15.983C19.2155 15.983 18.9857 16.2424 19.0215 16.5368C19.0517 16.7847 19.2622 16.9712 19.512 16.9712H21.1799C21.4969 16.9712 21.7319 16.6769 21.6617 16.3677C21.6106 16.1427 21.4106 15.983 21.1799 15.983H19.512ZM19.2667 18.5524C19.2978 18.8079 19.5147 19 19.772 19H21.6143C21.9448 19 22.1898 18.6932 22.1166 18.3709C22.063 18.1351 21.8527 17.9683 21.611 17.9699L19.7687 17.9819C19.4645 17.9839 19.23 18.2504 19.2667 18.5524ZM26.2183 17.9696C26.4307 17.9682 26.6222 18.0972 26.7006 18.2945C26.835 18.6328 26.5858 19 26.2218 19H24.5201C24.2965 19 24.099 18.8542 24.0332 18.6405C23.9326 18.3142 24.1752 17.9833 24.5167 17.981L26.2183 17.9696ZM25.4467 16.9712C25.7958 16.9712 26.0348 16.619 25.9059 16.2946C25.8312 16.1065 25.6492 15.983 25.4467 15.983H23.8836C23.551 15.983 23.3134 16.3048 23.4114 16.6226C23.4752 16.8298 23.6667 16.9712 23.8836 16.9712H25.4467ZM24.659 14.0022C24.8619 14.0022 25.0442 14.126 25.1192 14.3146C25.2483 14.6397 25.0088 14.9926 24.659 14.9926H23.2747C23.0573 14.9926 22.8654 14.8509 22.8014 14.6432C22.7033 14.3248 22.9414 14.0022 23.2747 14.0022H24.659ZM12.5025 10.9975C12.5011 10.4462 12.0538 10 11.5025 10H7.5C6.94772 10 6.5 10.4477 6.5 11C6.5 11.5523 6.94772 12 7.5 12H11.5025C12.0557 12 12.5038 11.5508 12.5025 10.9975Z" fill="#555555"/>
</svg>
