<svg viewBox="0 0 32 32" fill="none" xmlns="http://www.w3.org/2000/svg">
<path d="M21 2.99999H11C10.4477 2.99999 10 3.44771 10 3.99999V12C10 12.5523 10.4477 13 11 13H14C14.5523 13 15 13.4477 15 14C15 14.5523 14.5523 15 14 15H8C7.44772 15 7 15.4477 7 16V18C7 18.5523 6.55228 19 6 19H3C2.44772 19 2 19.4477 2 20V28C2 28.5523 2.44772 29 3 29H13C13.5523 29 14 28.5523 14 28V20C14 19.4477 13.5523 19 13 19H10C9.44772 19 9 18.5523 9 18C9 17.4477 9.44772 17 10 17H22C22.5523 17 23 17.4477 23 18C23 18.5523 22.5523 19 22 19H19C18.4477 19 18 19.4477 18 20V28C18 28.5523 18.4477 29 19 29H29C29.5523 29 30 28.5523 30 28V20C30 19.4477 29.5523 19 29 19H26C25.4477 19 25 18.5523 25 18V16C25 15.4477 24.5523 15 24 15H18C17.4477 15 17 14.5523 17 14C17 13.4477 17.4477 13 18 13H21C21.5523 13 22 12.5523 22 12V3.99999C22 3.44771 21.5523 2.99999 21 2.99999Z" fill="#555555"/>
</svg>
