<svg viewBox="0 0 20 20" fill="none" xmlns="http://www.w3.org/2000/svg">
<path d="M1 2.5C1 2.22386 1.22386 2 1.5 2H2.75C3.02614 2 3.25 2.22386 3.25 2.5V15.2143C3.25 15.4904 3.47386 15.7143 3.75 15.7143H18.5C18.7761 15.7143 19 15.9381 19 16.2143V17.5C19 17.7761 18.7761 18 18.5 18H1.5C1.22386 18 1 17.7761 1 17.5V2.5Z" fill="#555555"/>
<path d="M4.75 14.4524C4.75 14.7285 4.97386 14.9524 5.25 14.9524H6.5C6.77614 14.9524 7 14.7285 7 14.4524V10.119C7 9.84291 6.77614 9.61905 6.5 9.61905H5.25C4.97386 9.61905 4.75 9.84291 4.75 10.119V14.4524Z" fill="#555555"/>
<path d="M9 14.9524C8.72386 14.9524 8.5 14.7285 8.5 14.4524V5.54762C8.5 5.27148 8.72386 5.04762 9 5.04762H10.25C10.5261 5.04762 10.75 5.27148 10.75 5.54762V14.4524C10.75 14.7285 10.5261 14.9524 10.25 14.9524H9Z" fill="#555555"/>
<path d="M12.75 14.9524C12.4739 14.9524 12.25 14.7285 12.25 14.4524V7.83333C12.25 7.55719 12.4739 7.33333 12.75 7.33333H14C14.2761 7.33333 14.5 7.55719 14.5 7.83333V14.4524C14.5 14.7285 14.2761 14.9524 14 14.9524H12.75Z" fill="#555555"/>
<path d="M16.5 14.9524C16.2239 14.9524 16 14.7285 16 14.4524V2.5C16 2.22386 16.2239 2 16.5 2H17.75C18.0261 2 18.25 2.22386 18.25 2.5V14.4524C18.25 14.7285 18.0261 14.9524 17.75 14.9524H16.5Z" fill="#555555"/>
</svg>
