<svg viewBox="0 0 32 32" fill="none" xmlns="http://www.w3.org/2000/svg">
<path d="M2 5C2 4.44771 2.44772 4 3 4H4.5C5.05228 4 5.5 4.44772 5.5 5V24C5.5 24.5523 5.94772 25 6.5 25H29C29.5523 25 30 25.4477 30 26V27.5C30 28.0523 29.5523 28.5 29 28.5H3C2.44771 28.5 2 28.0523 2 27.5V5Z" fill="#555555"/>
<path d="M7.83333 22.8333C7.83333 23.3856 8.28105 23.8333 8.83333 23.8333H10.3333C10.8856 23.8333 11.3333 23.3856 11.3333 22.8333V16.6667C11.3333 16.1144 10.8856 15.6667 10.3333 15.6667H8.83333C8.28105 15.6667 7.83333 16.1144 7.83333 16.6667V22.8333Z" fill="#555555"/>
<path d="M14.6667 23.8333C14.1144 23.8333 13.6667 23.3856 13.6667 22.8333V9.66667C13.6667 9.11438 14.1144 8.66667 14.6667 8.66667H16.1667C16.719 8.66667 17.1667 9.11438 17.1667 9.66667V22.8333C17.1667 23.3856 16.719 23.8333 16.1667 23.8333H14.6667Z" fill="#555555"/>
<path d="M20.5 23.8333C19.9477 23.8333 19.5 23.3856 19.5 22.8333V13.1667C19.5 12.6144 19.9477 12.1667 20.5 12.1667H22C22.5523 12.1667 23 12.6144 23 13.1667V22.8333C23 23.3856 22.5523 23.8333 22 23.8333H20.5Z" fill="#555555"/>
<path d="M26.3333 23.8333C25.781 23.8333 25.3333 23.3856 25.3333 22.8333V5C25.3333 4.44772 25.781 4 26.3333 4H27.8333C28.3856 4 28.8333 4.44772 28.8333 5V22.8333C28.8333 23.3856 28.3856 23.8333 27.8333 23.8333H26.3333Z" fill="#555555"/>
</svg>
