<svg viewBox="0 0 32 32" fill="none" xmlns="http://www.w3.org/2000/svg">
<path fill-rule="evenodd" clip-rule="evenodd" d="M16 30C23.732 30 30 23.732 30 16C30 8.26801 23.732 2 16 2C8.26801 2 2 8.26801 2 16C2 23.732 8.26801 30 16 30ZM17.7143 9C17.7143 8.44772 17.2666 8 16.7143 8H15.2857C14.7334 8 14.2857 8.44771 14.2857 9V13.2857C14.2857 13.838 13.838 14.2857 13.2857 14.2857H9C8.44772 14.2857 8 14.7334 8 15.2857V16.7143C8 17.2666 8.44771 17.7143 9 17.7143H13.2857C13.838 17.7143 14.2857 18.162 14.2857 18.7143V23C14.2857 23.5523 14.7334 24 15.2857 24H16.7143C17.2666 24 17.7143 23.5523 17.7143 23V18.7143C17.7143 18.162 18.162 17.7143 18.7143 17.7143H23C23.5523 17.7143 24 17.2666 24 16.7143V15.2857C24 14.7334 23.5523 14.2857 23 14.2857H18.7143C18.162 14.2857 17.7143 13.838 17.7143 13.2857V9Z" fill="#555555"/>
</svg>
