<svg viewBox="0 0 32 32" fill="none" xmlns="http://www.w3.org/2000/svg">
<path fill-rule="evenodd" clip-rule="evenodd" d="M16 30C23.732 30 30 23.732 30 16C30 8.26801 23.732 2 16 2C8.26801 2 2 8.26801 2 16C2 23.732 8.26801 30 16 30ZM22.3126 9.73482L23.3198 10.7683C23.6983 11.1566 23.6983 11.7758 23.3198 12.1642L14.4501 21.2652C14.0576 21.6679 13.4103 21.6679 13.0178 21.2652L8.68021 16.8145C8.30174 16.4262 8.30174 15.8069 8.68021 15.4186L9.68739 14.3852C10.0799 13.9824 10.7272 13.9824 11.1197 14.3852L13.0178 16.3327C13.4103 16.7355 14.0576 16.7355 14.4501 16.3327L20.8803 9.73482C21.2728 9.33209 21.9201 9.33209 22.3126 9.73482Z" fill="#555555"/>
</svg>
