<svg viewBox="0 0 32 32" fill="none" xmlns="http://www.w3.org/2000/svg">
<path fill-rule="evenodd" clip-rule="evenodd" d="M16 30C23.732 30 30 23.732 30 16C30 8.26801 23.732 2 16 2C8.26801 2 2 8.26801 2 16C2 23.732 8.26801 30 16 30ZM21.8643 23.2929L23.2929 21.8643C23.6834 21.4738 23.6834 20.8406 23.2929 20.4501L19.5499 16.7071C19.1594 16.3166 19.1594 15.6834 19.5499 15.2929L23.2929 11.5499C23.6834 11.1594 23.6834 10.5262 23.2929 10.1357L21.8643 8.70711C21.4738 8.31658 20.8406 8.31658 20.4501 8.70711L16.7071 12.4501C16.3166 12.8406 15.6834 12.8406 15.2929 12.4501L11.5499 8.70711C11.1594 8.31658 10.5262 8.31658 10.1357 8.70711L8.70711 10.1357C8.31658 10.5262 8.31658 11.1594 8.70711 11.5499L12.4501 15.2929C12.8406 15.6834 12.8406 16.3166 12.4501 16.7071L8.70711 20.4501C8.31658 20.8406 8.31658 21.4738 8.70711 21.8643L10.1376 23.2949C10.5274 23.6846 11.159 23.6855 11.5499 23.2968L15.3073 19.5603C15.6981 19.1717 16.3298 19.1725 16.7195 19.5623L20.4501 23.2929C20.8406 23.6834 21.4738 23.6834 21.8643 23.2929Z" fill="#555555"/>
</svg>
