<svg viewBox="0 0 32 32" fill="none" xmlns="http://www.w3.org/2000/svg">
<path fill-rule="evenodd" clip-rule="evenodd" d="M30 16C30 23.732 23.732 30 16 30C8.26801 30 2 23.732 2 16C2 8.26801 8.26801 2 16 2C23.732 2 30 8.26801 30 16ZM14.0216 18.9307C14.0789 18.1529 14.2075 17.5093 14.4076 17C14.6879 16.2781 15.1423 15.6539 15.7707 15.1274C16.3992 14.6008 16.8747 14.121 17.1975 13.6879C17.5287 13.2463 17.6943 12.7622 17.6943 12.2357C17.6943 10.9533 17.1423 10.3121 16.0382 10.3121C15.5287 10.3121 15.1168 10.4989 14.8025 10.8726C14.6659 11.0351 14.5574 11.2224 14.477 11.4346C14.2849 11.9413 13.8739 12.3885 13.332 12.3885H11.01C10.4539 12.3885 9.9946 11.9321 10.0772 11.382C10.2608 10.1593 10.7701 9.17423 11.6051 8.42675C12.6582 7.47558 14.1359 7 16.0382 7C17.9321 7 19.397 7.43737 20.4331 8.3121C21.4777 9.18684 22 10.431 22 12.0446C22 12.7495 21.8599 13.3907 21.5796 13.9682C21.2994 14.5456 20.8493 15.1359 20.2293 15.7389L18.7643 17.1019C18.3482 17.5011 18.0594 17.913 17.8981 18.3376C17.8263 18.5228 17.7687 18.7308 17.7255 18.9615C17.6257 19.4943 17.1986 19.9299 16.6565 19.9299H14.9873C14.435 19.9299 13.9811 19.4814 14.0216 18.9307ZM14.1401 22.2611C13.69 22.6603 13.465 23.1741 13.465 23.8025C13.465 24.431 13.69 24.949 14.1401 25.3567C14.5987 25.7558 15.1677 25.9554 15.8471 25.9554C16.5265 25.9554 17.0913 25.7558 17.5414 25.3567C18 24.949 18.2293 24.431 18.2293 23.8025C18.2293 23.1741 18 22.6603 17.5414 22.2611C17.0913 21.8535 16.5265 21.6497 15.8471 21.6497C15.1677 21.6497 14.5987 21.8535 14.1401 22.2611Z" fill="#555555"/>
</svg>
