<svg viewBox="0 0 32 32" fill="none" xmlns="http://www.w3.org/2000/svg">
<path d="M29.2929 24.318C29.6834 24.7085 29.6834 25.3417 29.2929 25.7322L25.7322 29.2929C25.3417 29.6834 24.7085 29.6834 24.318 29.2929L16.7303 21.7052C16.3405 21.3154 15.7089 21.3145 15.318 21.7032L7.68197 29.2968C7.29113 29.6855 6.65948 29.6846 6.26973 29.2949L2.70711 25.7322C2.31658 25.3417 2.31658 24.7085 2.70711 24.318L10.318 16.7071C10.7085 16.3166 10.7085 15.6834 10.318 15.2929L2.70711 7.68198C2.31658 7.29145 2.31658 6.65829 2.70711 6.26776L6.26776 2.70711C6.65829 2.31658 7.29145 2.31658 7.68198 2.70711L15.2929 10.318C15.6834 10.7085 16.3166 10.7085 16.7071 10.318L24.318 2.70711C24.7085 2.31658 25.3417 2.31658 25.7322 2.70711L29.2929 6.26776C29.6834 6.65829 29.6834 7.29145 29.2929 7.68198L21.682 15.2929C21.2915 15.6834 21.2915 16.3166 21.682 16.7071L29.2929 24.318Z" fill="#555555"/>
</svg>
