<svg viewBox="0 0 32 32" fill="none" xmlns="http://www.w3.org/2000/svg">
<path fill-rule="evenodd" clip-rule="evenodd" d="M12.9286 7.67125C12.9286 7.30053 12.628 7 12.2573 7H9.74268C9.37196 7 9.07143 7.30053 9.07143 7.67125C9.07143 7.98012 8.85964 8.24627 8.56525 8.33976C8.12801 8.4786 7.70699 8.65385 7.30575 8.86193C7.03137 9.00422 6.69319 8.96578 6.47464 8.74723C6.21236 8.48495 5.78713 8.48495 5.52485 8.74723L3.74723 10.5249C3.48495 10.7871 3.48495 11.2124 3.74723 11.4746C3.96578 11.6932 4.00422 12.0314 3.86193 12.3057C3.65385 12.707 3.4786 13.128 3.33976 13.5652C3.24627 13.8596 2.98012 14.0714 2.67125 14.0714C2.30053 14.0714 2 14.372 2 14.7427L2 17.2573C2 17.628 2.30053 17.9286 2.67125 17.9286C2.98012 17.9286 3.24627 18.1404 3.33976 18.4348C3.4786 18.872 3.65385 19.293 3.86193 19.6943C4.00422 19.9686 3.96578 20.3068 3.74723 20.5254C3.48495 20.7876 3.48495 21.2129 3.74723 21.4751L5.52485 23.2528C5.78713 23.515 6.21236 23.515 6.47464 23.2528C6.69319 23.0342 7.03137 22.9958 7.30575 23.1381C7.70699 23.3461 8.12801 23.5214 8.56525 23.6602C8.85964 23.7537 9.07143 24.0199 9.07143 24.3288C9.07143 24.6995 9.37196 25 9.74268 25H12.2573C12.628 25 12.9286 24.6995 12.9286 24.3288C12.9286 24.0199 13.1404 23.7537 13.4348 23.6602C13.872 23.5214 14.293 23.3462 14.6943 23.1381C14.9686 22.9958 15.3068 23.0342 15.5254 23.2528C15.7876 23.515 16.2129 23.515 16.4751 23.2528L18.2528 21.4751C18.515 21.2129 18.515 20.7876 18.2528 20.5254C18.0342 20.3068 17.9958 19.9686 18.1381 19.6943C18.3462 19.293 18.5214 18.872 18.6602 18.4348C18.7537 18.1404 19.0199 17.9286 19.3288 17.9286C19.6995 17.9286 20 17.628 20 17.2573V14.7427C20 14.372 19.6995 14.0714 19.3288 14.0714C19.0199 14.0714 18.7537 13.8596 18.6602 13.5652C18.5214 13.128 18.3462 12.707 18.1381 12.3057C17.9958 12.0314 18.0342 11.6932 18.2528 11.4746C18.5151 11.2124 18.5151 10.7871 18.2528 10.5248L16.4751 8.74723C16.2129 8.48495 15.7876 8.48495 15.5254 8.74723C15.3068 8.96578 14.9686 9.00422 14.6943 8.86193C14.293 8.65385 13.872 8.4786 13.4348 8.33976C13.1404 8.24627 12.9286 7.98012 12.9286 7.67125ZM11 20.5C13.4853 20.5 15.5 18.4853 15.5 16C15.5 13.5147 13.4853 11.5 11 11.5C8.51472 11.5 6.5 13.5147 6.5 16C6.5 18.4853 8.51472 20.5 11 20.5Z" fill="#555555"/>
<path fill-rule="evenodd" clip-rule="evenodd" d="M25.2857 2.4475C25.2857 2.20035 25.0854 2 24.8382 2H23.1618C22.9146 2 22.7143 2.20035 22.7143 2.4475C22.7143 2.65342 22.5731 2.83085 22.3768 2.89317C22.0853 2.98573 21.8047 3.10257 21.5372 3.24129C21.3542 3.33615 21.1288 3.31052 20.9831 3.16482C20.8082 2.98997 20.5248 2.98997 20.3499 3.16482L19.1648 4.3499C18.99 4.52475 18.99 4.80824 19.1648 4.98309C19.3105 5.12879 19.3361 5.35425 19.2413 5.53716C19.1026 5.80466 18.9857 6.08534 18.8932 6.37683C18.8308 6.57309 18.6534 6.71429 18.4475 6.71429C18.2004 6.71429 18 6.91464 18 7.16178V8.83822C18 9.08536 18.2004 9.28571 18.4475 9.28571C18.6534 9.28571 18.8308 9.42691 18.8932 9.62317C18.9857 9.91466 19.1026 10.1953 19.2413 10.4628C19.3361 10.6458 19.3105 10.8712 19.1648 11.0169C18.99 11.1918 18.99 11.4752 19.1648 11.6501L20.3499 12.8352C20.5248 13.01 20.8082 13.01 20.9831 12.8352C21.1288 12.6895 21.3542 12.6639 21.5372 12.7587C21.8047 12.8974 22.0853 13.0143 22.3768 13.1068C22.5731 13.1692 22.7143 13.3466 22.7143 13.5525C22.7143 13.7996 22.9146 14 23.1618 14H24.8382C25.0854 14 25.2857 13.7996 25.2857 13.5525C25.2857 13.3466 25.4269 13.1692 25.6232 13.1068C25.9147 13.0143 26.1953 12.8974 26.4628 12.7587C26.6458 12.6639 26.8712 12.6895 27.0169 12.8352C27.1918 13.01 27.4753 13.01 27.6501 12.8352L28.8352 11.6501C29.01 11.4752 29.01 11.1918 28.8352 11.0169C28.6895 10.8712 28.6639 10.6458 28.7587 10.4628C28.8974 10.1953 29.0143 9.91466 29.1068 9.62317C29.1692 9.42691 29.3466 9.28571 29.5525 9.28571C29.7996 9.28571 30 9.08536 30 8.83822V7.16178C30 6.91464 29.7996 6.71429 29.5525 6.71429C29.3466 6.71429 29.1692 6.57309 29.1068 6.37683C29.0143 6.08534 28.8974 5.80466 28.7587 5.53716C28.6639 5.35425 28.6895 5.12879 28.8352 4.98309C29.01 4.80824 29.01 4.52475 28.8352 4.3499L27.6501 3.16482C27.4752 2.98997 27.1918 2.98997 27.0169 3.16482C26.8712 3.31052 26.6458 3.33615 26.4628 3.24129C26.1953 3.10257 25.9147 2.98573 25.6232 2.89317C25.4269 2.83085 25.2857 2.65342 25.2857 2.4475ZM24 11C25.6569 11 27 9.65685 27 8C27 6.34315 25.6569 5 24 5C22.3431 5 21 6.34315 21 8C21 9.65685 22.3431 11 24 11Z" fill="#555555"/>
<path fill-rule="evenodd" clip-rule="evenodd" d="M25.2857 18.4475C25.2857 18.2004 25.0854 18 24.8382 18H23.1618C22.9146 18 22.7143 18.2004 22.7143 18.4475C22.7143 18.6534 22.5731 18.8308 22.3768 18.8932C22.0853 18.9857 21.8047 19.1026 21.5372 19.2413C21.3542 19.3361 21.1288 19.3105 20.9831 19.1648C20.8082 18.99 20.5248 18.99 20.3499 19.1648L19.1648 20.3499C18.99 20.5248 18.99 20.8082 19.1648 20.9831C19.3105 21.1288 19.3361 21.3542 19.2413 21.5372C19.1026 21.8047 18.9857 22.0853 18.8932 22.3768C18.8308 22.5731 18.6534 22.7143 18.4475 22.7143C18.2004 22.7143 18 22.9146 18 23.1618V24.8382C18 25.0854 18.2004 25.2857 18.4475 25.2857C18.6534 25.2857 18.8308 25.4269 18.8932 25.6232C18.9857 25.9147 19.1026 26.1953 19.2413 26.4628C19.3361 26.6458 19.3105 26.8712 19.1648 27.0169C18.99 27.1918 18.99 27.4753 19.1648 27.6501L20.3499 28.8352C20.5248 29.01 20.8082 29.01 20.9831 28.8352C21.1288 28.6895 21.3542 28.6639 21.5372 28.7587C21.8047 28.8974 22.0853 29.0143 22.3768 29.1068C22.5731 29.1692 22.7143 29.3466 22.7143 29.5525C22.7143 29.7996 22.9146 30 23.1618 30H24.8382C25.0854 30 25.2857 29.7996 25.2857 29.5525C25.2857 29.3466 25.4269 29.1692 25.6232 29.1068C25.9147 29.0143 26.1953 28.8974 26.4628 28.7587C26.6458 28.6639 26.8712 28.6895 27.0169 28.8352C27.1918 29.01 27.4753 29.01 27.6501 28.8352L28.8352 27.6501C29.01 27.4752 29.01 27.1918 28.8352 27.0169C28.6895 26.8712 28.6639 26.6458 28.7587 26.4628C28.8974 26.1953 29.0143 25.9147 29.1068 25.6232C29.1692 25.4269 29.3466 25.2857 29.5525 25.2857C29.7996 25.2857 30 25.0854 30 24.8382V23.1618C30 22.9146 29.7996 22.7143 29.5525 22.7143C29.3466 22.7143 29.1692 22.5731 29.1068 22.3768C29.0143 22.0853 28.8974 21.8047 28.7587 21.5372C28.6639 21.3542 28.6895 21.1288 28.8352 20.9831C29.01 20.8082 29.01 20.5247 28.8352 20.3499L27.6501 19.1648C27.4752 18.99 27.1918 18.99 27.0169 19.1648C26.8712 19.3105 26.6458 19.3361 26.4628 19.2413C26.1953 19.1026 25.9147 18.9857 25.6232 18.8932C25.4269 18.8308 25.2857 18.6534 25.2857 18.4475ZM24 27C25.6569 27 27 25.6569 27 24C27 22.3431 25.6569 21 24 21C22.3431 21 21 22.3431 21 24C21 25.6569 22.3431 27 24 27Z" fill="#555555"/>
</svg>
