<svg width="20" height="20" viewBox="0 0 20 20" fill="none" xmlns="http://www.w3.org/2000/svg">
<path d="M14.8828 2.00089C15.3573 2.02474 16.1598 2.26 17.0581 3.3478C17.9563 4.43561 18.0449 5.27938 17.9855 5.75827C17.9482 6.05904 17.7316 6.28735 17.4815 6.45478L8.96313 12.1771C8.72838 12.3348 8.4079 12.2887 8.23033 12.0717L6.89337 10.4378C6.72536 10.2324 6.73866 9.93836 6.92454 9.74812L14.1201 2.38404C14.3258 2.16299 14.5848 1.9859 14.8828 2.00089Z" fill="#555555"/>
<path d="M3.03181 11.8495C2.04605 12.9494 1.78644 13.8978 2.16835 15.5457C2.23823 15.8472 3.05071 17.4086 4.08126 17.8622C5.08962 18.3062 6.12567 17.5554 6.63441 17.3234C6.69757 17.2946 6.68759 17.1691 6.62203 17.1477C6.38349 17.0696 5.84829 16.9745 5.57317 16.6135C5.52831 16.5546 5.50366 16.5059 5.46961 16.4552C5.26205 16.146 5.09939 15.9037 5.49351 15.5823C5.67362 15.4354 5.9009 15.3794 6.12798 15.3235C6.21094 15.303 6.2939 15.2826 6.37454 15.2577C7.37536 14.949 7.85034 13.6524 8.00769 13.1121C8.05139 12.9621 8.01206 12.8037 7.91218 12.6816L6.33946 10.7596C6.20825 10.5992 5.99419 10.5272 5.7911 10.5824C5.11077 10.7676 3.58011 11.2377 3.03181 11.8495Z" fill="#555555"/>
</svg>
