<svg width="20" height="20" viewBox="0 0 20 20" fill="none" xmlns="http://www.w3.org/2000/svg">
<path fill-rule="evenodd" clip-rule="evenodd" d="M10 15.625C14.8325 15.625 18.75 12.4816 18.75 9.375C18.75 6.2684 14.8325 3.125 10 3.125C5.16751 3.125 1.25 6.2684 1.25 9.375C1.25 10.6191 2.09052 12.5891 3.50628 13.5908C3.66154 13.7007 3.79789 13.8404 3.84422 14.0248C3.95387 14.4614 4.0193 15.3557 3.125 16.25C3.73541 16.1687 4.22096 16.0407 4.60463 15.8969C5.4935 15.5639 6.58357 15.2267 7.51712 15.3984C8.31226 15.5446 9.15626 15.625 10 15.625ZM5.625 10.625C6.31536 10.625 6.875 10.0654 6.875 9.375C6.875 8.68464 6.31536 8.125 5.625 8.125C4.93464 8.125 4.375 8.68464 4.375 9.375C4.375 10.0654 4.93464 10.625 5.625 10.625ZM11.25 9.375C11.25 10.0654 10.6904 10.625 10 10.625C9.30964 10.625 8.75 10.0654 8.75 9.375C8.75 8.68464 9.30964 8.125 10 8.125C10.6904 8.125 11.25 8.68464 11.25 9.375ZM14.375 10.625C15.0654 10.625 15.625 10.0654 15.625 9.375C15.625 8.68464 15.0654 8.125 14.375 8.125C13.6846 8.125 13.125 8.68464 13.125 9.375C13.125 10.0654 13.6846 10.625 14.375 10.625Z" fill="#555555"/>
</svg>
