<svg width="20" height="20" viewBox="0 0 20 20" fill="none" xmlns="http://www.w3.org/2000/svg">
<path fill-rule="evenodd" clip-rule="evenodd" d="M10 4C4.47715 4 0 8.13276 0 13.2308C0 13.7003 0.0379705 14.1616 0.111231 14.6122C0.248635 15.4574 1.03361 16 1.8899 16H18.1101C18.9664 16 19.7514 15.4574 19.8888 14.6122C19.962 14.1616 20 13.7003 20 13.2308C20 8.13276 15.5228 4 10 4ZM2 14C2.55228 14 3 13.5523 3 13C3 12.4477 2.55228 12 2 12C1.44772 12 1 12.4477 1 13C1 13.5523 1.44772 14 2 14ZM5 8C5 8.55228 4.55228 9 4 9C3.44772 9 3 8.55228 3 8C3 7.44772 3.44772 7 4 7C4.55228 7 5 7.44772 5 8ZM10 7C10.5523 7 11 6.55228 11 6C11 5.44772 10.5523 5 10 5C9.44772 5 9 5.44772 9 6C9 6.55228 9.44772 7 10 7ZM17 8C17 8.55228 16.5523 9 16 9C15.4477 9 15 8.55228 15 8C15 7.44772 15.4477 7 16 7C16.5523 7 17 7.44772 17 8ZM18 14C18.5523 14 19 13.5523 19 13C19 12.4477 18.5523 12 18 12C17.4477 12 17 12.4477 17 13C17 13.5523 17.4477 14 18 14ZM10.3882 14.9489C11.1884 14.7345 11.6633 13.912 11.4489 13.1118L12.8548 9.38486C12.8918 9.28681 12.7722 9.20513 12.6943 9.27526L9.61177 12.0511C8.81157 12.2655 8.3367 13.088 8.55111 13.8882C8.76552 14.6884 9.58803 15.1633 10.3882 14.9489Z" fill="#555555"/>
</svg>
