<svg viewBox="0 0 32 32" fill="none" xmlns="http://www.w3.org/2000/svg">
<path d="M3 20.7883C3.00001 20.6102 3.22894 20.5074 3.37219 20.6134C4.46125 21.4189 8.07263 23.5385 15.9231 23.5385C23.7735 23.5385 27.3849 21.4189 28.474 20.6134C28.6172 20.5074 28.8462 20.6102 28.8462 20.7883C28.8462 21.9542 28.8462 24.9632 28.8462 26.6925C28.8462 26.7427 28.8279 26.7893 28.7931 26.8257C26.7707 28.9419 21.8352 30 15.9231 30C10.0109 30 5.07545 28.9419 3.05303 26.8257C3.01829 26.7893 3.00001 26.7427 3.00001 26.6925C3 24.9632 3 21.9542 3 20.7883Z" fill="#555555"/>
<path d="M3.00001 5.62204C3.00001 5.37066 3.09067 5.1255 3.27807 4.95795C5.48379 2.98593 10.9672 2 15.9231 2C20.879 2 26.3623 2.98596 28.5681 4.95795C28.7555 5.1255 28.8462 5.37066 28.8462 5.62205C28.8462 6.90127 28.8462 7.86794 28.8462 9.14717C28.8462 9.39857 28.7555 9.64373 28.5681 9.81128C26.3623 11.7832 20.879 12.7692 15.9231 12.7692C10.9672 12.7692 5.4838 11.7832 3.27808 9.81128C3.09067 9.64373 3.00001 9.39857 3.00001 9.14718C3.00001 7.86794 3.00001 6.90125 3.00001 5.62204Z" fill="#555555"/>
<path d="M3 12.173C3.00001 11.9948 3.22894 11.892 3.37219 11.998C4.46125 12.8035 8.07263 14.9231 15.9231 14.9231C23.7735 14.9231 27.3849 12.8035 28.474 11.998C28.6172 11.892 28.8462 11.9948 28.8462 12.173C28.8462 13.3388 28.8462 16.3478 28.8462 18.0771C28.8462 18.1273 28.8279 18.1739 28.7931 18.2103C26.7707 20.3265 21.8352 21.3846 15.9231 21.3846C10.0109 21.3846 5.07545 20.3265 3.05303 18.2103C3.01829 18.1739 3.00001 18.1273 3.00001 18.0771C3 16.3478 3 13.3388 3 12.173Z" fill="#555555"/>
</svg>
