<svg viewBox="0 0 32 32" fill="none" xmlns="http://www.w3.org/2000/svg">
<path fill-rule="evenodd" clip-rule="evenodd" d="M30 5C30 4.44772 29.5523 4 29 4H3C2.44772 4 2 4.44772 2 5V7C2 7.55228 2.44771 8 3 8H29C29.5523 8 30 7.55228 30 7V5ZM21 5C21.5523 5 22 5.44772 22 6C22 6.55228 21.5523 7 21 7C20.4477 7 20 6.55228 20 6C20 5.44772 20.4477 5 21 5ZM24 7C24.5523 7 25 6.55228 25 6C25 5.44772 24.5523 5 24 5C23.4477 5 23 5.44772 23 6C23 6.55228 23.4477 7 24 7ZM27 7C27.5523 7 28 6.55228 28 6C28 5.44772 27.5523 5 27 5C26.4477 5 26 5.44772 26 6C26 6.55228 26.4477 7 27 7Z" fill="#555555"/>
<path fill-rule="evenodd" clip-rule="evenodd" d="M3 9C2.44772 9 2 9.44772 2 10V28C2 28.5523 2.44771 29 3 29H29C29.5523 29 30 28.5523 30 28V10C30 9.44772 29.5523 9 29 9H3ZM15.912 14.4268V20.748C15.912 21.626 15.7332 22.3875 15.3758 23.0325C15.0184 23.6721 14.5056 24.1599 13.8374 24.4959C13.1692 24.832 12.3793 25 11.4676 25C10.0898 25 9.00461 24.626 8.21209 23.8781C7.41957 23.1301 7.01554 22.1057 7 20.8049V14.435C7 13.6425 7.61398 13 8.37137 13C9.12875 13 9.74274 13.6425 9.74274 14.435V20.8618C9.77382 22.1572 10.3488 22.8049 11.4676 22.8049C12.0322 22.8049 12.4596 22.6423 12.7497 22.3171C13.0397 21.9919 13.1848 21.4634 13.1848 20.7317V14.4268C13.1848 13.6388 13.7953 13 14.5484 13C15.3015 13 15.912 13.6388 15.912 14.4268ZM22.3987 13.8616L22.332 14.0037C21.1131 16.6607 20.8852 16.639 19.5005 14.0037L19.4332 13.8604C19.209 13.3834 18.7453 13.0813 18.2373 13.0813C17.2182 13.0813 16.5763 14.2296 17.0758 15.1592L18.3789 17.584C18.8349 18.4324 18.8327 19.4687 18.3732 20.315L17.0132 22.8198C16.5047 23.7564 17.1512 24.9187 18.1806 24.9187C18.6903 24.9187 19.1561 24.6167 19.3829 24.139L19.4609 23.9749C20.9419 20.2188 21.0757 20.2188 22.3716 23.9749L22.449 24.1378C22.6762 24.6162 23.1427 24.9187 23.6532 24.9187C24.6849 24.9187 25.3324 23.7533 24.8218 22.8152L23.4625 20.3175C23.0012 19.47 22.999 18.4312 23.4567 17.5815L24.7593 15.1638C25.2608 14.2328 24.6179 13.0813 23.5965 13.0813C23.0878 13.0813 22.6232 13.3839 22.3987 13.8616Z" fill="#555555"/>
</svg>
