<svg viewBox="0 0 32 32" fill="none" xmlns="http://www.w3.org/2000/svg">
<path d="M2 29C2 29.5523 2.44772 30 3 30H26.8461C27.3984 30 27.8461 29.5523 27.8461 29V12.8994C27.8461 12.454 27.3076 12.2309 26.9926 12.5459L24.9083 14.6302C24.7207 14.8177 24.6154 15.0721 24.6154 15.3373V25.7692C24.6154 26.3215 24.1677 26.7692 23.6154 26.7692H6.23077C5.67848 26.7692 5.23077 26.3215 5.23077 25.7692V8.3846C5.23077 7.83232 5.67848 7.3846 6.23077 7.3846L16.6627 7.38461C16.9279 7.38461 17.1823 7.27925 17.3698 7.09172L19.4541 5.0074C19.7691 4.69241 19.546 4.15384 19.1006 4.15384L3 4.15384C2.44772 4.15384 2 4.60155 2 5.15384L2 29Z" fill="#555555"/>
<path d="M8.75052 17.8616C8.56537 18.0488 8.46153 18.3015 8.46153 18.5648V22.5384C8.46153 23.0907 8.90925 23.5384 9.46153 23.5384H13.4352C13.6985 23.5384 13.9511 23.4346 14.1384 23.2495L24.9773 12.53C25.3715 12.1402 25.3733 11.504 24.9813 11.1119L20.8881 7.01872C20.496 6.62666 19.8598 6.62843 19.4699 7.02265L8.75052 17.8616Z" fill="#555555"/>
<path d="M21.9611 4.52365C21.5705 4.91418 21.5705 5.54734 21.9611 5.93787L26.0621 10.0389C26.4527 10.4294 27.0858 10.4294 27.4763 10.0389L29.2929 8.22237C29.6834 7.83185 29.6834 7.19868 29.2929 6.80816L25.1918 2.70711C24.8013 2.31658 24.1681 2.31658 23.7776 2.7071L21.9611 4.52365Z" fill="#555555"/>
</svg>
