<svg viewBox="0 0 32 32" fill="none" xmlns="http://www.w3.org/2000/svg">
<path fill-rule="evenodd" clip-rule="evenodd" d="M30 7C30 6.44772 29.5523 6 29 6H3C2.44772 6 2 6.44772 2 7V8.41968C2 8.77853 2.19229 9.10988 2.50386 9.28792L15.5039 16.7165C15.8113 16.8922 16.1887 16.8922 16.4961 16.7165L29.4961 9.28792C29.8077 9.10988 30 8.77853 30 8.41968V7Z" fill="#555555"/>
<path d="M16.4961 18.2165C16.1887 18.3922 15.8113 18.3922 15.5039 18.2165L3.49614 11.3549C2.82948 10.974 2 11.4554 2 12.2232V25C2 25.5523 2.44772 26 3 26H29C29.5523 26 30 25.5523 30 25V12.2232C30 11.4554 29.1705 10.974 28.5039 11.3549L16.4961 18.2165Z" fill="#555555"/>
</svg>
