<svg viewBox="0 0 32 32" fill="none" xmlns="http://www.w3.org/2000/svg">
<path d="M3.37129 11.0789C2.89075 10.803 2.72622 10.1889 3.00441 9.70966L3.50032 8.85537C3.77666 8.37932 4.38578 8.21611 4.86313 8.49021L28.2435 21.9157C28.724 22.1916 28.8885 22.8057 28.6103 23.2849L28.1144 24.1392C27.8381 24.6153 27.229 24.7785 26.7516 24.5044L3.37129 11.0789Z" fill="#555555"/>
<path d="M2.22463 15.7698C2.07969 16.0358 2.07093 16.3569 2.19989 16.6311C5.2194 23.0508 10.1313 24.9024 16 24.9024C18.4257 24.9024 20.6879 24.428 22.7207 23.479C22.8653 23.4114 22.8715 23.2104 22.7331 23.1309L20.0812 21.6082C18.9323 22.4296 17.523 22.9133 16 22.9133C12.134 22.9133 9 19.7963 9 15.9512C9 15.7195 9.01139 15.4904 9.03363 15.2644L4.51704 12.6709C4.43277 12.6225 4.32583 12.6416 4.26436 12.7169C3.5137 13.6359 2.8313 14.656 2.22463 15.7698Z" fill="#555555"/>
<path d="M16 20.9241C16.7482 20.9241 17.4579 20.7607 18.0952 20.4678L11.0206 16.4054C11.2512 18.939 13.3925 20.9241 16 20.9241Z" fill="#555555"/>
<path d="M21 15.9512C21 13.2048 18.7614 10.9783 16 10.9783C15.2854 10.9783 14.6059 11.1274 13.991 11.396C13.8607 11.4529 13.8395 11.626 13.9341 11.7321C14.2862 12.127 14.5 12.6468 14.5 13.2161C14.5 13.2457 14.4994 13.2751 14.4983 13.3044L20.8936 16.9767C20.9633 16.6458 21 16.3028 21 15.9512Z" fill="#555555"/>
<path d="M29.757 16.6491C29.9131 16.3651 29.9128 16.0209 29.7572 15.7365C26.7342 10.2098 21.8409 7.00001 16 7C13.0849 7 10.4063 7.79923 8.0783 9.28678C7.95333 9.36663 7.95946 9.54967 8.08807 9.62352L10.866 11.2186C12.1444 9.84737 13.9714 8.98916 16 8.98916C19.866 8.98916 23 12.1062 23 15.9512C23 16.6672 22.8913 17.3579 22.6895 18.008L26.8264 20.3834C26.9054 20.4288 27.0052 20.4151 27.0683 20.3494C28.0778 19.2981 28.9793 18.0646 29.757 16.6491Z" fill="#555555"/>
</svg>
