<svg viewBox="0 0 32 32" fill="none" xmlns="http://www.w3.org/2000/svg">
<path fill-rule="evenodd" clip-rule="evenodd" d="M2 16.2432C5 10.4054 9.99913 6.99999 16 7C22 7.00001 27 10.4054 30 16.2432C27 22.0811 22 25 16 25C10 25 5 23.054 2 16.2432ZM16 23C19.866 23 23 19.866 23 16C23 12.134 19.866 9 16 9C12.134 9 9 12.134 9 16C9 19.866 12.134 23 16 23Z" fill="#555555"/>
<path d="M21 16C21 18.7614 18.7614 21 16 21C13.2386 21 11 18.7614 11 16C11 15.7157 11.0237 15.437 11.0693 15.1657C11.4125 15.3777 11.817 15.5 12.25 15.5C13.4926 15.5 14.5 14.4926 14.5 13.25C14.5 12.5701 14.1984 11.9606 13.7217 11.548C14.405 11.1977 15.1794 11 16 11C18.7614 11 21 13.2386 21 16Z" fill="#555555"/>
</svg>
