<svg viewBox="0 0 32 32" fill="none" xmlns="http://www.w3.org/2000/svg">
<path d="M12.8364 30C12.9653 30 13.0698 29.8955 13.0698 29.7667V20.4659C13.0698 20.337 12.9653 20.2326 12.8364 20.2326H9.39612C9.26726 20.2326 9.16279 20.1281 9.16279 19.9992V16.5589C9.16279 16.43 9.26726 16.3256 9.39612 16.3256H12.8364C12.9653 16.3256 13.0698 16.2211 13.0698 16.0922V12.4593C13.0698 9.55981 15.4203 7.2093 18.3198 7.2093H21.9527C22.0816 7.2093 22.186 7.31377 22.186 7.44264V10.2989C22.186 10.3907 22.1116 10.4651 22.0198 10.4651C19.9538 10.4651 18.2791 12.1399 18.2791 14.2058V16.0922C18.2791 16.2211 18.3835 16.3256 18.5124 16.3256H21.9106C22.0548 16.3256 22.1645 16.4551 22.1408 16.5973L21.5674 20.0376C21.5486 20.1501 21.4513 20.2326 21.3372 20.2326H18.5124C18.3835 20.2326 18.2791 20.337 18.2791 20.4659V29.7667C18.2791 29.8955 18.3835 30 18.5124 30H28.8333C29.4777 30 30 29.4777 30 28.8333V3.16667C30 2.52234 29.4777 2 28.8333 2H3.16667C2.52234 2 2 2.52233 2 3.16667V28.8333C2 29.4777 2.52233 30 3.16667 30H12.8364Z" fill="#555555"/>
</svg>
