<svg viewBox="0 0 32 32" fill="none" xmlns="http://www.w3.org/2000/svg">
<path d="M25.6923 22.7692V25.5385C25.6923 26.0907 25.2446 26.5385 24.6923 26.5385H3C2.44772 26.5385 2 26.0907 2 25.5385V10.3077C2 9.75541 2.44772 9.30769 3 9.30769H5.76923V21.7692C5.76923 22.3215 6.21695 22.7692 6.76923 22.7692H25.6923Z" fill="#555555"/>
<path d="M29 22.2308C29.5523 22.2308 30 21.7831 30 21.2308V8.15385C30 7.60157 29.5523 7.15385 29 7.15385L18.5681 7.15385C18.3028 7.15385 18.0485 7.04849 17.861 6.86095L16.2929 5.29289C16.1054 5.10536 15.851 5 15.5858 5H7.30769C6.75541 5 6.30769 5.44772 6.30769 6V7.15384V21.2308C6.30769 21.7831 6.75541 22.2308 7.30769 22.2308H29Z" fill="#555555"/>
</svg>
