<svg width="20" height="20" viewBox="0 0 20 20" fill="none" xmlns="http://www.w3.org/2000/svg">
<path fill-rule="evenodd" clip-rule="evenodd" d="M4 18H16C16.5523 18 17 17.4592 17 16.792L17 3.20799C17 2.54084 16.5523 2 16 2H4C3.44772 2 3 2.54084 3 3.208V16.792C3 17.4592 3.44772 18 4 18ZM15.5 13.5C15.5 13.2239 15.2761 13 15 13H5C4.72386 13 4.5 13.2239 4.5 13.5V15.5C4.5 15.7761 4.72386 16 5 16H15C15.2761 16 15.5 15.7761 15.5 15.5V13.5ZM7 10.5C7 10.2239 7.22386 10 7.5 10H15C15.2761 10 15.5 10.2239 15.5 10.5V11C15.5 11.2761 15.2761 11.5 15 11.5H7.5C7.22386 11.5 7 11.2761 7 11V10.5ZM6 10.5C6 10.2239 5.77614 10 5.5 10H5C4.72386 10 4.5 10.2239 4.5 10.5V11C4.5 11.2761 4.72386 11.5 5 11.5H5.5C5.77614 11.5 6 11.2761 6 11V10.5ZM4.5 7.5C4.5 7.22386 4.72386 7 5 7H5.5C5.77614 7 6 7.22386 6 7.5V8C6 8.27614 5.77614 8.5 5.5 8.5H5C4.72386 8.5 4.5 8.27614 4.5 8V7.5ZM15.5 7.5C15.5 7.22386 15.2761 7 15 7H7.5C7.22386 7 7 7.22386 7 7.5V8C7 8.27614 7.22386 8.5 7.5 8.5H15C15.2761 8.5 15.5 8.27614 15.5 8V7.5ZM7 4.5C7 4.22386 7.22386 4 7.5 4H15C15.2761 4 15.5 4.22386 15.5 4.5V5C15.5 5.27614 15.2761 5.5 15 5.5H7.5C7.22386 5.5 7 5.27614 7 5V4.5ZM6 4.5C6 4.22386 5.77614 4 5.5 4H5C4.72386 4 4.5 4.22386 4.5 4.5V5C4.5 5.27614 4.72386 5.5 5 5.5H5.5C5.77614 5.5 6 5.27614 6 5V4.5Z" fill="#555555"/>
</svg>
