<svg viewBox="0 0 32 32" fill="none" xmlns="http://www.w3.org/2000/svg">
<path d="M2 3C2 2.44771 2.44772 2 3 2H8.63636C9.18865 2 9.63636 2.44772 9.63636 3V8.63636C9.63636 9.18865 9.18865 9.63636 8.63636 9.63636H3C2.44771 9.63636 2 9.18865 2 8.63636V3Z" fill="#555555"/>
<path d="M2 13.1818C2 12.6295 2.44772 12.1818 3 12.1818H8.63636C9.18865 12.1818 9.63636 12.6295 9.63636 13.1818V18.8182C9.63636 19.3705 9.18865 19.8182 8.63636 19.8182H3C2.44771 19.8182 2 19.3705 2 18.8182V13.1818Z" fill="#555555"/>
<path d="M2 23.3636C2 22.8113 2.44772 22.3636 3 22.3636H8.63636C9.18865 22.3636 9.63636 22.8114 9.63636 23.3636V29C9.63636 29.5523 9.18865 30 8.63636 30H3C2.44771 30 2 29.5523 2 29V23.3636Z" fill="#555555"/>
<path d="M12.1818 3C12.1818 2.44771 12.6295 2 13.1818 2H18.8182C19.3705 2 19.8182 2.44772 19.8182 3V8.63636C19.8182 9.18865 19.3705 9.63636 18.8182 9.63636H13.1818C12.6295 9.63636 12.1818 9.18865 12.1818 8.63636V3Z" fill="#555555"/>
<path d="M12.1818 13.1818C12.1818 12.6295 12.6295 12.1818 13.1818 12.1818H18.8182C19.3705 12.1818 19.8182 12.6295 19.8182 13.1818V18.8182C19.8182 19.3705 19.3705 19.8182 18.8182 19.8182H13.1818C12.6295 19.8182 12.1818 19.3705 12.1818 18.8182V13.1818Z" fill="#555555"/>
<path d="M12.1818 23.3636C12.1818 22.8113 12.6295 22.3636 13.1818 22.3636H18.8182C19.3705 22.3636 19.8182 22.8114 19.8182 23.3636V29C19.8182 29.5523 19.3705 30 18.8182 30H13.1818C12.6295 30 12.1818 29.5523 12.1818 29V23.3636Z" fill="#555555"/>
<path d="M22.3636 3C22.3636 2.44771 22.8114 2 23.3636 2H29C29.5523 2 30 2.44772 30 3V8.63636C30 9.18865 29.5523 9.63636 29 9.63636H23.3636C22.8113 9.63636 22.3636 9.18865 22.3636 8.63636V3Z" fill="#555555"/>
<path d="M22.3636 13.1818C22.3636 12.6295 22.8114 12.1818 23.3636 12.1818H29C29.5523 12.1818 30 12.6295 30 13.1818V18.8182C30 19.3705 29.5523 19.8182 29 19.8182H23.3636C22.8113 19.8182 22.3636 19.3705 22.3636 18.8182V13.1818Z" fill="#555555"/>
<path d="M22.3636 23.3636C22.3636 22.8113 22.8114 22.3636 23.3636 22.3636H29C29.5523 22.3636 30 22.8114 30 23.3636V29C30 29.5523 29.5523 30 29 30H23.3636C22.8113 30 22.3636 29.5523 22.3636 29V23.3636Z" fill="#555555"/>
</svg>
