<svg width="20" height="20" viewBox="0 0 20 20" fill="none" xmlns="http://www.w3.org/2000/svg">
<path d="M2 3C2 2.44772 2.44772 2 3 2H5.36364C5.91592 2 6.36364 2.44772 6.36364 3V5.36364C6.36364 5.91592 5.91592 6.36364 5.36364 6.36364H3C2.44772 6.36364 2 5.91592 2 5.36364V3Z" fill="#555555"/>
<path d="M2 8.81818C2 8.2659 2.44772 7.81818 3 7.81818H5.36364C5.91592 7.81818 6.36364 8.2659 6.36364 8.81818V11.1818C6.36364 11.7341 5.91592 12.1818 5.36364 12.1818H3C2.44772 12.1818 2 11.7341 2 11.1818V8.81818Z" fill="#555555"/>
<path d="M2 14.6364C2 14.0841 2.44772 13.6364 3 13.6364H5.36364C5.91592 13.6364 6.36364 14.0841 6.36364 14.6364V17C6.36364 17.5523 5.91592 18 5.36364 18H3C2.44772 18 2 17.5523 2 17V14.6364Z" fill="#555555"/>
<path d="M7.81818 3C7.81818 2.44772 8.2659 2 8.81818 2H11.1818C11.7341 2 12.1818 2.44772 12.1818 3V5.36364C12.1818 5.91592 11.7341 6.36364 11.1818 6.36364H8.81818C8.2659 6.36364 7.81818 5.91592 7.81818 5.36364V3Z" fill="#555555"/>
<path d="M7.81818 8.81818C7.81818 8.2659 8.2659 7.81818 8.81818 7.81818H11.1818C11.7341 7.81818 12.1818 8.2659 12.1818 8.81818V11.1818C12.1818 11.7341 11.7341 12.1818 11.1818 12.1818H8.81818C8.2659 12.1818 7.81818 11.7341 7.81818 11.1818V8.81818Z" fill="#555555"/>
<path d="M7.81818 14.6364C7.81818 14.0841 8.2659 13.6364 8.81818 13.6364H11.1818C11.7341 13.6364 12.1818 14.0841 12.1818 14.6364V17C12.1818 17.5523 11.7341 18 11.1818 18H8.81818C8.2659 18 7.81818 17.5523 7.81818 17V14.6364Z" fill="#555555"/>
<path d="M13.6364 3C13.6364 2.44772 14.0841 2 14.6364 2H17C17.5523 2 18 2.44772 18 3V5.36364C18 5.91592 17.5523 6.36364 17 6.36364H14.6364C14.0841 6.36364 13.6364 5.91592 13.6364 5.36364V3Z" fill="#555555"/>
<path d="M13.6364 8.81818C13.6364 8.2659 14.0841 7.81818 14.6364 7.81818H17C17.5523 7.81818 18 8.2659 18 8.81818V11.1818C18 11.7341 17.5523 12.1818 17 12.1818H14.6364C14.0841 12.1818 13.6364 11.7341 13.6364 11.1818V8.81818Z" fill="#555555"/>
<path d="M13.6364 14.6364C13.6364 14.0841 14.0841 13.6364 14.6364 13.6364H17C17.5523 13.6364 18 14.0841 18 14.6364V17C18 17.5523 17.5523 18 17 18H14.6364C14.0841 18 13.6364 17.5523 13.6364 17V14.6364Z" fill="#555555"/>
</svg>
