<svg viewBox="0 0 32 32" fill="none" xmlns="http://www.w3.org/2000/svg">
<path fill-rule="evenodd" clip-rule="evenodd" d="M5.11111 19.2222C6.82933 19.2222 8.22222 17.8293 8.22222 16.1111C8.22222 14.3929 6.82933 13 5.11111 13C3.39289 13 2 14.3929 2 16.1111C2 17.8293 3.39289 19.2222 5.11111 19.2222ZM19.1111 16.1111C19.1111 17.8293 17.7182 19.2222 16 19.2222C14.2818 19.2222 12.8889 17.8293 12.8889 16.1111C12.8889 14.3929 14.2818 13 16 13C17.7182 13 19.1111 14.3929 19.1111 16.1111ZM26.8889 19.2222C28.6071 19.2222 30 17.8293 30 16.1111C30 14.3929 28.6071 13 26.8889 13C25.1707 13 23.7778 14.3929 23.7778 16.1111C23.7778 17.8293 25.1707 19.2222 26.8889 19.2222Z" fill="#555555"/>
<path d="M8.22222 16.1111C8.22222 17.8293 6.82933 19.2222 5.11111 19.2222C3.39289 19.2222 2 17.8293 2 16.1111C2 14.3929 3.39289 13 5.11111 13C6.82933 13 8.22222 14.3929 8.22222 16.1111Z" fill="#555555"/>
<path d="M19.1111 16.1111C19.1111 17.8293 17.7182 19.2222 16 19.2222C14.2818 19.2222 12.8889 17.8293 12.8889 16.1111C12.8889 14.3929 14.2818 13 16 13C17.7182 13 19.1111 14.3929 19.1111 16.1111Z" fill="#555555"/>
<path d="M30 16.1111C30 17.8293 28.6071 19.2222 26.8889 19.2222C25.1707 19.2222 23.7778 17.8293 23.7778 16.1111C23.7778 14.3929 25.1707 13 26.8889 13C28.6071 13 30 14.3929 30 16.1111Z" fill="#555555"/>
</svg>
