<svg viewBox="0 0 32 32" fill="none" xmlns="http://www.w3.org/2000/svg">
<path fill-rule="evenodd" clip-rule="evenodd" d="M12.8408 19.6234C12.9254 18.4745 13.1154 17.5239 13.411 16.7715C13.825 15.7052 14.4961 14.7832 15.4244 14.0054C16.3527 13.2276 17.0553 12.5188 17.532 11.879C18.0212 11.2267 18.2658 10.5116 18.2658 9.73387C18.2658 7.83961 17.4504 6.89247 15.8196 6.89247C15.0669 6.89247 14.4585 7.16846 13.9943 7.72043C13.7925 7.9604 13.6322 8.23712 13.5134 8.5506C13.2297 9.29911 12.6226 9.95968 11.8222 9.95968H8.39223C7.57065 9.95968 6.89226 9.28539 7.01425 8.47292C7.28543 6.6668 8.03775 5.21167 9.2712 4.10753C10.8268 2.70251 13.0096 2 15.8196 2C18.6171 2 20.7811 2.64606 22.3115 3.93817C23.8545 5.23029 24.626 7.0681 24.626 9.45161C24.626 10.4928 24.4191 11.44 24.0051 12.293C23.5911 13.1461 22.9262 14.0179 22.0104 14.9086L19.8465 16.922C19.2318 17.5116 18.8053 18.1201 18.5669 18.7473C18.4608 19.021 18.3758 19.3282 18.312 19.6689C18.1645 20.4559 17.5336 21.0995 16.7329 21.0995H14.2672C13.4514 21.0995 12.7809 20.437 12.8408 19.6234ZM13.0158 24.543C12.3509 25.1326 12.0185 25.8916 12.0185 26.8199C12.0185 27.7482 12.3509 28.5134 13.0158 29.1156C13.6932 29.7052 14.5337 30 15.5373 30C16.5409 30 17.3751 29.7052 18.04 29.1156C18.7174 28.5134 19.0561 27.7482 19.0561 26.8199C19.0561 25.8916 18.7174 25.1326 18.04 24.543C17.3751 23.9409 16.5409 23.6398 15.5373 23.6398C14.5337 23.6398 13.6932 23.9409 13.0158 24.543Z" fill="#555555"/>
</svg>
