<svg viewBox="0 0 32 32" fill="none" xmlns="http://www.w3.org/2000/svg">
<path d="M27 16C27 22.0751 22.0751 27 16 27C10.2617 27 5.54965 22.6061 5.04478 16.9993C4.99524 16.4492 4.55228 16 4 16H3C2.44772 16 1.99629 16.4492 2.03517 17.0001C2.54799 24.2654 8.60429 30 16 30C23.732 30 30 23.732 30 16C30 8.26801 23.732 2 16 2C13.2074 2 10.6057 2.81767 8.42136 4.22666C8.00616 4.49448 7.45604 4.45604 7.10667 4.10667L6.70711 3.70711C6.07714 3.07714 5 3.52331 5 4.41421V9C5 9.55228 5.44772 10 6 10H10.5858C11.4767 10 11.9229 8.92286 11.2929 8.29289L10.7258 7.72581C10.2808 7.28082 10.3523 6.53756 10.91 6.24595C12.432 5.45008 14.1635 5 16 5C22.0751 5 27 9.92487 27 16Z" fill="#555555"/>
<path d="M13 12C13 11.4477 13.4477 11 14 11H15C15.5523 11 16 11.4477 16 12V16C16 16.5523 16.4477 17 17 17H19C19.5523 17 20 17.4477 20 18V19C20 19.5523 19.5523 20 19 20H14C13.4477 20 13 19.5523 13 19V12Z" fill="#555555"/>
</svg>
