<svg width="20" height="20" viewBox="0 0 20 20" fill="none" xmlns="http://www.w3.org/2000/svg">
<path d="M1.56491 6.07005C1.37018 6.18132 1.25 6.38841 1.25 6.6127V18.125C1.25 18.4702 1.52982 18.75 1.875 18.75H6.875C7.22018 18.75 7.5 18.4702 7.5 18.125V10.625C7.5 10.2798 7.77982 10 8.125 10H11.875C12.2202 10 12.5 10.2798 12.5 10.625V18.125C12.5 18.4702 12.7798 18.75 13.125 18.75H18.125C18.4702 18.75 18.75 18.4702 18.75 18.125V6.6127C18.75 6.38841 18.6298 6.18132 18.4351 6.07005L10.3101 1.42719C10.1179 1.31739 9.88206 1.31739 9.68991 1.42719L1.56491 6.07005Z" fill="#555555"/>
</svg>
