<svg viewBox="0 0 20 20" fill="none" xmlns="http://www.w3.org/2000/svg">
<path d="M9.33667 2.38376C9.60801 1.87208 10.392 1.87208 10.6633 2.38376L12.8714 6.54777C12.9792 6.75096 13.1875 6.89179 13.4284 6.92438L18.3658 7.5921C18.9726 7.67416 19.2148 8.36809 18.7758 8.76637L15.203 12.0076C15.0287 12.1658 14.9491 12.3936 14.9903 12.617L15.8337 17.1937C15.9373 17.756 15.3031 18.1849 14.7604 17.9194L10.3442 15.7586C10.1287 15.6531 9.87128 15.6531 9.65578 15.7586L5.23958 17.9194C4.69691 18.1849 4.06265 17.756 4.16629 17.1937L5.00971 12.617C5.05087 12.3936 4.97132 12.1658 4.79698 12.0076L1.22419 8.76638C0.785162 8.36809 1.02742 7.67416 1.63415 7.5921L6.57162 6.92438C6.81255 6.89179 7.02082 6.75096 7.12857 6.54777L9.33667 2.38376Z" fill="#555555"/>
</svg>
