<svg viewBox="0 0 32 32" fill="none" xmlns="http://www.w3.org/2000/svg">
<path d="M15.9219 8.38021C14.901 8.38021 14.099 8.1007 13.5156 7.54167C12.9566 6.98264 12.6771 6.22917 12.6771 5.28125V5.09896C12.6771 4.15104 12.9566 3.39757 13.5156 2.83854C14.099 2.27952 14.901 2 15.9219 2C16.9427 2 17.7326 2.27952 18.2917 2.83854C18.875 3.39757 19.1667 4.15104 19.1667 5.09896V5.28125C19.1667 6.22917 18.875 6.98264 18.2917 7.54167C17.7326 8.1007 16.9427 8.38021 15.9219 8.38021ZM11 28.5938C11 28.0415 11.4477 27.5938 12 27.5938H12.1875C12.7398 27.5938 13.1875 27.146 13.1875 26.5938V15.5781C13.1875 15.0258 12.7398 14.5781 12.1875 14.5781H12C11.4477 14.5781 11 14.1304 11 13.5781V11.4946C11 10.9444 11.4444 10.4976 11.9946 10.4946L17.7238 10.4638C18.2782 10.4608 18.7292 10.9094 18.7292 11.4637V26.5938C18.7292 27.146 19.1769 27.5938 19.7292 27.5938H19.9167C20.469 27.5938 20.9167 28.0415 20.9167 28.5938V29C20.9167 29.5523 20.469 30 19.9167 30H12C11.4477 30 11 29.5523 11 29V28.5938Z" fill="#555555"/>
</svg>
