<svg viewBox="0 0 32 32" fill="none" xmlns="http://www.w3.org/2000/svg">
<path d="M20.6667 16C20.6667 18.5773 18.5773 20.6667 16 20.6667C13.4227 20.6667 11.3333 18.5773 11.3333 16C11.3333 13.4227 13.4227 11.3333 16 11.3333C18.5773 11.3333 20.6667 13.4227 20.6667 16Z" fill="#555555"/>
<path fill-rule="evenodd" clip-rule="evenodd" d="M24.1667 30C27.3883 30 30 27.3883 30 24.1667V7.83333C30 4.61167 27.3883 2 24.1667 2H7.83333C4.61167 2 2 4.61167 2 7.83333V24.1667C2 27.3883 4.61167 30 7.83333 30H24.1667ZM24.1667 16C24.1667 20.5103 20.5103 24.1666 16 24.1666C11.4897 24.1666 7.83333 20.5103 7.83333 16C7.83333 11.4897 11.4897 7.83332 16 7.83332C20.5103 7.83332 24.1667 11.4897 24.1667 16ZM16 20.6667C18.5773 20.6667 20.6667 18.5773 20.6667 16C20.6667 13.4227 18.5773 11.3333 16 11.3333C13.4227 11.3333 11.3333 13.4227 11.3333 16C11.3333 18.5773 13.4227 20.6667 16 20.6667ZM25.9167 7.83333C26.8832 7.83333 27.6667 7.04983 27.6667 6.08333C27.6667 5.11683 26.8832 4.33333 25.9167 4.33333C24.9502 4.33333 24.1667 5.11683 24.1667 6.08333C24.1667 7.04983 24.9502 7.83333 25.9167 7.83333Z" fill="#555555"/>
</svg>
