<svg viewBox="0 0 32 32" fill="none" xmlns="http://www.w3.org/2000/svg">
<path fill-rule="evenodd" clip-rule="evenodd" d="M4 29.5C4 29.7761 4.22386 30 4.5 30H27.5C27.7761 30 28 29.7761 28 29.5V8.5C28 8.22386 27.7761 8 27.5 8H4.5C4.22386 8 4 8.22386 4 8.5V29.5ZM25 26.5C25 26.7761 24.7761 27 24.5 27H7.5C7.22386 27 7 26.7761 7 26.5V16.5C7 16.2239 7.22386 16 7.5 16H24.5C24.7761 16 25 16.2239 25 16.5V26.5ZM7.5 14C7.22386 14 7 13.7761 7 13.5V11.5C7 11.2239 7.22386 11 7.5 11H24.5C24.7761 11 25 11.2239 25 11.5V13.5C25 13.7761 24.7761 14 24.5 14H7.5Z" fill="#555555"/>
<path fill-rule="evenodd" clip-rule="evenodd" d="M4.5 7C4.22386 7 4 6.77614 4 6.5V2.5C4 2.22386 4.22386 2 4.5 2H27.5C27.7761 2 28 2.22386 28 2.5V6.5C28 6.77614 27.7761 7 27.5 7H4.5ZM24 4C24 3.44772 23.5523 3 23 3C22.4477 3 22 3.44772 22 4C22 4.55228 22.4477 5 23 5C23.5523 5 24 4.55228 24 4ZM25 4C25 3.44772 25.4477 3 26 3C26.5523 3 27 3.44772 27 4C27 4.55228 26.5523 5 26 5C25.4477 5 25 4.55228 25 4Z" fill="#555555"/>
</svg>
