<svg viewBox="0 0 20 20" fill="none" xmlns="http://www.w3.org/2000/svg">
<path fill-rule="evenodd" clip-rule="evenodd" d="M19 2.64C19 2.28654 18.7122 2 18.3571 2H1.64286C1.28782 2 1 2.28654 1 2.64V3.92C1 4.27346 1.28782 4.56 1.64286 4.56H18.3571C18.7122 4.56 19 4.27346 19 3.92V2.64ZM13.2143 2.64C13.5693 2.64 13.8571 2.92654 13.8571 3.28C13.8571 3.63346 13.5693 3.92 13.2143 3.92C12.8592 3.92 12.5714 3.63346 12.5714 3.28C12.5714 2.92654 12.8592 2.64 13.2143 2.64ZM15.1429 3.92C15.4979 3.92 15.7857 3.63346 15.7857 3.28C15.7857 2.92654 15.4979 2.64 15.1429 2.64C14.7878 2.64 14.5 2.92654 14.5 3.28C14.5 3.63346 14.7878 3.92 15.1429 3.92ZM17.0714 3.92C17.4265 3.92 17.7143 3.63346 17.7143 3.28C17.7143 2.92654 17.4265 2.64 17.0714 2.64C16.7164 2.64 16.4286 2.92654 16.4286 3.28C16.4286 3.63346 16.7164 3.92 17.0714 3.92Z" fill="#555555"/>
<path fill-rule="evenodd" clip-rule="evenodd" d="M1.64286 5.2H18.3571C18.7122 5.2 19 5.48654 19 5.84V17.36C19 17.7135 18.7122 18 18.3571 18H1.64286C1.28782 18 1 17.7135 1 17.36V5.84C1 5.48654 1.28782 5.2 1.64286 5.2ZM11 7C11.5523 7 12 7.44772 12 8V10C12 10.5523 11.5523 11 11 11H4C3.44772 11 3 10.5523 3 10V8C3 7.44772 3.44772 7 4 7H11ZM14 7C13.4477 7 13 7.44772 13 8V10C13 10.5523 13.4477 11 14 11H16C16.5523 11 17 10.5523 17 10V8C17 7.44772 16.5523 7 16 7H14ZM17 16C17 16.5523 16.5523 17 16 17H15C14.4477 17 14 16.5523 14 16V13C14 12.4477 14.4477 12 15 12H16C16.5523 12 17 12.4477 17 13V16ZM5 12C5.55228 12 6 12.4477 6 13V16C6 16.5523 5.55228 17 5 17H4C3.44772 17 3 16.5523 3 16V13C3 12.4477 3.44772 12 4 12H5ZM8 17H12C12.5523 17 13 16.5523 13 16V13C13 13 13 12 12 12H8C7 12 7 13 7 13V16C7 16.5523 7.44772 17 8 17Z" fill="#555555"/>
</svg>
