<svg viewBox="0 0 32 32" fill="none" xmlns="http://www.w3.org/2000/svg">
<path d="M2 29C2 29.5523 2.44772 30 3 30H29C29.5523 30 30 29.5523 30 29V20.5C30 19.9477 29.5523 19.5 29 19.5H27.5C26.9477 19.5 26.5 19.9477 26.5 20.5L26.5 25.5C26.5 26.0523 26.0523 26.5 25.5 26.5H6.5C5.94772 26.5 5.5 26.0523 5.5 25.5V6.5C5.5 5.94771 5.94772 5.5 6.5 5.5L11.5 5.5C12.0523 5.5 12.5 5.05229 12.5 4.5V3C12.5 2.44772 12.0523 2 11.5 2H3C2.44772 2 2 2.44772 2 3L2 29Z" fill="#555555"/>
<path d="M24.7929 9.68198C25.4229 9.05202 26.5 9.49818 26.5 10.3891V15C26.5 15.5523 26.9477 16 27.5 16H29C29.5523 16 30 15.5523 30 15L30 3C30 2.44772 29.5523 2 29 2H17C16.4477 2 16 2.44772 16 3V4.5C16 5.05229 16.4477 5.5 17 5.5H21.6109C22.5018 5.5 22.948 6.57714 22.318 7.20711L14.2322 15.2929C13.8417 15.6834 13.8417 16.3166 14.2322 16.7071L15.2929 17.7678C15.6834 18.1583 16.3166 18.1583 16.7071 17.7678L24.7929 9.68198Z" fill="#555555"/>
</svg>
