<svg viewBox="0 0 32 32" fill="none" xmlns="http://www.w3.org/2000/svg">
<path d="M8.36364 8.63636C8.36364 9.18865 7.91592 9.63636 7.36364 9.63636H3C2.44772 9.63636 2 9.18865 2 8.63636V3C2 2.44771 2.44772 2 3 2H7.36364C7.91592 2 8.36364 2.44772 8.36364 3V8.63636Z" fill="#555555"/>
<path d="M10.9091 3C10.9091 2.44771 11.3568 2 11.9091 2H29C29.5523 2 30 2.44772 30 3V8.63636C30 9.18865 29.5523 9.63636 29 9.63636H11.9091C11.3568 9.63636 10.9091 9.18865 10.9091 8.63636V3Z" fill="#555555"/>
<path d="M8.36364 18.8182C8.36364 19.3705 7.91592 19.8182 7.36364 19.8182H3C2.44772 19.8182 2 19.3705 2 18.8182V13.1818C2 12.6295 2.44772 12.1818 3 12.1818H7.36364C7.91592 12.1818 8.36364 12.6295 8.36364 13.1818V18.8182Z" fill="#555555"/>
<path d="M10.9091 13.1818C10.9091 12.6295 11.3568 12.1818 11.9091 12.1818H29C29.5523 12.1818 30 12.6295 30 13.1818V18.8182C30 19.3705 29.5523 19.8182 29 19.8182H11.9091C11.3568 19.8182 10.9091 19.3705 10.9091 18.8182V13.1818Z" fill="#555555"/>
<path d="M8.36364 29C8.36364 29.5523 7.91592 30 7.36364 30H3C2.44772 30 2 29.5523 2 29V23.3636C2 22.8113 2.44772 22.3636 3 22.3636H7.36364C7.91592 22.3636 8.36364 22.8114 8.36364 23.3636V29Z" fill="#555555"/>
<path d="M10.9091 23.3636C10.9091 22.8113 11.3568 22.3636 11.9091 22.3636H29C29.5523 22.3636 30 22.8114 30 23.3636V29C30 29.5523 29.5523 30 29 30H11.9091C11.3568 30 10.9091 29.5523 10.9091 29V23.3636Z" fill="#555555"/>
</svg>
