<svg viewBox="0 0 32 32" fill="none" xmlns="http://www.w3.org/2000/svg">
<path fill-rule="evenodd" clip-rule="evenodd" d="M16.32 2C20.6499 2 24.16 5.51009 24.16 9.84V13.32C24.16 13.8723 24.6077 14.32 25.16 14.32H27.64C28.1923 14.32 28.64 14.7677 28.64 15.32V29C28.64 29.5523 28.1923 30 27.64 30H5C4.44771 30 4 29.5523 4 29V15.32C4 14.7677 4.44772 14.32 5 14.32H7.48C8.03228 14.32 8.48 13.8723 8.48 13.32V9.84C8.76802 5.51968 11.9901 2 16.32 2ZM11.84 14.32H20.8V9.84C20.8 7.36576 18.7942 5.36 16.32 5.36C13.8458 5.36 11.84 7.36576 11.84 9.84V14.32Z" fill="#555555"/>
</svg>
