<svg viewBox="0 0 32 32" fill="none" xmlns="http://www.w3.org/2000/svg">
<path d="M24.16 9.84C24.16 5.51009 20.6499 2 16.32 2C11.9901 2 8.76802 5.51968 8.48 9.84V11.08C8.48 11.6323 8.92772 12.08 9.48 12.08H10.84C11.3923 12.08 11.84 11.6323 11.84 11.08V9.84C11.84 7.36576 13.8458 5.36 16.32 5.36C18.7942 5.36 20.8 7.36576 20.8 9.84V14.32H11.84H8.48H5C4.44772 14.32 4 14.7677 4 15.32V29C4 29.5523 4.44771 30 5 30H27.64C28.1923 30 28.64 29.5523 28.64 29V15.32C28.64 14.7677 28.1923 14.32 27.64 14.32H25.16C24.6077 14.32 24.16 13.8723 24.16 13.32V9.84Z" fill="#555555"/>
</svg>
