<svg viewBox="0 0 32 32" fill="none" xmlns="http://www.w3.org/2000/svg">
<path d="M19.5 10C19.7761 10 20 9.77614 20 9.5V2.5C20 2.22386 19.7761 2 19.5 2C19.2239 2 19 2.22386 19 2.5V6V9.5C19 9.77614 19.2239 10 19.5 10Z" fill="#555555"/>
<path d="M6.03732 4.4106C6.03732 3.88725 5.40607 3.62349 5.03373 3.99126L3 6L5.03373 8.00874C5.40607 8.37651 6.03732 8.11275 6.03732 7.5894C6.03732 7.26388 6.3012 7 6.62672 7H15.4142C15.7377 7 16 7.26227 16 7.58579C16 8.10767 16.631 8.36903 17 8L19 6L17 4C16.631 3.63098 16 3.89233 16 4.41421C16 4.73773 15.7377 5 15.4142 5H6.62672C6.3012 5 6.03732 4.73612 6.03732 4.4106Z" fill="#555555"/>
<path d="M3 2C2.44772 2 2 2.44772 2 3V9C2 9.55228 2.44772 10 3 10V6V2Z" fill="#555555"/>
<path fill-rule="evenodd" clip-rule="evenodd" d="M3 30C2.44772 30 2 29.5523 2 29V13C2 12.4477 2.44772 12 3 12H19C19.5523 12 20 12.4477 20 13V29C20 29.5523 19.5523 30 19 30H3ZM4.02169 22.682C3.47244 22.682 3.02719 23.1273 3.02719 23.6765V28C3.02719 28.5523 3.47491 29 4.02719 29H5.01619V25.308C5.01619 25.0913 5.05952 24.9093 5.14619 24.762C5.24152 24.6147 5.36719 24.502 5.52319 24.424C5.67919 24.3373 5.85686 24.294 6.05619 24.294C6.34219 24.294 6.58052 24.385 6.77119 24.567C6.97052 24.7403 7.07019 24.9873 7.07019 25.308V28C7.07019 28.5523 7.51791 29 8.07019 29H9.05919V25.308C9.05919 25.0913 9.10252 24.9093 9.18919 24.762C9.28452 24.6147 9.41019 24.502 9.56619 24.424C9.72219 24.3373 9.89986 24.294 10.0992 24.294C10.3852 24.294 10.6235 24.385 10.8142 24.567C11.0135 24.7403 11.1132 24.9873 11.1132 25.308V28.0055C11.1132 28.5547 11.5584 29 12.1077 29C12.6569 29 13.1022 28.5548 13.1022 28.0055V25.087C13.1022 24.5583 12.9895 24.1077 12.7642 23.735C12.5475 23.3537 12.2485 23.0633 11.8672 22.864C11.4945 22.656 11.0655 22.552 10.5802 22.552C10.0862 22.552 9.63986 22.6603 9.24119 22.877C8.98233 23.0151 8.75593 23.1932 8.56198 23.4115C8.38121 23.1832 8.16129 22.9963 7.90219 22.851C7.55552 22.6517 7.16119 22.552 6.71919 22.552C6.25119 22.552 5.83086 22.6517 5.45819 22.851C5.2961 22.9339 5.14877 23.0333 5.01619 23.149C5.01619 22.8911 4.80712 22.682 4.54922 22.682H4.02169ZM13.4342 22.296L15.6022 20.056C15.7355 19.9227 15.8422 19.8 15.9222 19.688C16.0022 19.576 16.0609 19.472 16.0982 19.376C16.1355 19.2747 16.1542 19.1733 16.1542 19.072C16.1542 18.8533 16.0822 18.6827 15.9382 18.56C15.7995 18.432 15.6155 18.368 15.3862 18.368C15.1622 18.368 14.9595 18.4293 14.7782 18.552C14.7433 18.5753 14.7086 18.6016 14.6742 18.6309C14.4145 18.8519 14.0312 18.9323 13.7735 18.709C13.5724 18.5347 13.519 18.2359 13.6928 18.0343C13.8642 17.8355 14.0607 17.6747 14.2822 17.552C14.6289 17.36 15.0262 17.264 15.4742 17.264C15.8635 17.264 16.1995 17.336 16.4822 17.48C16.7702 17.624 16.9915 17.8293 17.1462 18.096C17.3062 18.3627 17.3862 18.6747 17.3862 19.032C17.3862 19.256 17.3569 19.464 17.2982 19.656C17.2395 19.8427 17.1435 20.0293 17.0102 20.216C16.8822 20.3973 16.7089 20.5973 16.4902 20.816L15.3722 21.928H16.9622C17.2582 21.928 17.4982 22.168 17.4982 22.464C17.4982 22.76 17.2582 23 16.9622 23H14.1382C13.7494 23 13.4342 22.6848 13.4342 22.296Z" fill="#555555"/>
<path d="M30 12.5C30 12.2239 29.7761 12 29.5 12H22.5C22.2239 12 22 12.2239 22 12.5C22 12.7761 22.2239 13 22.5 13H26H29.5C29.7761 13 30 12.7761 30 12.5Z" fill="#555555"/>
<path d="M24.4106 25.9627C23.8873 25.9627 23.6235 26.5939 23.9913 26.9663L26 29L28.0087 26.9663C28.3765 26.5939 28.1127 25.9627 27.5894 25.9627C27.2639 25.9627 27 25.6988 27 25.3733V16.5858C27 16.2623 27.2623 16 27.5858 16C28.1077 16 28.369 15.369 28 15L26 13L24 15C23.631 15.369 23.8923 16 24.4142 16C24.7377 16 25 16.2623 25 16.5858V25.3733C25 25.6988 24.7361 25.9627 24.4106 25.9627Z" fill="#555555"/>
<path d="M22 29C22 29.5523 22.4477 30 23 30H29C29.5523 30 30 29.5523 30 29H26H22Z" fill="#555555"/>
</svg>
