<svg viewBox="0 0 20 20" fill="none" xmlns="http://www.w3.org/2000/svg">
<path d="M17.4286 2H2.57143C2 2 2 2.84507 2 3.5C2 4.15493 2 5 2.57143 5H17.4286C18 5 18 4.25 18 3.49997C18 2.75 18 2 17.4286 2Z" fill="#666666"/>
<path d="M17.4286 8.5H2.57143C2 8.5 2 9.34507 2 10C2 10.6549 2 11.5 2.57143 11.5H17.4286C18 11.5 18 10.75 18 9.99997C18 9.25 18 8.5 17.4286 8.5Z" fill="#666666"/>
<path d="M17.4286 15H2.57143C2 15 2 15.8451 2 16.5C2 17.1549 2 18 2.57143 18H17.4286C18 18 18 17.25 18 16.5C18 15.75 18 15 17.4286 15Z" fill="#666666"/>
</svg>
