<svg viewBox="0 0 20 20" fill="none" xmlns="http://www.w3.org/2000/svg">
<path d="M11.6875 17.1875C11.7911 17.1875 11.8764 17.2719 11.8617 17.3745C11.7509 18.1493 10.9596 18.75 10 18.75C9.04039 18.75 8.24915 18.1493 8.13828 17.3745C8.12362 17.2719 8.20895 17.1875 8.3125 17.1875H11.6875Z" fill="#555555"/>
<path d="M18.7378 16.1017L18.4573 14.7C18.419 14.5083 18.2917 14.3453 18.1134 14.2594L17.3818 13.9069C17.2189 13.8284 17.0979 13.6852 17.0492 13.5133L16.1872 10.4674C16.1775 10.4333 16.1709 10.3985 16.1672 10.3633L15.855 7.35497C15.855 4.31747 13.955 2.31506 11.0248 1.93924C10.8613 1.53542 10.4603 1.25 9.99148 1.25C9.52311 1.25 9.12237 1.53488 8.95858 1.9381C6.4005 2.25625 4.1838 3.78805 4.1838 6.77296L3.87118 10.3581C3.86781 10.3968 3.8608 10.435 3.85022 10.4723L2.98956 13.5133C2.94091 13.6852 2.81987 13.8284 2.65696 13.9069L1.9178 14.2631C1.74377 14.3469 1.61816 14.5043 1.57666 14.6905L1.265 16.0886C1.17828 16.4776 1.47858 16.8461 1.88342 16.8474L9.99148 16.875L18.1166 16.8474C18.5159 16.846 18.8149 16.487 18.7378 16.1017Z" fill="#555555"/>
</svg>
