<svg viewBox="0 0 32 32" fill="none" xmlns="http://www.w3.org/2000/svg">
<path d="M18.7 27.5C18.8657 27.5 19.0022 27.6351 18.9787 27.7991C18.8014 29.0388 17.5354 30 16 30C14.4646 30 13.1986 29.0388 13.0213 27.7991C12.9978 27.6351 13.1343 27.5 13.3 27.5H18.7Z" fill="#555555"/>
<path d="M29.9805 25.7627L29.5317 23.52C29.4704 23.2133 29.2668 22.9525 28.9815 22.8151L27.811 22.2511C27.5503 22.1255 27.3566 21.8963 27.2788 21.6213L25.8995 16.7479C25.8841 16.6933 25.8734 16.6376 25.8675 16.5812L25.368 11.768C25.368 6.90795 22.328 3.7041 17.6397 3.10279C17.3781 2.45667 16.7365 2 15.9864 2C15.237 2 14.5958 2.45581 14.3337 3.10096C10.2408 3.61 6.69407 6.06088 6.69407 10.8367L6.19389 16.573C6.1885 16.6348 6.17727 16.696 6.16036 16.7557L4.7833 21.6213C4.70545 21.8963 4.51179 22.1255 4.25113 22.2511L3.06847 22.8209C2.79004 22.9551 2.58906 23.2069 2.52265 23.5048L2.02399 25.7417C1.88525 26.3641 2.36572 26.9537 3.01347 26.9559L15.9864 27L28.9866 26.9558C29.6254 26.9536 30.1039 26.3793 29.9805 25.7627Z" fill="#555555"/>
</svg>
