<svg viewBox="0 0 32 32" fill="none" xmlns="http://www.w3.org/2000/svg">
<path d="M20.8453 20.8453C16.0754 25.6151 10.1996 28.6048 4.04326 29.8145C3.48345 29.9245 2.95729 29.5261 2.89147 28.9594L2.10288 22.1706C2.04425 21.6659 2.37382 21.1955 2.84655 21.0092C4.08488 20.5213 5.64247 19.6266 6.77307 19.0636C7.07493 18.9133 7.43137 18.9399 7.71596 19.1208L12.0294 21.8629C12.3505 22.067 12.7606 22.0725 13.0814 21.8679C14.8088 20.7663 16.4439 19.4612 17.9525 17.9525C19.4612 16.4439 20.7663 14.8088 21.8679 13.0814C22.0725 12.7605 22.0671 12.3505 21.8629 12.0294L19.1208 7.71595C18.9399 7.43137 18.9133 7.07493 19.0636 6.77306C19.6266 5.64246 20.5213 4.08488 21.0092 2.84655C21.1955 2.37382 21.6659 2.04425 22.1706 2.10288L28.9594 2.89146C29.5261 2.95729 29.9245 3.48345 29.8145 4.04325C28.6049 10.1996 25.6151 16.0754 20.8453 20.8453Z" fill="#555555"/>
</svg>
