<svg viewBox="0 0 32 32" fill="none" xmlns="http://www.w3.org/2000/svg">
<path d="M16 25.8C21.4124 25.8 25.8 21.4124 25.8 16C25.8 12.8935 24.3546 10.1246 22.0996 8.32911C21.5912 7.92436 21.495 7.15558 21.9545 6.69611L23.4863 5.16428C23.8309 4.81968 24.3764 4.77072 24.7564 5.07576C27.9534 7.64159 30 11.5818 30 16C30 23.732 23.732 30 16 30C8.26801 30 2 23.732 2 16C2 11.5818 4.04664 7.64159 7.24357 5.07575C7.62364 4.77072 8.16906 4.81968 8.51366 5.16428L10.0455 6.69611C10.505 7.15558 10.4088 7.92436 9.90042 8.32911C7.64542 10.1246 6.2 12.8935 6.2 16C6.2 21.4124 10.5876 25.8 16 25.8Z" fill="#555555"/>
<path d="M14.9 16C14.3477 16 13.9 15.5523 13.9 15V3C13.9 2.44772 14.3477 2 14.9 2L17.1 2C17.6523 2 18.1 2.44772 18.1 3V15C18.1 15.5523 17.6523 16 17.1 16H14.9Z" fill="#555555"/>
</svg>
