<svg viewBox="0 0 32 32" fill="none" xmlns="http://www.w3.org/2000/svg">
<path d="M9.5 5C9.5 4.44772 9.94772 4 10.5 4H21.5C22.0523 4 22.5 4.44772 22.5 5V14C22.5 14.5523 22.0523 15 21.5 15H10.5C9.94772 15 9.5 14.5523 9.5 14V5Z" fill="#555555"/>
<path d="M17 18C17 17.4477 17.4477 17 18 17H29C29.5523 17 30 17.4477 30 18V27C30 27.5523 29.5523 28 29 28H18C17.4477 28 17 27.5523 17 27V18Z" fill="#555555"/>
<path d="M2 18C2 17.4477 2.44772 17 3 17H14C14.5523 17 15 17.4477 15 18V27C15 27.5523 14.5523 28 14 28H3C2.44772 28 2 27.5523 2 27V18Z" fill="#555555"/>
</svg>
