<svg viewBox="0 0 32 32" fill="none" xmlns="http://www.w3.org/2000/svg">
<path d="M12.1373 4.84314C12.1373 5.39542 12.585 5.84314 13.1373 5.84314H18.8235C19.3758 5.84314 19.8235 5.39542 19.8235 4.84314V3C19.8235 2.44771 19.3758 2 18.8235 2H13.1373C12.585 2 12.1373 2.44772 12.1373 3V4.84314Z" fill="#555555"/>
<path fill-rule="evenodd" clip-rule="evenodd" d="M11.5882 5.19608C11.5882 4.64379 11.1405 4.19608 10.5882 4.19608H6C5.44772 4.19608 5 4.6438 5 5.19608V29C5 29.5523 5.44771 30 6 30H25.9608C26.5131 30 26.9608 29.5523 26.9608 29V5.19608C26.9608 4.64379 26.5131 4.19608 25.9608 4.19608H21.3725C20.8203 4.19608 20.3726 4.64379 20.3726 5.19608V5.39216C20.3726 5.94444 19.9248 6.39216 19.3725 6.39216H12.5882C12.036 6.39216 11.5882 5.94444 11.5882 5.39216V5.19608ZM14.8824 12.7059C14.8824 12.2511 14.5136 11.8824 14.0588 11.8824H8.01961C7.56479 11.8824 7.19608 12.2511 7.19608 12.7059C7.19608 13.1607 7.56478 13.5294 8.01961 13.5294H14.0588C14.5136 13.5294 14.8824 13.1607 14.8824 12.7059ZM7.19608 16C7.19608 15.5452 7.56479 15.1765 8.01961 15.1765H14.0588C14.5136 15.1765 14.8824 15.5452 14.8824 16C14.8824 16.4548 14.5136 16.8235 14.0588 16.8235H8.01961C7.56478 16.8235 7.19608 16.4548 7.19608 16ZM14.8824 19.2941C14.8824 18.8393 14.5136 18.4706 14.0588 18.4706H8.01961C7.56479 18.4706 7.19608 18.8393 7.19608 19.2941C7.19608 19.7489 7.56478 20.1176 8.01961 20.1176H14.0588C14.5136 20.1176 14.8824 19.7489 14.8824 19.2941ZM8.01961 23.4118C7.56479 23.4118 7.19608 23.0431 7.19608 22.5882C7.19608 22.1334 7.56479 21.7647 8.01961 21.7647H23.9412C24.396 21.7647 24.7647 22.1334 24.7647 22.5882C24.7647 23.0431 24.396 23.4118 23.9412 23.4118H8.01961ZM23.9412 26.7059C24.396 26.7059 24.7647 26.3372 24.7647 25.8824C24.7647 25.4275 24.396 25.0588 23.9412 25.0588H8.01961C7.56479 25.0588 7.19608 25.4275 7.19608 25.8824C7.19608 26.3372 7.56479 26.7059 8.01961 26.7059H23.9412ZM16.9804 20.1176C16.4281 20.1176 15.9804 19.6699 15.9804 19.1176V12.8824C15.9804 12.3301 16.4281 11.8824 16.9804 11.8824H23.7647C24.317 11.8824 24.7647 12.3301 24.7647 12.8824V19.1176C24.7647 19.6699 24.317 20.1176 23.7647 20.1176H16.9804Z" fill="#555555"/>
</svg>
