<svg viewBox="0 0 32 32" fill="none" xmlns="http://www.w3.org/2000/svg">
<path fill-rule="evenodd" clip-rule="evenodd" d="M2.5 27.8462C2.22386 27.8462 2 27.6223 2 27.3462V26.1923C2 25.9162 2.22386 25.6923 2.5 25.6923H5.5C5.77614 25.6923 6 25.4685 6 25.1923V4.5828C6 4.33602 6.18006 4.12615 6.42397 4.08862L19.424 2.08862C19.7269 2.04202 20 2.27636 20 2.58281V3.65385C20 3.92999 20.2239 4.15385 20.5 4.15385H23.5C23.7761 4.15385 24 4.3777 24 4.65385V25.1923C24 25.4685 24.2239 25.6923 24.5 25.6923H29.5C29.7761 25.6923 30 25.9162 30 26.1923V27.3462C30 27.6223 29.7761 27.8462 29.5 27.8462H22.5C22.2239 27.8462 22 27.6223 22 27.3462V6.80769C22 6.53155 21.7761 6.30769 21.5 6.30769H20.5C20.2239 6.30769 20 6.53155 20 6.80769V29.4172C20 29.7236 19.7269 29.958 19.424 29.9114L6.03779 27.852C6.01263 27.8481 5.98722 27.8462 5.96176 27.8462H2.5ZM18.37 16.9073C18.6877 16.9928 19 16.7535 19 16.4245V13.4217C19 13.0926 18.6877 12.8533 18.37 12.9388L17.37 13.2081C17.1517 13.2668 17 13.4648 17 13.6909V16.1553C17 16.3814 17.1517 16.5793 17.37 16.6381L18.37 16.9073Z" fill="#555555"/>
</svg>
