<svg viewBox="0 0 32 32" fill="none" xmlns="http://www.w3.org/2000/svg">
<path fill-rule="evenodd" clip-rule="evenodd" d="M3 14C2.44772 14 2 14.4477 2 15V27C2 27.5523 2.44772 28 3 28H13C13.5523 28 14 27.5523 14 27V22C14 21.4477 14.4477 21 15 21H17C17.5523 21 18 21.4477 18 22V27C18 27.5523 18.4477 28 19 28H29C29.5523 28 30 27.5523 30 27V15C30 14.4477 29.5523 14 29 14L23 14C22.4477 14 22 13.5523 22 13V11.4684C22 11.1716 21.8682 10.8901 21.6402 10.7001L16.6445 6.53707C16.2717 6.22644 15.7298 6.22823 15.3591 6.54132L10.4348 10.7004C10.2098 10.8904 10.08 11.1699 10.08 11.4643V13C10.08 13.5523 9.63228 14 9.08 14H3ZM5 17C4.44772 17 4 17.4477 4 18V19C4 19.5523 4.44772 20 5 20H6C6.55228 20 7 19.5523 7 19V18C7 17.4477 6.55228 17 6 17H5ZM22 17C21.4477 17 21 17.4477 21 18V19C21 19.5523 21.4477 20 22 20H23C23.5523 20 24 19.5523 24 19V18C24 17.4477 23.5523 17 23 17H22ZM11 19C11 19.5523 10.5523 20 10 20H9C8.44772 20 8 19.5523 8 19V18C8 17.4477 8.44772 17 9 17H10C10.5523 17 11 17.4477 11 18V19ZM11 22C11 21.4477 10.5523 21 10 21H9C8.44772 21 8 21.4477 8 22V23C8 23.5523 8.44772 24 9 24H10C10.5523 24 11 23.5523 11 23V22ZM7 22C7 21.4477 6.55228 21 6 21H5C4.44772 21 4 21.4477 4 22V23C4 23.5523 4.44772 24 5 24H6C6.55228 24 7 23.5523 7 23V22ZM22 21C21.4477 21 21 21.4477 21 22V23C21 23.5523 21.4477 24 22 24H23C23.5523 24 24 23.5523 24 23V22C24 21.4477 23.5523 21 23 21H22ZM26 24C25.4477 24 25 23.5523 25 23V22C25 21.4477 25.4477 21 26 21H27C27.5523 21 28 21.4477 28 22V23C28 23.5523 27.5523 24 27 24H26ZM26 17C25.4477 17 25 17.4477 25 18V19C25 19.5523 25.4477 20 26 20H27C27.5523 20 28 19.5523 28 19V18C28 17.4477 27.5523 17 27 17H26ZM14 12C14 10.8954 14.8954 9.99999 16 9.99999C17.1046 9.99999 18 10.8954 18 12C18 13.1046 17.1046 14 16 14C14.8954 14 14 13.1046 14 12Z" fill="#555555"/>
</svg>
