<svg viewBox="0 0 32 32" fill="none" xmlns="http://www.w3.org/2000/svg">
<path d="M16 2C15.4477 2 15 2.44772 15 3V4C15 4.55229 15.4477 5 16 5L22.4645 5C23.3554 5 23.8015 6.07714 23.1716 6.70711L17.7071 12.1716C17.3166 12.5621 17.3166 13.1953 17.7071 13.5858L18.4142 14.2929C18.8047 14.6834 19.4379 14.6834 19.8284 14.2929L25.2929 8.82842C25.9229 8.19846 27 8.64463 27 9.53553L27 16C27 16.5523 27.4477 17 28 17L29 17C29.5523 17 30 16.5523 30 16L30 3C30 2.44772 29.5523 2 29 2L16 2Z" fill="#555555"/>
<path d="M16 30C16.5523 30 17 29.5523 17 29V28C17 27.4477 16.5523 27 16 27H9.53553C8.64463 27 8.19846 25.9229 8.82843 25.2929L14.2929 19.8284C14.6834 19.4379 14.6834 18.8047 14.2929 18.4142L13.5858 17.7071C13.1953 17.3166 12.5621 17.3166 12.1716 17.7071L6.70711 23.1716C6.07714 23.8015 5 23.3554 5 22.4645L5 16C5 15.4477 4.55229 15 4 15L3 15C2.44772 15 2 15.4477 2 16L2 29C2 29.5523 2.44772 30 3 30H16Z" fill="#555555"/>
</svg>
