<svg width="20" height="20" viewBox="0 0 20 20" fill="none" xmlns="http://www.w3.org/2000/svg">
<path fill-rule="evenodd" clip-rule="evenodd" d="M3.18426 12.5237C0.605246 9.94469 0.605246 5.76328 3.18426 3.18426C5.76328 0.605246 9.94469 0.605246 12.5237 3.18426C14.4437 5.1043 14.9343 7.91247 13.9955 10.2864C13.7246 10.9714 14.0792 11.8259 14.8052 11.951C15.0087 11.986 15.1964 12.0833 15.3424 12.2293L18.0429 14.9297C18.4334 15.3203 18.4334 15.9534 18.0429 16.344L16.344 18.0429C15.9534 18.4334 15.3203 18.4334 14.9297 18.0429L12.2293 15.3424C12.0833 15.1964 11.986 15.0087 11.951 14.8052C11.8259 14.0792 10.9714 13.7246 10.2864 13.9955C7.91247 14.9343 5.1043 14.4437 3.18426 12.5237ZM5.25969 10.4483C6.69248 11.8811 9.01549 11.8811 10.4483 10.4483C11.8811 9.01549 11.8811 6.69248 10.4483 5.25969C9.01549 3.82691 6.69248 3.82691 5.25969 5.25969C3.82691 6.69248 3.82691 9.01549 5.25969 10.4483Z" fill="#555555"/>
</svg>
