<svg viewBox="0 0 32 32" fill="none" xmlns="http://www.w3.org/2000/svg">
<path fill-rule="evenodd" clip-rule="evenodd" d="M5.09482 20.0379C0.968393 15.9115 0.968393 9.22124 5.09482 5.09482C9.22124 0.96839 15.9115 0.96839 20.0379 5.09482C23.3483 8.40514 24.003 13.3655 22.002 17.3285C21.6699 17.9862 22.0218 18.8344 22.7479 18.9595L23.8759 19.1539C24.0795 19.1889 24.2672 19.2862 24.4133 19.4322L29.2929 24.3119C29.6834 24.7024 29.6834 25.3355 29.2929 25.7261L25.7261 29.2929C25.3355 29.6834 24.7024 29.6834 24.3119 29.2929L19.4322 24.4133C19.2862 24.2672 19.1889 24.0795 19.1539 23.8759L18.9595 22.7479C18.8344 22.0217 17.9862 21.6699 17.3285 22.002C13.3655 24.0029 8.40515 23.3483 5.09482 20.0379ZM8.41551 16.7172C10.708 19.0097 14.4248 19.0097 16.7172 16.7172C19.0097 14.4248 19.0097 10.708 16.7172 8.41551C14.4248 6.12305 10.708 6.12305 8.41551 8.41551C6.12305 10.708 6.12305 14.4248 8.41551 16.7172Z" fill="#555555"/>
</svg>
