<svg viewBox="0 0 32 32" fill="none" xmlns="http://www.w3.org/2000/svg">
<path fill-rule="evenodd" clip-rule="evenodd" d="M2 3C2 2.44771 2.44772 2 3 2H29C29.5523 2 30 2.44772 30 3V8.63636C30 9.18865 29.5523 9.63636 29 9.63636H3C2.44771 9.63636 2 9.18865 2 8.63636V3ZM21.0909 5.54545C21.0909 4.99317 21.5386 4.54545 22.0909 4.54545H22.6364C23.1886 4.54545 23.6364 4.99317 23.6364 5.54545V6.09091C23.6364 6.64319 23.1886 7.09091 22.6364 7.09091H22.0909C21.5386 7.09091 21.0909 6.64319 21.0909 6.09091V5.54545ZM27.4545 5.54545C27.4545 4.99317 27.0068 4.54545 26.4545 4.54545H25.9091C25.3568 4.54545 24.9091 4.99317 24.9091 5.54545V6.09091C24.9091 6.64319 25.3568 7.09091 25.9091 7.09091H26.4545C27.0068 7.09091 27.4545 6.64319 27.4545 6.09091V5.54545Z" fill="#555555"/>
<path fill-rule="evenodd" clip-rule="evenodd" d="M2 13.1818C2 12.6295 2.44772 12.1818 3 12.1818H29C29.5523 12.1818 30 12.6295 30 13.1818V18.8182C30 19.3705 29.5523 19.8182 29 19.8182H3C2.44771 19.8182 2 19.3705 2 18.8182V13.1818ZM24.9091 15.7273C24.9091 15.175 25.3568 14.7273 25.9091 14.7273H26.4545C27.0068 14.7273 27.4545 15.175 27.4545 15.7273V16.2727C27.4545 16.825 27.0068 17.2727 26.4545 17.2727H25.9091C25.3568 17.2727 24.9091 16.825 24.9091 16.2727V15.7273ZM23.6364 15.7273C23.6364 15.175 23.1886 14.7273 22.6364 14.7273H22.0909C21.5386 14.7273 21.0909 15.175 21.0909 15.7273V16.2727C21.0909 16.825 21.5386 17.2727 22.0909 17.2727H22.6364C23.1886 17.2727 23.6364 16.825 23.6364 16.2727V15.7273Z" fill="#555555"/>
<path fill-rule="evenodd" clip-rule="evenodd" d="M2 23.3636C2 22.8113 2.44772 22.3636 3 22.3636H29C29.5523 22.3636 30 22.8114 30 23.3636V29C30 29.5523 29.5523 30 29 30H3C2.44771 30 2 29.5523 2 29V23.3636ZM21.0909 25.9091C21.0909 25.3568 21.5386 24.9091 22.0909 24.9091H22.6364C23.1886 24.9091 23.6364 25.3568 23.6364 25.9091V26.4545C23.6364 27.0068 23.1886 27.4545 22.6364 27.4545H22.0909C21.5386 27.4545 21.0909 27.0068 21.0909 26.4545V25.9091ZM27.4545 25.9091C27.4545 25.3568 27.0068 24.9091 26.4545 24.9091H25.9091C25.3568 24.9091 24.9091 25.3568 24.9091 25.9091V26.4545C24.9091 27.0068 25.3568 27.4545 25.9091 27.4545H26.4545C27.0068 27.4545 27.4545 27.0068 27.4545 26.4545V25.9091Z" fill="#555555"/>
</svg>
