<svg viewBox="0 0 32 32" fill="none" xmlns="http://www.w3.org/2000/svg">
<path fill-rule="evenodd" clip-rule="evenodd" d="M7.41065 28.7679C7.25587 28.8513 7.07654 28.7087 7.12285 28.5391L9.43247 20.0789C9.79472 18.752 9.59432 17.3344 8.87846 16.1599L7.93552 14.6128C7.33671 13.4437 7 12.126 7 10.7319C7 5.90942 11.0294 2 16 2C20.9706 2 25 5.90942 25 10.7319C25 12.126 24.6633 13.4437 24.0645 14.6128L23.1206 16.1615C22.4053 17.3351 22.2046 18.7514 22.5657 20.0775L24.87 28.5389C24.9162 28.7086 24.7367 28.851 24.582 28.7675L21.6439 27.1811C21.5602 27.1359 21.4562 27.1559 21.3953 27.229L19.324 29.7121C19.2215 29.8349 19.0234 29.7937 18.9784 29.6401L16.1917 20.1189C16.1356 19.9272 15.8641 19.9271 15.8079 20.1188L13.0145 29.6398C12.9695 29.7934 12.7712 29.8345 12.6688 29.7114L10.6046 27.2292C10.5438 27.1561 10.4398 27.1359 10.356 27.181L7.41065 28.7679ZM16 14.6128C18.2145 14.6128 19.9933 12.8701 20 10.7319C20.0067 8.58727 18.2213 6.82759 16 6.82759C13.7787 6.82759 11.9933 8.58727 12 10.7319C12.0067 12.8701 13.7855 14.6128 16 14.6128Z" fill="#555555"/>
</svg>
