<svg viewBox="0 0 32 32" fill="none" xmlns="http://www.w3.org/2000/svg">
<path d="M14.9682 3.61992C15.3902 2.79336 16.6098 2.79336 17.0318 3.61992L20.4667 10.3464C20.6343 10.6746 20.9583 10.9021 21.333 10.9548L29.0135 12.0334C29.9573 12.1659 30.3342 13.2869 29.6513 13.9303L24.0936 19.1661C23.8224 19.4216 23.6986 19.7897 23.7627 20.1505L25.0747 27.5436C25.2359 28.4521 24.2493 29.1449 23.4051 28.7159L16.5354 25.2254C16.2002 25.0551 15.7998 25.0551 15.4646 25.2254L8.5949 28.7159C7.75074 29.1449 6.76413 28.4521 6.92535 27.5436L8.23733 20.1505C8.30135 19.7897 8.1776 19.4216 7.90641 19.1661L2.34874 13.9303C1.66581 13.2869 2.04266 12.1659 2.98645 12.0334L10.667 10.9548C11.0417 10.9021 11.3657 10.6746 11.5333 10.3464L14.9682 3.61992Z" fill="#555555"/>
</svg>
