<svg viewBox="0 0 32 32" fill="none" xmlns="http://www.w3.org/2000/svg">
<path d="M19 30H10.5C10.2239 30 10 29.7761 10 29.5C10 29.2239 9.77236 29.0005 9.49625 28.9965C4.11895 28.9178 3.1898 27.4959 3.03156 21.3165C3.02248 20.962 2.81465 20.6494 2.56724 20.3954C2.21623 20.0351 2 19.5428 2 19V15C2 14.3489 2.31113 13.7705 2.79283 13.4053C3.06626 13.198 3.30917 12.9315 3.38667 12.5972C4.79817 6.50965 9.91006 2 16 2C22.0899 2 27.2018 6.50965 28.6133 12.5972C28.6908 12.9315 28.9337 13.198 29.2072 13.4053C29.6889 13.7705 30 14.3489 30 15V19C30 20.1046 29.1046 21 28 21H27C25.8954 21 25 20.1046 25 19V15C25 14.595 25.1204 14.2181 25.3274 13.9031C25.533 13.5901 25.6882 13.22 25.591 12.8583C24.3405 8.20597 20.3862 5 16 5C11.6138 5 7.65945 8.20597 6.40904 12.8583C6.31183 13.22 6.46698 13.5901 6.67265 13.9031C6.8796 14.2181 7 14.595 7 15V19C7 19.5697 6.76181 20.0837 6.37959 20.448C6.1145 20.7007 5.88726 21.0191 5.87649 21.3852C5.76231 25.2626 5.99812 25.9444 9.4992 25.9965C9.77531 26.0007 10 25.7761 10 25.5C10 25.2239 10.2239 25 10.5 25H19C19.5523 25 20 25.4477 20 26V29C20 29.5523 19.5523 30 19 30Z" fill="#555555"/>
</svg>
