<svg viewBox="0 0 32 32" fill="none" xmlns="http://www.w3.org/2000/svg">
<path fill-rule="evenodd" clip-rule="evenodd" d="M29.2131 3.98749C29.1552 3.34995 28.65 2.84483 28.0125 2.78688L19.4169 2.00545C19.0249 1.96982 18.6374 2.11012 18.3591 2.38842L2.38841 18.3591C1.87053 18.877 1.87053 19.7166 2.38841 20.2345L11.7655 29.6116C12.2834 30.1295 13.123 30.1295 13.6409 29.6116L29.6116 13.6409C29.8899 13.3626 30.0302 12.9751 29.9945 12.5831L29.2131 3.98749ZM22.5491 9.45088C23.3259 10.2277 24.5854 10.2277 25.3622 9.45088C26.1391 8.67406 26.1391 7.41458 25.3622 6.63776C24.5854 5.86093 23.3259 5.86093 22.5491 6.63776C21.7723 7.41458 21.7723 8.67406 22.5491 9.45088Z" fill="#555555"/>
</svg>
