<svg width="20" height="20" viewBox="0 0 20 20" fill="none" xmlns="http://www.w3.org/2000/svg">
<path d="M2.02017 16.7729L2.17744 15.0524C2.22517 14.5303 2.47631 14.0101 2.87637 13.6049L9.88972 6.50067C10.7322 5.64732 11.3947 4.93007 12.0989 5.63569L14.4042 7.81389C15.3023 8.71379 14.3126 9.23496 13.4624 10.0805L6.38402 17.1196C5.98026 17.5211 5.46178 17.7734 4.94112 17.8217L3.26308 17.9773C2.17095 18.0786 1.92005 17.8682 2.02017 16.7729Z" fill="#555555"/>
<path d="M14.7956 6.64955L12.9454 4.78622C12.3652 4.20485 12.8246 3.54083 13.522 2.84096C14.2193 2.14109 14.9842 1.46866 15.8351 2.62639L17.7511 4.54616C18.3313 5.12753 17.8061 5.7351 17.1088 6.43497L17.1071 6.43665C16.4106 7.13575 15.8462 7.70221 14.7956 6.64955Z" fill="#555555"/>
</svg>
