<svg viewBox="0 0 32 32" fill="none" xmlns="http://www.w3.org/2000/svg">
<path d="M25.7407 3.0566C26.293 3.0566 26.7407 3.50432 26.7407 4.0566V5.22642C26.7407 5.7787 26.293 6.22642 25.7407 6.22642H7C6.44772 6.22642 6 5.7787 6 5.22642V4.0566C6 3.50432 6.44772 3.0566 7 3.0566H13.6588C13.9506 3.0566 14.1871 2.82007 14.1871 2.5283C14.1871 2.23653 14.4237 2 14.7154 2H18.0253C18.3171 2 18.5536 2.23653 18.5536 2.5283C18.5536 2.82007 18.7901 3.0566 19.0819 3.0566H25.7407Z" fill="#555555"/>
<path fill-rule="evenodd" clip-rule="evenodd" d="M26.1458 7.80163C26.1725 7.23155 25.7176 6.75472 25.1469 6.75472H7.59387C7.02317 6.75472 6.5682 7.23155 6.59497 7.80163L7.59267 29.0469C7.61772 29.5804 8.05752 30 8.59157 30H24.1492C24.6832 30 25.123 29.5804 25.1481 29.0469L26.1458 7.80163ZM16.7082 11.1245C16.5171 10.9493 16.2237 10.9493 16.0325 11.1245L11.0957 15.6499C10.7595 15.9581 10.9775 16.5185 11.4335 16.5185H14.3148C14.591 16.5185 14.8148 16.7424 14.8148 17.0185V24.3148C14.8148 24.591 15.0387 24.8148 15.3148 24.8148H17.4259C17.7021 24.8148 17.9259 24.591 17.9259 24.3148V17.0185C17.9259 16.7424 18.1498 16.5185 18.4259 16.5185H21.3072C21.7632 16.5185 21.9812 15.9581 21.6451 15.6499L16.7082 11.1245Z" fill="#555555"/>
</svg>
