<svg viewBox="0 0 32 32" fill="none" xmlns="http://www.w3.org/2000/svg">
<path d="M25.7407 3.0566C26.293 3.0566 26.7407 3.50432 26.7407 4.0566V5.22642C26.7407 5.7787 26.293 6.22642 25.7407 6.22642H7C6.44772 6.22642 6 5.7787 6 5.22642V4.0566C6 3.50432 6.44772 3.0566 7 3.0566H13.6588C13.9506 3.0566 14.1871 2.82007 14.1871 2.5283C14.1871 2.23653 14.4237 2 14.7154 2H18.0253C18.3171 2 18.5536 2.23653 18.5536 2.5283C18.5536 2.82007 18.7901 3.0566 19.0819 3.0566H25.7407Z" fill="#555555"/>
<path fill-rule="evenodd" clip-rule="evenodd" d="M26.1458 7.80163C26.1725 7.23155 25.7176 6.75472 25.1469 6.75472H7.59387C7.02317 6.75472 6.5682 7.23156 6.59497 7.80163L7.59267 29.0469C7.61772 29.5804 8.05752 30 8.59157 30H24.1492C24.6832 30 25.123 29.5804 25.1481 29.0469L26.1458 7.80163ZM12.5497 26.8585C12.5497 27.1346 12.3259 27.3585 12.0497 27.3585H10.8665C10.5903 27.3585 10.3665 27.1346 10.3665 26.8585V12.0094C10.3665 11.7333 10.5903 11.5094 10.8665 11.5094H12.0497C12.3259 11.5094 12.5497 11.7333 12.5497 12.0094V26.8585ZM15.2788 26.8585C15.2788 27.1346 15.5026 27.3585 15.7788 27.3585H16.962C17.2381 27.3585 17.462 27.1346 17.462 26.8585V12.0094C17.462 11.7333 17.2381 11.5094 16.962 11.5094H15.7788C15.5026 11.5094 15.2788 11.7333 15.2788 12.0094V26.8585ZM22.3743 26.8585C22.3743 27.1346 22.1504 27.3585 21.8743 27.3585H20.691C20.4149 27.3585 20.191 27.1346 20.191 26.8585V12.0094C20.191 11.7333 20.4149 11.5094 20.691 11.5094H21.8743C22.1504 11.5094 22.3743 11.7333 22.3743 12.0094V26.8585Z" fill="#555555"/>
</svg>
