<svg viewBox="0 0 32 32" fill="none" xmlns="http://www.w3.org/2000/svg">
<path d="M7 3C7 2.44771 7.44772 2 8 2H9.81818C10.3705 2 10.8182 2.44772 10.8182 3V9.90909C10.8182 10.4614 11.2659 10.9091 11.8182 10.9091H15.2727C15.6242 10.9091 15.9091 10.6242 15.9091 10.2727C15.9091 9.92127 16.194 9.63636 16.5455 9.63636H23.8182C24.3705 9.63636 24.8182 10.0841 24.8182 10.6364V15C24.8182 15.5523 24.3705 16 23.8182 16H16.5455C16.194 16 15.9091 15.7151 15.9091 15.3636C15.9091 15.0122 15.6242 14.7273 15.2727 14.7273H11.8182C11.2659 14.7273 10.8182 15.175 10.8182 15.7273V23.9091C10.8182 24.4614 11.2659 24.9091 11.8182 24.9091H15.2727C15.6242 24.9091 15.9091 24.6242 15.9091 24.2727C15.9091 23.9213 16.194 23.6364 16.5455 23.6364H23.8182C24.3705 23.6364 24.8182 24.0841 24.8182 24.6364V29C24.8182 29.5523 24.3705 30 23.8182 30H16.5455C16.194 30 15.9091 29.7151 15.9091 29.3636C15.9091 29.0122 15.6242 28.7273 15.2727 28.7273H8C7.44772 28.7273 7 28.2796 7 27.7273V3Z" fill="#555555"/>
</svg>
