<svg viewBox="0 0 32 32" fill="none" xmlns="http://www.w3.org/2000/svg">
<path fill-rule="evenodd" clip-rule="evenodd" d="M16 16C19.866 16 23 12.866 23 9C23 5.13401 19.866 2 16 2C12.134 2 9 5.13401 9 9C9 12.866 12.134 16 16 16Z" fill="#555555"/>
<path fill-rule="evenodd" clip-rule="evenodd" d="M2 27.5C2 28.8807 3.11929 30 4.5 30H27.5C28.8807 30 30 28.8807 30 27.5C30 20.8416 26.1894 17.2596 19.7249 17.0136C19.2574 16.9958 18.8113 17.1784 18.4102 17.4192C16.9295 18.3085 15.0705 18.3085 13.5898 17.4192C13.1887 17.1784 12.7426 16.9958 12.2751 17.0136C5.81062 17.2596 2 20.8416 2 27.5ZM17.9836 24.8194C18.0055 24.8922 18.0055 24.9801 17.9836 25.0528L16.1181 27.373C16.0671 27.5423 15.9329 27.5423 15.8819 27.373L14.0164 25.0528C13.9945 24.9801 13.9945 24.8922 14.0164 24.8194L15.3704 20.8041C15.3994 20.7183 15.4893 20.6692 15.5771 20.6913C15.8547 20.761 16.1453 20.761 16.4229 20.6913C16.5107 20.6692 16.6006 20.7183 16.6296 20.8041L17.9836 24.8194Z" fill="#555555"/>
</svg>
