<svg viewBox="0 0 32 32" fill="none" xmlns="http://www.w3.org/2000/svg">
<path fill-rule="evenodd" clip-rule="evenodd" d="M23 17C24.933 17 26.5 15.433 26.5 13.5C26.5 11.567 24.933 10 23 10C21.067 10 19.5 11.567 19.5 13.5C19.5 15.433 21.067 17 23 17Z" fill="#555555"/>
<path fill-rule="evenodd" clip-rule="evenodd" d="M12 18C14.7614 18 17 15.7614 17 13C17 10.2386 14.7614 8 12 8C9.23858 8 7 10.2386 7 13C7 15.7614 9.23858 18 12 18Z" fill="#555555"/>
<path fill-rule="evenodd" clip-rule="evenodd" d="M2 26.2143C2 27.2005 2.79949 28 3.78571 28H20.2143C21.2005 28 22 27.2005 22 26.2143C22 21.4583 19.2781 18.8997 14.6606 18.724C14.3267 18.7113 14.0081 18.8417 13.7216 19.0137C12.664 19.6489 11.336 19.6489 10.2784 19.0137C9.99191 18.8417 9.67332 18.7113 9.33936 18.724C4.72187 18.8997 2 21.4583 2 26.2143ZM13.4168 24.2996C13.4325 24.3516 13.4325 24.4143 13.4168 24.4663L12.0844 26.1236C12.048 26.2445 11.952 26.2445 11.9156 26.1236L10.5832 24.4663C10.5675 24.4143 10.5675 24.3516 10.5832 24.2996L11.5503 21.4315C11.571 21.3702 11.6352 21.3352 11.6979 21.3509C11.8962 21.4007 12.1038 21.4007 12.3021 21.3509C12.3648 21.3352 12.429 21.3702 12.4497 21.4315L13.4168 24.2996Z" fill="#555555"/>
<path fill-rule="evenodd" clip-rule="evenodd" d="M21.7949 17.7096C22.5352 18.1542 23.4648 18.1542 24.2051 17.7096C24.4057 17.5892 24.6287 17.4979 24.8624 17.5068C28.0947 17.6298 30 19.4208 30 22.75C30 23.4404 29.4404 24 28.75 24H22.4819C22.3863 24 22.3042 23.9318 22.284 23.8383C21.7385 21.3125 20.1771 19.6617 17.8033 18.9315C17.6527 18.8852 17.6054 18.6935 17.7294 18.5964C18.5848 17.9268 19.7365 17.5601 21.1376 17.5068C21.3713 17.4979 21.5943 17.5892 21.7949 17.7096ZM23.9918 21.4097C24.0027 21.4461 24.0027 21.49 23.9918 21.5264L23.0591 22.6865C23.0336 22.7712 22.9664 22.7712 22.9409 22.6865L22.0082 21.5264C21.9973 21.49 21.9973 21.4461 22.0082 21.4097L22.6852 19.402C22.6997 19.3592 22.7447 19.3346 22.7886 19.3456C22.9274 19.3805 23.0726 19.3805 23.2114 19.3456C23.2553 19.3346 23.3003 19.3592 23.3148 19.402L23.9918 21.4097Z" fill="#555555"/>
</svg>
