<svg width="20" height="20" viewBox="0 0 20 20" fill="none" xmlns="http://www.w3.org/2000/svg">
<path fill-rule="evenodd" clip-rule="evenodd" d="M14.375 9.375C15.5831 9.375 16.5625 8.39562 16.5625 7.1875C16.5625 5.97938 15.5831 5 14.375 5C13.1669 5 12.1875 5.97938 12.1875 7.1875C12.1875 8.39562 13.1669 9.375 14.375 9.375Z" fill="#555555"/>
<path fill-rule="evenodd" clip-rule="evenodd" d="M7.5 10C9.22589 10 10.625 8.60089 10.625 6.875C10.625 5.14911 9.22589 3.75 7.5 3.75C5.77411 3.75 4.375 5.14911 4.375 6.875C4.375 8.60089 5.77411 10 7.5 10Z" fill="#555555"/>
<path d="M2.36607 16.25C1.74968 16.25 1.25 15.7503 1.25 15.1339C1.25 12.1614 2.95117 10.5623 5.8371 10.4525C6.04582 10.4446 6.24494 10.5261 6.42401 10.6336C7.08503 11.0306 7.91497 11.0306 8.57599 10.6336C8.75506 10.5261 8.95418 10.4446 9.1629 10.4525C12.0488 10.5623 13.75 12.1614 13.75 15.1339C13.75 15.7503 13.2503 16.25 12.6339 16.25H2.36607Z" fill="#555555"/>
<path d="M13.6218 9.81851C14.0845 10.0964 14.6655 10.0964 15.1282 9.81851C15.2535 9.74324 15.3929 9.68619 15.539 9.69175C17.5592 9.76864 18.75 10.888 18.75 12.9688C18.75 13.4002 18.4002 13.75 17.9688 13.75H14.1493C14.061 13.75 13.9832 13.6916 13.9568 13.6073C13.4357 11.9425 12.8364 11.2994 11.2367 10.4651C11.1025 10.3951 11.0908 10.2105 11.2265 10.1434C11.7641 9.87796 12.5291 9.7177 13.211 9.69175C13.3571 9.68619 13.4965 9.74324 13.6218 9.81851Z" fill="#555555"/>
</svg>
