<svg viewBox="0 0 32 32" fill="none" xmlns="http://www.w3.org/2000/svg">
<path fill-rule="evenodd" clip-rule="evenodd" d="M23 15C24.933 15 26.5 13.433 26.5 11.5C26.5 9.567 24.933 8 23 8C21.067 8 19.5 9.567 19.5 11.5C19.5 13.433 21.067 15 23 15Z" fill="#555555"/>
<path fill-rule="evenodd" clip-rule="evenodd" d="M12 16C14.7614 16 17 13.7614 17 11C17 8.23858 14.7614 6 12 6C9.23858 6 7 8.23858 7 11C7 13.7614 9.23858 16 12 16Z" fill="#555555"/>
<path d="M3.78571 26C2.79949 26 2 25.2005 2 24.2143C2 19.4583 4.72187 16.8997 9.33936 16.724C9.67332 16.7113 9.99191 16.8417 10.2784 17.0137C11.336 17.6489 12.664 17.6489 13.7216 17.0137C14.0081 16.8417 14.3267 16.7113 14.6606 16.724C19.2781 16.8997 22 19.4583 22 24.2143C22 25.2005 21.2005 26 20.2143 26H3.78571Z" fill="#555555"/>
<path d="M21.7949 15.7096C22.5352 16.1542 23.4648 16.1542 24.2051 15.7096C24.4057 15.5892 24.6287 15.4979 24.8624 15.5068C28.0947 15.6298 30 17.4208 30 20.75C30 21.4404 29.4404 22 28.75 22H22.5496C22.4613 22 22.3832 21.9408 22.3572 21.8564C21.498 19.0676 20.5218 18.0467 17.7996 16.6516C17.6648 16.5825 17.6519 16.3965 17.7842 16.3229C18.6473 15.8424 19.9688 15.5513 21.1376 15.5068C21.3713 15.4979 21.5943 15.5892 21.7949 15.7096Z" fill="#555555"/>
</svg>
