<svg viewBox="0 0 32 32" fill="none" xmlns="http://www.w3.org/2000/svg">
<path fill-rule="evenodd" clip-rule="evenodd" d="M7 5.11111C7 6.82933 8.39289 8.22222 10.1111 8.22222C11.8293 8.22222 13.2222 6.82933 13.2222 5.11111C13.2222 3.39289 11.8293 2 10.1111 2C8.39289 2 7 3.39289 7 5.11111ZM10.1111 19.1111C8.39289 19.1111 7 17.7182 7 16C7 14.2818 8.39289 12.8889 10.1111 12.8889C11.8293 12.8889 13.2222 14.2818 13.2222 16C13.2222 17.7182 11.8293 19.1111 10.1111 19.1111ZM7 26.8889C7 28.6071 8.39289 30 10.1111 30C11.8293 30 13.2222 28.6071 13.2222 26.8889C13.2222 25.1707 11.8293 23.7778 10.1111 23.7778C8.39289 23.7778 7 25.1707 7 26.8889Z" fill="#555555"/>
<path d="M10.1111 8.22222C8.39289 8.22222 7 6.82933 7 5.11111C7 3.39289 8.39289 2 10.1111 2C11.8293 2 13.2222 3.39289 13.2222 5.11111C13.2222 6.82933 11.8293 8.22222 10.1111 8.22222Z" fill="#555555"/>
<path d="M10.1111 19.1111C8.39289 19.1111 7 17.7182 7 16C7 14.2818 8.39289 12.8889 10.1111 12.8889C11.8293 12.8889 13.2222 14.2818 13.2222 16C13.2222 17.7182 11.8293 19.1111 10.1111 19.1111Z" fill="#555555"/>
<path d="M10.1111 30C8.39289 30 7 28.6071 7 26.8889C7 25.1707 8.39289 23.7778 10.1111 23.7778C11.8293 23.7778 13.2222 25.1707 13.2222 26.8889C13.2222 28.6071 11.8293 30 10.1111 30Z" fill="#555555"/>
<path fill-rule="evenodd" clip-rule="evenodd" d="M17.8889 5.11111C17.8889 6.82933 19.2818 8.22222 21 8.22222C22.7182 8.22222 24.1111 6.82933 24.1111 5.11111C24.1111 3.39289 22.7182 2 21 2C19.2818 2 17.8889 3.39289 17.8889 5.11111ZM21 19.1111C19.2818 19.1111 17.8889 17.7182 17.8889 16C17.8889 14.2818 19.2818 12.8889 21 12.8889C22.7182 12.8889 24.1111 14.2818 24.1111 16C24.1111 17.7182 22.7182 19.1111 21 19.1111ZM17.8889 26.8889C17.8889 28.6071 19.2818 30 21 30C22.7182 30 24.1111 28.6071 24.1111 26.8889C24.1111 25.1707 22.7182 23.7778 21 23.7778C19.2818 23.7778 17.8889 25.1707 17.8889 26.8889Z" fill="#555555"/>
<path d="M21 8.22222C19.2818 8.22222 17.8889 6.82933 17.8889 5.11111C17.8889 3.39289 19.2818 2 21 2C22.7182 2 24.1111 3.39289 24.1111 5.11111C24.1111 6.82933 22.7182 8.22222 21 8.22222Z" fill="#555555"/>
<path d="M21 19.1111C19.2818 19.1111 17.8889 17.7182 17.8889 16C17.8889 14.2818 19.2818 12.8889 21 12.8889C22.7182 12.8889 24.1111 14.2818 24.1111 16C24.1111 17.7182 22.7182 19.1111 21 19.1111Z" fill="#555555"/>
<path d="M21 30C19.2818 30 17.8889 28.6071 17.8889 26.8889C17.8889 25.1707 19.2818 23.7778 21 23.7778C22.7182 23.7778 24.1111 25.1707 24.1111 26.8889C24.1111 28.6071 22.7182 30 21 30Z" fill="#555555"/>
</svg>
