<svg viewBox="0 0 32 32" fill="none" xmlns="http://www.w3.org/2000/svg">
<path fill-rule="evenodd" clip-rule="evenodd" d="M13 5.11111C13 6.82933 14.3929 8.22222 16.1111 8.22222C17.8293 8.22222 19.2222 6.82933 19.2222 5.11111C19.2222 3.39289 17.8293 2 16.1111 2C14.3929 2 13 3.39289 13 5.11111ZM16.1111 19.1111C14.3929 19.1111 13 17.7182 13 16C13 14.2818 14.3929 12.8889 16.1111 12.8889C17.8293 12.8889 19.2222 14.2818 19.2222 16C19.2222 17.7182 17.8293 19.1111 16.1111 19.1111ZM13 26.8889C13 28.6071 14.3929 30 16.1111 30C17.8293 30 19.2222 28.6071 19.2222 26.8889C19.2222 25.1707 17.8293 23.7778 16.1111 23.7778C14.3929 23.7778 13 25.1707 13 26.8889Z" fill="#555555"/>
<path d="M16.1111 8.22222C14.3929 8.22222 13 6.82933 13 5.11111C13 3.39289 14.3929 2 16.1111 2C17.8293 2 19.2222 3.39289 19.2222 5.11111C19.2222 6.82933 17.8293 8.22222 16.1111 8.22222Z" fill="#555555"/>
<path d="M16.1111 19.1111C14.3929 19.1111 13 17.7182 13 16C13 14.2818 14.3929 12.8889 16.1111 12.8889C17.8293 12.8889 19.2222 14.2818 19.2222 16C19.2222 17.7182 17.8293 19.1111 16.1111 19.1111Z" fill="#555555"/>
<path d="M16.1111 30C14.3929 30 13 28.6071 13 26.8889C13 25.1707 14.3929 23.7778 16.1111 23.7778C17.8293 23.7778 19.2222 25.1707 19.2222 26.8889C19.2222 28.6071 17.8293 30 16.1111 30Z" fill="#555555"/>
</svg>
