<svg viewBox="0 0 32 32" fill="none" xmlns="http://www.w3.org/2000/svg">
<path fill-rule="evenodd" clip-rule="evenodd" d="M27.5 21.5C27.5 22.8807 26.3807 24 25 24C23.6193 24 22.5 22.8807 22.5 21.5C22.5 20.1193 23.6193 19 25 19C26.3807 19 27.5 20.1193 27.5 21.5ZM25 23C25.8284 23 26.5 22.3284 26.5 21.5C26.5 20.6716 25.8284 20 25 20C24.1716 20 23.5 20.6716 23.5 21.5C23.5 22.3284 24.1716 23 25 23Z" fill="#555555"/>
<path fill-rule="evenodd" clip-rule="evenodd" d="M10.5 21.5C10.5 22.8807 9.38071 24 8 24C6.61929 24 5.5 22.8807 5.5 21.5C5.5 20.1193 6.61929 19 8 19C9.38071 19 10.5 20.1193 10.5 21.5ZM8 23C8.82843 23 9.5 22.3284 9.5 21.5C9.5 20.6716 8.82843 20 8 20C7.17157 20 6.5 20.6716 6.5 21.5C6.5 22.3284 7.17157 23 8 23Z" fill="#555555"/>
<path fill-rule="evenodd" clip-rule="evenodd" d="M4.5 21.5C4.77614 21.5 4.99563 21.2745 5.04113 21.0021C5.2783 19.5822 6.51277 18.5 8 18.5C9.48723 18.5 10.7217 19.5822 10.9589 21.0021C11.0044 21.2745 11.2239 21.5 11.5 21.5H21.5C21.7761 21.5 21.9956 21.2745 22.0411 21.0021C22.2783 19.5822 23.5128 18.5 25 18.5C26.4872 18.5 27.7217 19.5822 27.9589 21.0021C28.0044 21.2745 28.2239 21.5 28.5 21.5H29.5C29.7761 21.5 30 21.2761 30 21V15.4142C30 15.149 29.8946 14.8947 29.7071 14.7071L26.2929 11.2929C26.1054 11.1054 25.851 11 25.5858 11H22.5C22.2239 11 22 10.7761 22 10.5V8.5C22 8.22386 21.7761 8 21.5 8H2.5C2.22386 8 2 8.22386 2 8.5V21C2 21.2761 2.22386 21.5 2.5 21.5H4.5ZM25.6464 12.1465C25.5527 12.0527 25.4255 12 25.2929 12H23C22.7239 12 22.5 12.2239 22.5 12.5V15C22.5 15.2761 22.7239 15.5 23 15.5H27.7929C28.2383 15.5 28.4614 14.9614 28.1464 14.6465L25.6464 12.1465Z" fill="#555555"/>
</svg>
