<svg viewBox="0 0 32 32" fill="none" xmlns="http://www.w3.org/2000/svg">
<path d="M7.03083 4.5C7.03083 4.22386 7.25468 4 7.53083 4H12.5678C12.844 4 13.0678 4.22386 13.0678 4.5V9.83605C13.0678 10.2815 13.6064 10.5046 13.9214 10.1896L15.7328 8.37821C15.928 8.18295 16.2446 8.18295 16.4399 8.37821L18.2513 10.1896C18.5662 10.5046 19.1048 10.2815 19.1048 9.83605V4.5C19.1048 4.22386 19.3287 4 19.6048 4H24.6418C24.9179 4 25.1418 4.22386 25.1418 4.5V16.5801C25.1418 16.8563 24.9185 17.0797 24.6424 17.0767C23.2741 17.0621 19.3495 16.985 16.0863 16.5771C12.8981 16.1785 9.07847 16.7271 7.62852 16.9724C7.31742 17.025 7.03083 16.7858 7.03083 16.4702V4.5Z" fill="#555555"/>
<path d="M2.6747 26.9844C2.33743 27.0366 2 26.7894 2 26.4481V20.9004C2 20.7164 2.09941 20.5418 2.27254 20.4797C2.90149 20.254 3.47535 20.4263 4.08656 20.5563C4.33089 20.6083 4.51541 20.82 4.51541 21.0698V26.3893C4.51541 26.6712 4.28246 26.8961 4.00064 26.8967C3.51081 26.8977 3.06637 26.9238 2.6747 26.9844Z" fill="#555555"/>
<path d="M5.52158 20.9985C5.52158 20.7661 5.68293 20.5672 5.90417 20.4961C7.65174 19.9346 8.13847 18.6323 10.0493 18.0863C13.5709 17.0801 15.5684 17.5832 19.1048 17.5832C21.1171 17.5832 21.6202 21.1048 19.1048 21.1048H15.5832C14.5875 21.1048 13.5917 22.0903 15.5219 22.5983C15.5614 22.6087 15.6035 22.614 15.6444 22.6143C17.1466 22.6274 19.1319 23.1104 21.1171 22.6141C23.7808 21.8754 26.7589 18.5389 27.1181 18.1279C27.1422 18.1002 27.1699 18.0743 27.1996 18.0529C29.1821 16.6254 31.135 19.0679 29.2094 20.5689C29.1817 20.5905 29.1563 20.6134 29.1331 20.6396C28.767 21.0534 25.4582 24.7422 22.6264 26.1356C21.6771 26.6028 20.9701 26.9577 20.111 27.1418C15.2125 28.1915 9.8274 27.2944 5.98649 26.9892C5.72434 26.9684 5.52158 26.7506 5.52158 26.4876V20.9985Z" fill="#555555"/>
</svg>
