<svg viewBox="0 0 32 32" fill="none" xmlns="http://www.w3.org/2000/svg">
<path d="M2.50386 9.71208C2.19229 9.89012 2 10.2215 2 10.5803V29C2 29.5523 2.44772 30 3 30H5C5.55228 30 6 29.5523 6 29V15C6 14.4477 6.44772 14 7 14H25C25.5523 14 26 14.4477 26 15V29C26 29.5523 26.4477 30 27 30H29C29.5523 30 30 29.5523 30 29V10.5803C30 10.2215 29.8077 9.89012 29.4961 9.71208L16.4961 2.28351C16.1887 2.10783 15.8113 2.10783 15.5039 2.28351L2.50386 9.71208Z" fill="#555555"/>
<path d="M8 22C7.44772 22 7 21.5523 7 21V20C7 19.4477 7.44772 19 8 19H24C24.5523 19 25 19.4477 25 20V21C25 21.5523 24.5523 22 24 22H8Z" fill="#555555"/>
<path d="M8 26C7.44772 26 7 25.5523 7 25V24C7 23.4477 7.44772 23 8 23H24C24.5523 23 25 23.4477 25 24V25C25 25.5523 24.5523 26 24 26H8Z" fill="#555555"/>
<path d="M8 30C7.44772 30 7 29.5523 7 29V28C7 27.4477 7.44772 27 8 27H24C24.5523 27 25 27.4477 25 28V29C25 29.5523 24.5523 30 24 30H8Z" fill="#555555"/>
<path d="M8 18C7.44772 18 7 17.5523 7 17V16C7 15.4477 7.44772 15 8 15H24C24.5523 15 25 15.4477 25 16V17C25 17.5523 24.5523 18 24 18H8Z" fill="#555555"/>
</svg>
