<svg viewBox="0 0 32 32" fill="none" xmlns="http://www.w3.org/2000/svg">
<path fill-rule="evenodd" clip-rule="evenodd" d="M24.8846 16C24.8846 20.9068 20.9068 24.8846 16 24.8846C14.3301 24.8846 12.7677 24.4239 11.4332 23.6226C11.385 23.5937 11.327 23.5857 11.273 23.6012L8.19175 24.4881C8.04936 24.5291 7.9134 24.4064 7.93957 24.2606L8.5382 20.9242C8.5472 20.8741 8.53664 20.8224 8.50918 20.7795C7.62684 19.3995 7.11538 17.7595 7.11538 16C7.11538 11.0932 11.0932 7.11538 16 7.11538C20.9068 7.11538 24.8846 11.0932 24.8846 16ZM11.3867 10.6341C10.82 10.6999 10.4196 11.2271 10.5559 11.781C11.1126 14.0441 12.2751 16.1886 14.0433 17.9567C15.8114 19.7249 17.9559 20.8874 20.219 21.4441C20.7729 21.5804 21.3001 21.18 21.3659 20.6133L21.551 19.02C21.6096 18.5153 21.2833 18.0286 20.827 17.8053C20.6143 17.7012 20.3961 17.5862 20.1898 17.4775C20.1298 17.4458 20.0707 17.4147 20.0131 17.3845C19.7144 17.2281 19.3582 17.2522 19.0736 17.4332L17.9162 18.1689C17.595 18.3731 17.1837 18.3804 16.8696 18.1655C16.2855 17.7661 15.73 17.3071 15.2115 16.7885C14.6929 16.27 14.2339 15.7145 13.8345 15.1305C13.6196 14.8163 13.6269 14.405 13.8311 14.0838L14.5668 12.9264C14.7478 12.6418 14.7719 12.2856 14.6155 11.9869C14.5853 11.9293 14.5542 11.8702 14.5225 11.8102C14.4138 11.6039 14.2988 11.3857 14.1947 11.173C13.9714 10.7167 13.4847 10.3904 12.98 10.449L11.3867 10.6341Z" fill="#555555"/>
<path fill-rule="evenodd" clip-rule="evenodd" d="M3 2C2.44771 2 2 2.44772 2 3V29C2 29.5523 2.44772 30 3 30H29C29.5523 30 30 29.5523 30 29V3C30 2.44771 29.5523 2 29 2H3ZM16 26.5C21.799 26.5 26.5 21.799 26.5 16C26.5 10.201 21.799 5.5 16 5.5C10.201 5.5 5.5 10.201 5.5 16C5.5 18.0309 6.0766 19.9272 7.07503 21.534C7.10088 21.5756 7.11099 21.6251 7.10302 21.6734L6.35919 26.1875C6.33529 26.3325 6.47077 26.4529 6.612 26.4122L10.8128 25.1996C10.864 25.1848 10.919 25.1911 10.9658 25.2167C12.4605 26.0349 14.1759 26.5 16 26.5Z" fill="#555555"/>
</svg>
