<svg viewBox="0 0 32 32" fill="none" xmlns="http://www.w3.org/2000/svg">
<path d="M16.4212 26.6565C14.7178 26.9423 12.9889 25.5357 12.934 23.8083C12.776 22.1146 14.2711 20.5074 15.971 20.5446C17.4992 20.4916 18.9154 21.7594 19.0494 23.2793C19.2673 24.8749 18.0194 26.4724 16.4212 26.6565ZM14.6877 5.04798C20.155 4.65436 25.7489 6.69989 29.6511 10.5525C30.1623 11.079 30.0957 11.9996 29.5563 12.4819C29.0607 13.066 28.0687 13.0763 27.5574 12.5073C24.2194 9.29376 19.5063 7.55599 14.8787 7.90165C11.0342 8.14892 7.31006 9.80494 4.5204 12.4572C4.2723 12.7107 3.95551 12.9189 3.59068 12.9368C2.67685 13.0441 1.83165 12.089 2.02887 11.195C2.08452 10.8741 2.29061 10.6067 2.52632 10.3931C5.79226 7.26597 10.1768 5.34553 14.6877 5.04798Z" fill="#555555"/>
<path d="M14.5524 10.4096C18.7411 9.95398 23.0905 11.498 26.0547 14.491C26.5178 15.0202 26.4602 15.8852 25.9455 16.3607C25.4762 16.9351 24.5299 16.9996 23.9982 16.4788C22.1005 14.6079 19.5347 13.4197 16.8742 13.2254C13.6434 12.9574 10.3424 14.1832 8.04196 16.4596C7.51146 17.0204 6.52342 16.9565 6.04588 16.3599C5.53127 15.8742 5.4886 14.9857 5.98263 14.4711C8.26253 12.1899 11.3456 10.7387 14.5524 10.4096Z" fill="#555555"/>
<path d="M15.1715 15.6996C17.8148 15.4372 20.5476 16.4493 22.3869 18.3637C22.8906 18.8879 22.8322 19.7901 22.3017 20.2752C21.82 20.8567 20.8546 20.8957 20.3309 20.3509C19.2942 19.2865 17.8581 18.6139 16.3711 18.5328C14.6835 18.4126 12.976 19.079 11.7777 20.2651C11.4829 20.5963 11.0453 20.7997 10.5972 20.7468C9.55693 20.6738 8.8348 19.2852 9.55141 18.4517C10.9986 16.8823 13.0537 15.91 15.1715 15.6996Z" fill="#555555"/>
</svg>
