<svg viewBox="0 0 32 32" fill="none" xmlns="http://www.w3.org/2000/svg">
<path fill-rule="evenodd" clip-rule="evenodd" d="M2 11.0313C2 7.96413 4.37483 5.42074 7.43811 5.26664C10.1622 5.12961 13.4206 5 16 5C18.5794 5 21.8378 5.12961 24.5619 5.26664C27.6252 5.42074 30 7.96413 30 11.0313V21.1354C30 24.2025 27.6252 26.7459 24.5619 26.9C21.8378 27.0371 18.5794 27.1667 16 27.1667C13.4206 27.1667 10.1622 27.0371 7.43811 26.9C4.37483 26.7459 2 24.2025 2 21.1354V11.0313ZM20.3754 15.8892C20.514 15.9815 20.514 16.1851 20.3754 16.2775L14.0294 20.5082C13.8744 20.6115 13.6667 20.5004 13.6667 20.314V11.8527C13.6667 11.6663 13.8744 11.5551 14.0294 11.6585L20.3754 15.8892Z" fill="#555555"/>
</svg>
